<?xml version="1.0" encoding="UTF-8" standalone="no"?>
<!-- Created with Inkscape (http://www.inkscape.org/) -->

<svg
   xmlns:xhtml="http://www.w3.org/1999/xhtml"
   xmlns:dc="http://purl.org/dc/elements/1.1/"
   xmlns:cc="http://creativecommons.org/ns#"
   xmlns:rdf="http://www.w3.org/1999/02/22-rdf-syntax-ns#"
   xmlns:svg="http://www.w3.org/2000/svg"
   xmlns="http://www.w3.org/2000/svg"
   xmlns:sodipodi="http://sodipodi.sourceforge.net/DTD/sodipodi-0.dtd"
   xmlns:inkscape="http://www.inkscape.org/namespaces/inkscape"
   version="1.0"
   width="89.174438"
   height="89.199432"
   id="svg1933"
   inkscape:version="0.91 r13725"
   sodipodi:docname="0.8.svg">
  <path
     d="m 44.58722,0.3 -2.27499,0.0625 -2.24998,0.175 -2.21249,0.275 -2.18748,0.38749 -2.13749,0.5 -2.11249,0.6 -2.04998,0.68749 -2.01249,0.8 -1.96249,0.88749 -1.91249,0.97499 -1.84998,1.0625 -1.79999,1.16249 -1.73749,1.22499 -1.67499,1.32499 -1.59999,1.3875 -1.53749,1.46249 -1.47499,1.53749 -1.38749,1.61249 -1.31249,1.67498 -1.2375,1.73749 -1.14999,1.79999 -1.06249,1.84999 -0.98749,1.91249 -0.8875,1.96249 -0.78749,2.01248 -0.7,2.04999 -0.6,2.11249 L 1.2,35.67477 0.8125,37.86226 0.525,40.07474 0.3625,42.32473 0.3,44.59972 c 0,24.46234 19.82488,44.29971 44.28722,44.29971 24.46234,0 44.28722,-19.83737 44.28722,-44.29971 C 88.87444,20.13737 69.04956,0.3 44.58722,0.3 Z"
     style="font-style:normal;font-variant:normal;font-weight:normal;font-stretch:normal;letter-spacing:normal;word-spacing:normal;text-anchor:start;fill:#ff1721;fill-rule:nonzero;stroke:none;stroke-linecap:butt;stroke-linejoin:miter;stroke-miterlimit:10.43299961;stroke-dasharray:none;stroke-dashoffset:0;stroke-opacity:1"
     id="path50"
     inkscape:connector-curvature="0" />
  <metadata
     id="metadata69">
    <rdf:RDF>
      <cc:Work
         rdf:about="">
        <dc:format>image/svg+xml</dc:format>
        <dc:type
           rdf:resource="http://purl.org/dc/dcmitype/StillImage" />
        <dc:title />
      </cc:Work>
    </rdf:RDF>
  </metadata>
  <sodipodi:namedview
     pagecolor="#ffffff"
     bordercolor="#666666"
     borderopacity="1"
     objecttolerance="10"
     gridtolerance="10"
     guidetolerance="10"
     inkscape:pageopacity="0"
     inkscape:pageshadow="2"
     inkscape:window-width="1920"
     inkscape:window-height="1017"
     id="namedview67"
     showgrid="false"
     fit-margin-top="0.3"
     fit-margin-right="0.3"
     fit-margin-bottom="0.3"
     fit-margin-left="0.3"
     inkscape:zoom="1.7213576"
     inkscape:cx="-31.209322"
     inkscape:cy="50.193723"
     inkscape:window-x="-8"
     inkscape:window-y="-8"
     inkscape:window-maximized="1"
     inkscape:current-layer="svg1933" />
  <defs
     id="defs1935" />
  <xhtml:style
     charset="utf-8"
     type="text/css"
     class="firebugResetStyles">/* See license.txt for terms of usage */

/** reset styling **/

.firebugResetStyles {

    z-index: 2147483646 !important;

    top: 0 !important;

    left: 0 !important;

    display: block !important;

    border: 0 none !important;

    margin: 0 !important;

    padding: 0 !important;

    outline: 0 !important;

    min-width: 0 !important;

    max-width: none !important;

    min-height: 0 !important;

    max-height: none !important;

    position: fixed !important;

    transform: rotate(0deg) !important;

    transform-origin: 50% 50% !important;

    border-radius: 0 !important;

    box-shadow: none !important;

    background: transparent none !important;

    pointer-events: none !important;

    white-space: normal !important;

}

style.firebugResetStyles {

    display: none !important;

}



.firebugBlockBackgroundColor {

    background-color: transparent !important;

}



.firebugResetStyles:before, .firebugResetStyles:after {

    content: &quot;&quot; !important;

}

/**actual styling to be modified by firebug theme**/

.firebugCanvas {

    display: none !important;

}



/* * * * * * * * * * * * * * * * * * * * * * * * * * * * * * * * * * * * * * * * * * * * * * * * */

.firebugLayoutBox {

    width: auto !important;

    position: static !important;

}



.firebugLayoutBoxOffset {

    opacity: 0.8 !important;

    position: fixed !important;

}



.firebugLayoutLine {

    opacity: 0.4 !important;

    background-color: #000000 !important;

}



.firebugLayoutLineLeft, .firebugLayoutLineRight {

    width: 1px !important;

    height: 100% !important;

}



.firebugLayoutLineTop, .firebugLayoutLineBottom {

    width: 100% !important;

    height: 1px !important;

}



.firebugLayoutLineTop {

    margin-top: -1px !important;

    border-top: 1px solid #999999 !important;

}



.firebugLayoutLineRight {

    border-right: 1px solid #999999 !important;

}



.firebugLayoutLineBottom {

    border-bottom: 1px solid #999999 !important;

}



.firebugLayoutLineLeft {

    margin-left: -1px !important;

    border-left: 1px solid #999999 !important;

}



/* * * * * * * * * * * * * * * * * * * * * * * * * * * * * * * * * * * * * * * * * * * * * * * * */

.firebugLayoutBoxParent {

    border-top: 0 none !important;

    border-right: 1px dashed #E00 !important;

    border-bottom: 1px dashed #E00 !important;

    border-left: 0 none !important;

    position: fixed !important;

    width: auto !important;

}



.firebugRuler{

    position: absolute !important;

}



.firebugRulerH {

    top: -15px !important;

    left: 0 !important;

    width: 100% !important;

    height: 14px !important;

    background: url(&quot;data:image/png,%89PNG%0D%0A%1A%0A%00%00%00%0DIHDR%00%00%13%88%00%00%00%0E%08%02%00%00%00L%25a%0A%00%00%00%04gAMA%00%00%D6%D8%D4OX2%00%00%00%19tEXtSoftware%00Adobe%20ImageReadyq%C9e%3C%00%00%04%F8IDATx%DA%EC%DD%D1n%E2%3A%00E%D1%80%F8%FF%EF%E2%AF2%95%D0D4%0E%C1%14%B0%8Fa-%E9%3E%CC%9C%87n%B9%81%A6W0%1C%A6i%9A%E7y%0As8%1CT%A9R%A5J%95*U%AAT%A9R%A5J%95*U%AAT%A9R%A5J%95*U%AAT%A9R%A5J%95*U%AAT%A9R%A5J%95*U%AAT%A9R%A5J%95*U%AAT%A9R%A5J%95*U%AATE9%FE%FCw%3E%9F%AF%2B%2F%BA%97%FDT%1D~K(%5C%9D%D5%EA%1B%5C%86%B5%A9%BDU%B5y%80%ED%AB*%03%FAV9%AB%E1%CEj%E7%82%EF%FB%18%BC%AEJ8%AB%FA'%D2%BEU9%D7U%ECc0%E1%A2r%5DynwVi%CFW%7F%BB%17%7Dy%EACU%CD%0E%F0%FA%3BX%FEbV%FEM%9B%2B%AD%BE%AA%E5%95v%AB%AA%E3E5%DCu%15rV9%07%B5%7F%B5w%FCm%BA%BE%AA%FBY%3D%14%F0%EE%C7%60%0EU%AAT%A9R%A5J%95*U%AAT%A9R%A5J%95*U%AAT%A9R%A5J%95*U%AAT%A9R%A5J%95*U%AAT%A9R%A5JU%88%D3%F5%1F%AE%DF%3B%1B%F2%3E%DAUCNa%F92%D02%AC%7Dm%F9%3A%D4%F2%8B6%AE*%BF%5C%C2Ym~9g5%D0Y%95%17%7C%C8c%B0%7C%18%26%9CU%CD%13i%F7%AA%90%B3Z%7D%95%B4%C7%60%E6E%B5%BC%05%B4%FBY%95U%9E%DB%FD%1C%FC%E0%9F%83%7F%BE%17%7DkjMU%E3%03%AC%7CWj%DF%83%9An%BCG%AE%F1%95%96yQ%0Dq%5Dy%00%3Et%B5'%FC6%5DS%95pV%95%01%81%FF'%07%00%00%00%00%00%00%00%00%00%F8x%C7%F0%BE%9COp%5D%C9%7C%AD%E7%E6%EBV%FB%1E%E0(%07%E5%AC%C6%3A%ABi%9C%8F%C6%0E9%AB%C0'%D2%8E%9F%F99%D0E%B5%99%14%F5%0D%CD%7F%24%C6%DEH%B8%E9rV%DFs%DB%D0%F7%00k%FE%1D%84%84%83J%B8%E3%BA%FB%EF%20%84%1C%D7%AD%B0%8E%D7U%C8Y%05%1E%D4t%EF%AD%95Q%BF8w%BF%E9%0A%BF%EB%03%00%00%00%00%00%00%00%00%00%B8vJ%8E%BB%F5%B1u%8Cx%80%E1o%5E%CA9%AB%CB%CB%8E%03%DF%1D%B7T%25%9C%D5(%EFJM8%AB%CC'%D2%B2*%A4s%E7c6%FB%3E%FA%A2%1E%80~%0E%3E%DA%10x%5D%95Uig%15u%15%ED%7C%14%B6%87%A1%3B%FCo8%A8%D8o%D3%ADO%01%EDx%83%1A~%1B%9FpP%A3%DC%C6'%9C%95gK%00%00%00%00%00%00%00%00%00%20%D9%C9%11%D0%C0%40%AF%3F%EE%EE%92%94%D6%16X%B5%BCMH%15%2F%BF%D4%A7%C87%F1%8E%F2%81%AE%AAvzr%DA2%ABV%17%7C%E63%83%E7I%DC%C6%0Bs%1B%EF6%1E%00%00%00%00%00%00%00%00%00%80cr%9CW%FF%7F%C6%01%0E%F1%CE%A5%84%B3%CA%BC%E0%CB%AA%84%CE%F9%BF)%EC%13%08WU%AE%AB%B1%AE%2BO%EC%8E%CBYe%FE%8CN%ABr%5Dy%60~%CFA%0D%F4%AE%D4%BE%C75%CA%EDVB%EA(%B7%F1%09g%E5%D9%12%00%00%00%00%00%00%00%00%00H%F6%EB%13S%E7y%5E%5E%FB%98%F0%22%D1%B2'%A7%F0%92%B1%BC%24z3%AC%7Dm%60%D5%92%B4%7CEUO%5E%F0%AA*%3BU%B9%AE%3E%A0j%94%07%A0%C7%A0%AB%FD%B5%3F%A0%F7%03T%3Dy%D7%F7%D6%D4%C0%AAU%D2%E6%DFt%3F%A8%CC%AA%F2%86%B9%D7%F5%1F%18%E6%01%F8%CC%D5%9E%F0%F3z%88%AA%90%EF%20%00%00%00%00%00%00%00%00%00%C0%A6%D3%EA%CFi%AFb%2C%7BB%0A%2B%C3%1A%D7%06V%D5%07%A8r%5D%3D%D9%A6%CAu%F5%25%CF%A2%99%97zNX%60%95%AB%5DUZ%D5%FBR%03%AB%1C%D4k%9F%3F%BB%5C%FF%81a%AE%AB'%7F%F3%EA%FE%F3z%94%AA%D8%DF%5B%01%00%00%00%00%00%00%00%00%00%8E%FB%F3%F2%B1%1B%8DWU%AAT%A9R%A5J%95*U%AAT%A9R%A5J%95*U%AAT%A9R%A5J%95*U%AAT%A9R%A5J%95*U%AAT%A9R%A5J%95*U%AAT%A9R%A5J%95*U%AAT%A9R%A5J%95*UiU%C7%BBe%E7%F3%B9%CB%AAJ%95*U%AAT%A9R%A5J%95*U%AAT%A9R%A5J%95*U%AAT%A9R%A5J%95*U%AAT%A9R%A5J%95*U%AAT%A9R%A5J%95*U%AAT%A9R%A5J%95*U%AAT%A9R%A5*%AAj%FD%C6%D4%5Eo%90%B5Z%ADV%AB%D5j%B5Z%ADV%AB%D5j%B5Z%ADV%AB%D5j%B5Z%ADV%AB%D5j%B5Z%ADV%AB%D5j%B5Z%ADV%AB%D5j%B5Z%ADV%AB%D5j%B5%86%AF%1B%9F%98%DA%EBm%BBV%AB%D5j%B5Z%ADV%AB%D5j%B5Z%ADV%AB%D5j%B5Z%ADV%AB%D5j%B5Z%ADV%AB%D5j%B5Z%ADV%AB%D5j%B5Z%ADV%AB%D5j%B5Z%AD%D6%E4%F58%01%00%00%00%00%00%00%00%00%00%00%00%00%00%40%85%7F%02%0C%008%C2%D0H%16j%8FX%00%00%00%00IEND%AEB%60%82&quot;) repeat-x !important;

    border-top: 1px solid #BBBBBB !important;

    border-right: 1px dashed #BBBBBB !important;

    border-bottom: 1px solid #000000 !important;

}



.firebugRulerV {

    top: 0 !important;

    left: -15px !important;

    width: 14px !important;

    height: 100% !important;

    background: url(&quot;data:image/png,%89PNG%0D%0A%1A%0A%00%00%00%0DIHDR%00%00%00%0E%00%00%13%88%08%02%00%00%00%0E%F5%CB%10%00%00%00%04gAMA%00%00%D6%D8%D4OX2%00%00%00%19tEXtSoftware%00Adobe%20ImageReadyq%C9e%3C%00%00%06~IDATx%DA%EC%DD%D1v%A20%14%40Qt%F1%FF%FF%E4%97%D9%07%3BT%19%92%DC%40(%90%EEy%9A5%CB%B6%E8%F6%9Ac%A4%CC0%84%FF%DC%9E%CF%E7%E3%F1%88%DE4%F8%5D%C7%9F%2F%BA%DD%5E%7FI%7D%F18%DDn%BA%C5%FB%DF%97%BFk%F2%10%FF%FD%B4%F2M%A7%FB%FD%FD%B3%22%07p%8F%3F%AE%E3%F4S%8A%8F%40%EEq%9D%BE8D%F0%0EY%A1Uq%B7%EA%1F%81%88V%E8X%3F%B4%CEy%B7h%D1%A2E%EBohU%FC%D9%AF2fO%8BBeD%BE%F7X%0C%97%A4%D6b7%2Ck%A5%12%E3%9B%60v%B7r%C7%1AI%8C%BD%2B%23r%00c0%B2v%9B%AD%CA%26%0C%1Ek%05A%FD%93%D0%2B%A1u%8B%16-%95q%5Ce%DCSO%8E%E4M%23%8B%F7%C2%FE%40%BB%BD%8C%FC%8A%B5V%EBu%40%F9%3B%A72%FA%AE%8C%D4%01%CC%B5%DA%13%9CB%AB%E2I%18%24%B0n%A9%0CZ*Ce%9C%A22%8E%D8NJ%1E%EB%FF%8F%AE%CAP%19*%C3%BAEKe%AC%D1%AAX%8C*%DEH%8F%C5W%A1e%AD%D4%B7%5C%5B%19%C5%DB%0D%EF%9F%19%1D%7B%5E%86%BD%0C%95%A12%AC%5B*%83%96%CAP%19%F62T%86%CAP%19*%83%96%CA%B8Xe%BC%FE)T%19%A1%17xg%7F%DA%CBP%19*%C3%BA%A52T%86%CAP%19%F62T%86%CA%B0n%A9%0CZ%1DV%C6%3D%F3%FCH%DE%B4%B8~%7F%5CZc%F1%D6%1F%AF%84%F9%0F6%E6%EBVt9%0E~%BEr%AF%23%B0%97%A12T%86%CAP%19%B4T%86%CA%B8Re%D8%CBP%19*%C3%BA%A52huX%19%AE%CA%E5%BC%0C%7B%19*CeX%B7h%A9%0C%95%E1%BC%0C%7B%19*CeX%B7T%06%AD%CB%5E%95%2B%BF.%8F%C5%97%D5%E4%7B%EE%82%D6%FB%CF-%9C%FD%B9%CF%3By%7B%19%F62T%86%CA%B0n%D1R%19*%A3%D3%CA%B0%97%A12T%86uKe%D0%EA%B02*%3F1%99%5DB%2B%A4%B5%F8%3A%7C%BA%2B%8Co%7D%5C%EDe%A8%0C%95a%DDR%19%B4T%C66%82fA%B2%ED%DA%9FC%FC%17GZ%06%C9%E1%B3%E5%2C%1A%9FoiB%EB%96%CA%A0%D5qe4%7B%7D%FD%85%F7%5B%ED_%E0s%07%F0k%951%ECr%0D%B5C%D7-g%D1%A8%0C%EB%96%CA%A0%A52T%C6)*%C3%5E%86%CAP%19%D6-%95A%EB*%95q%F8%BB%E3%F9%AB%F6%E21%ACZ%B7%22%B7%9B%3F%02%85%CB%A2%5B%B7%BA%5E%B7%9C%97%E1%BC%0C%EB%16-%95%A12z%AC%0C%BFc%A22T%86uKe%D0%EA%B02V%DD%AD%8A%2B%8CWhe%5E%AF%CF%F5%3B%26%CE%CBh%5C%19%CE%CB%B0%F3%A4%095%A1%CAP%19*Ce%A8%0C%3BO*Ce%A8%0C%95%A12%3A%AD%8C%0A%82%7B%F0v%1F%2FD%A9%5B%9F%EE%EA%26%AF%03%CA%DF9%7B%19*Ce%A8%0C%95%A12T%86%CA%B8Ze%D8%CBP%19*Ce%A8%0C%95%D1ae%EC%F7%89I%E1%B4%D7M%D7P%8BjU%5C%BB%3E%F2%20%D8%CBP%19*Ce%A8%0C%95%A12T%C6%D5*%C3%5E%86%CAP%19*Ce%B4O%07%7B%F0W%7Bw%1C%7C%1A%8C%B3%3B%D1%EE%AA%5C%D6-%EBV%83%80%5E%D0%CA%10%5CU%2BD%E07YU%86%CAP%19*%E3%9A%95%91%D9%A0%C8%AD%5B%EDv%9E%82%FFKOee%E4%8FUe%A8%0C%95%A12T%C6%1F%A9%8C%C8%3D%5B%A5%15%FD%14%22r%E7B%9F%17l%F8%BF%ED%EAf%2B%7F%CF%ECe%D8%CBP%19*Ce%A8%0C%95%E1%93~%7B%19%F62T%86%CAP%19*Ce%A8%0C%E7%13%DA%CBP%19*Ce%A8%0CZf%8B%16-Z%B4h%D1R%19f%8B%16-Z%B4h%D1R%19%B4%CC%16-Z%B4h%D1R%19%B4%CC%16-Z%B4h%D1%A2%A52%CC%16-Z%B4h%D1%A2%A52h%99-Z%B4h%D1%A2%A52h%99-Z%B4h%D1%A2EKe%98-Z%B4h%D1%A2EKe%D02%5B%B4h%D1%A2EKe%D02%5B%B4h%D1%A2E%8B%96%CA0%5B%B4h%D1%A2E%8B%96%CA%A0e%B6h%D1%A2E%8B%96%CA%A0e%B6h%D1%A2E%8B%16-%95a%B6h%D1%A2E%8B%16-%95A%CBl%D1%A2E%8B%16-%95A%CBl%D1%A2E%8B%16-Z*%C3l%D1%A2E%8B%16-Z*%83%96%D9%A2E%8B%16-Z*%83%96%D9%A2E%8B%16-Z%B4T%86%D9%A2E%8B%16-Z%B4T%06-%B3E%8B%16-Z%B4T%06-%B3E%8B%16-Z%B4h%A9%0C%B3E%8B%16-Z%B4h%A9%0CZf%8B%16-Z%B4h%A9%0CZf%8B%16-Z%B4h%D1R%19f%8B%16-Z%B4h%D1R%19%B4%CC%16-Z%B4h%D1R%19%B4%CC%16-Z%B4h%D1%A2%A52%CC%16-Z%B4h%D1%A2%A52h%99-Z%B4h%D1%A2%A52h%99-Z%B4h%D1%A2EKe%98-Z%B4h%D1%A2EKe%D02%5B%B4h%D1%A2EKe%D02%5B%B4h%D1%A2E%8B%96%CA0%5B%B4h%D1%A2E%8B%96%CA%A0e%B6h%D1%A2E%8B%96%CA%A0e%B6h%D1%A2E%8B%16-%95a%B6h%D1%A2E%8B%16-%95A%CBl%D1%A2E%8B%16-%95A%CBl%D1%A2E%8B%16-Z*%C3l%D1%A2E%8B%16-Z*%83%96%D9%A2E%8B%16-Z*%83%96%D9%A2E%8B%16-Z%B4T%86%D9%A2E%8B%16-Z%B4T%06-%B3E%8B%16-Z%B4T%06-%B3E%8B%16-Z%B4h%A9%0C%B3E%8B%16-Z%B4h%A9%0CZf%8B%16-Z%B4h%A9%0CZf%8B%16-Z%B4h%D1R%19f%8B%16-Z%B4h%D1R%19%B4%CC%16-Z%B4h%D1R%19%B4%CC%16-Z%B4h%D1%A2%A52%CC%16-Z%B4h%D1%A2%A52h%99-Z%B4h%D1%A2%A52h%99-Z%B4h%D1%A2EKe%98-Z%B4h%D1%A2EKe%D02%5B%B4h%D1%A2EKe%D02%5B%B4h%D1%A2E%8B%96%CA0%5B%B4h%D1%A2E%8B%96%CA%A0e%B6h%D1%A2E%8B%96%CA%A0e%B6h%D1%A2E%8B%16-%95a%B6h%D1%A2E%8B%16-%95A%CBl%D1%A2E%8B%16-%95A%CBl%D1%A2E%8B%16-Z*%C3l%D1%A2E%8B%16-Z*%83%96%D9%A2E%8B%16-Z*%83%96%D9%A2E%8B%16-Z%B4T%86%D9%A2E%8B%16-Z%B4T%06-%B3E%8B%16-Z%B4%AE%A4%F5%25%C0%00%DE%BF%5C'%0F%DA%B8q%00%00%00%00IEND%AEB%60%82&quot;) repeat-y !important;

    border-left: 1px solid #BBBBBB !important;

    border-right: 1px solid #000000 !important;

    border-bottom: 1px dashed #BBBBBB !important;

}



.overflowRulerX &gt; .firebugRulerV {

    left: 0 !important;

}



.overflowRulerY &gt; .firebugRulerH {

    top: 0 !important;

}



/* * * * * * * * * * * * * * * * * * * * * * * * * * * * * * * * * * * * * * * * * * * * * * * * */

.fbProxyElement {

    position: fixed !important;

    pointer-events: auto !important;

}

</xhtml:style>
  <g
     inkscape:groupmode="layer"
     id="layer1"
     inkscape:label="Layer 1"
     style="display:inline" />
  <g
     inkscape:groupmode="layer"
     id="layer2"
     inkscape:label="Layer 2"
     style="display:inline" />
  <path
     d="m 44.58722,15.0624 -1.51249,0.0375 -1.49999,0.125 -1.47499,0.1875 -1.46249,0.25 -1.42499,0.3375 -1.39999,0.4 -1.375,0.46249 -1.33749,0.525 -1.31249,0.5875 -1.27499,0.66249 -1.22499,0.7 -1.19999,0.77499 -1.1625,0.825 -1.11249,0.87499 -1.07499,0.925 -1.025,0.97499 -0.97499,1.03749 -0.92499,1.0625 -0.8875,1.12499 -0.81249,1.14999 -0.775,1.19999 -0.71249,1.2375 -0.65,1.27499 -0.5875,1.31249 -0.53749,1.33749 -0.4625,1.37499 -0.4,1.39999 -0.325,1.42499 -0.26249,1.44999 -0.1875,1.48749 -0.1125,1.49999 -0.0375,1.5125 c 0,16.29989 13.22491,29.53731 29.52481,29.53731 16.3124,0 29.52481,-13.23742 29.52481,-29.53731 0,-16.3124 -13.21241,-29.53732 -29.52481,-29.53732 z"
     style="font-style:normal;font-variant:normal;font-weight:normal;font-stretch:normal;letter-spacing:normal;word-spacing:normal;text-anchor:start;fill:#ffffff;fill-rule:nonzero;stroke:none;stroke-linecap:butt;stroke-linejoin:miter;stroke-miterlimit:10.43299961;stroke-dasharray:none;stroke-dashoffset:0;stroke-opacity:1"
     id="path52"
     inkscape:connector-curvature="0" />
  <g
     id="g4311"
     transform="matrix(0.94236767,0,0,0.94236767,1.4228696,3.0321511)">
    <g
       transform="translate(-175.10157,-226.41847)"
       id="g4334">
      <path
         d="m 219.2655,255.23431 0.05,0.0125 0.05,0 0.1,0 0.1125,0 0.11249,0.0125 0.1125,0 0.125,0.0125 0.1125,0.0125 0.125,0 0.1125,0.0125 0.125,0.0125 0.1125,0.0125 0.1125,0.0125 0.1125,0.0125 0.1125,0.0125 0.05,0.0125 0.05,0 0.05,0.0125 0.05,0.0125 c 0.61249,0.12499 1.19999,0.34999 1.76248,0.66249 1.175,0.675 2.13749,1.69999 2.73749,2.93748 0.49999,1.0125 0.72499,2.14999 0.74999,3.27498 0.025,1.09999 -0.15,2.21249 -0.52499,3.24998 -0.3125,0.88749 -0.7875,1.71249 -1.3625,2.46248 -0.075,0.1125 -0.19999,0.2625 -0.28749,0.375 0.0625,0.075 0.17499,0.2 0.22499,0.2875 0.85,1.14999 1.57499,2.39998 2.04999,3.74998 0.475,1.34999 0.725,2.77498 0.7875,4.21247 0.0375,1.12499 -0.025,2.28748 -0.3125,3.36248 -0.3,1.12499 -0.825,2.17498 -1.56249,3.06248 -0.7125,0.83749 -1.61249,1.51249 -2.61248,1.97499 -1.05,0.51249 -2.19999,0.79999 -3.37498,0.81249 -1.1125,0 -2.22499,-0.2375 -3.23748,-0.6875 -1.05,-0.47499 -1.97499,-1.14999 -2.71249,-2.02498 -0.72499,-0.8375 -1.26249,-1.82499 -1.58749,-2.89998 -0.34999,-1.175 -0.42499,-2.51249 -0.37499,-3.74998 0.075,-1.44999 0.325,-2.93748 0.83749,-4.29997 0.45,-1.24999 1.09999,-2.41249 1.91249,-3.46248 0.0625,-0.0875 0.1625,-0.2125 0.225,-0.2875 -0.0375,-0.075 -0.1375,-0.1875 -0.1875,-0.25 -0.675,-0.82499 -1.17499,-1.79999 -1.51249,-2.82498 -0.325,-0.97499 -0.5,-1.99999 -0.4875,-3.02498 0,-1.19999 0.25,-2.41248 0.8125,-3.47498 0.73749,-1.37499 1.92498,-2.43748 3.36248,-3.04998 0.49999,-0.2125 0.99999,-0.35 1.52499,-0.43749 0.38749,-0.0625 0.96249,-0.0875 1.36249,-0.1125 z"
         style="font-style:normal;font-variant:normal;font-weight:normal;font-stretch:normal;letter-spacing:normal;word-spacing:normal;text-anchor:start;fill:#000000;fill-rule:nonzero;stroke:none;stroke-linecap:butt;stroke-linejoin:miter;stroke-miterlimit:10.43299961;stroke-dasharray:none;stroke-dashoffset:0;stroke-opacity:1"
         id="path72"
         inkscape:connector-curvature="0" />
      <path
         d="m 219.2405,259.45928 0.0625,0 0.0625,0 0.0625,0 0.0625,0 0.0625,0.0125 0.0625,0.0125 0.0625,0 0.0625,0.0125 0.0625,0.0125 0.0625,0.025 0.0625,0.0125 0.05,0.0125 0.0625,0.025 0.0625,0.0125 0.1125,0.05 0.1125,0.05 0.1125,0.05 0.1125,0.0625 0.1125,0.0625 0.1,0.075 0.1125,0.075 0.1,0.075 0.0875,0.075 c 0.53749,0.475 0.81249,1.175 0.86249,1.87499 0.025,0.55 -0.1125,1.1625 -0.2875,1.68749 -0.15,0.4375 -0.325,0.85 -0.52499,1.24999 -0.1625,0.325 -0.4,0.7125 -0.675,0.95 -0.325,0.275 -0.75,0.4125 -1.18749,0.4125 -0.4375,0 -0.85,-0.15 -1.1875,-0.4375 -0.22499,-0.1875 -0.42499,-0.5 -0.58749,-0.75 -0.2625,-0.44999 -0.5,-0.93749 -0.675,-1.43749 -0.175,-0.51249 -0.2875,-1.08749 -0.25,-1.62499 0.05,-0.67499 0.3,-1.34999 0.7875,-1.81249 0.5125,-0.49999 1.18749,-0.82499 1.89999,-0.82499 z"
         style="font-style:normal;font-variant:normal;font-weight:normal;font-stretch:normal;letter-spacing:normal;word-spacing:normal;text-anchor:start;fill:#ffffff;fill-rule:nonzero;stroke:none;stroke-linecap:butt;stroke-linejoin:miter;stroke-miterlimit:10.43299961;stroke-dasharray:none;stroke-dashoffset:0;stroke-opacity:1"
         id="path68"
         inkscape:connector-curvature="0" />
      <path
         d="m 219.2655,270.69671 0.075,0.0125 0.075,0.0125 0.075,0.0125 0.075,0.0125 0.075,0.0125 0.075,0.025 0.0625,0.025 0.075,0.025 0.075,0.025 0.0625,0.0375 0.075,0.025 0.0625,0.0375 0.0625,0.0375 0.075,0.0375 0.0625,0.05 0.0625,0.0375 c 0.225,0.1625 0.4375,0.4375 0.5875,0.6625 0.34999,0.5 0.63749,1.03749 0.87499,1.59999 0.3375,0.79999 0.6,1.63749 0.7375,2.49998 0.14999,0.85 0.19999,1.76249 0.025,2.58749 -0.15,0.72499 -0.45,1.43749 -0.9625,1.97498 -0.61249,0.65 -1.44999,1.025 -2.34998,1.0625 -0.9875,0.05 -1.96249,-0.3375 -2.64999,-1.0625 -0.52499,-0.53749 -0.83749,-1.23749 -0.97499,-1.97498 -0.1625,-0.8125 -0.0875,-1.77499 0.0625,-2.58749 0.1375,-0.84999 0.35,-1.69999 0.6375,-2.51248 0.21249,-0.5875 0.51249,-1.28749 0.92499,-1.76249 0.2375,-0.2625 0.5125,-0.5125 0.83749,-0.66249 0.35,-0.15 0.7375,-0.2625 1.125,-0.25 z"
         style="font-style:normal;font-variant:normal;font-weight:normal;font-stretch:normal;letter-spacing:normal;word-spacing:normal;text-anchor:start;fill:#ffffff;fill-rule:nonzero;stroke:none;stroke-linecap:butt;stroke-linejoin:miter;stroke-miterlimit:10.43299961;stroke-dasharray:none;stroke-dashoffset:0;stroke-opacity:1"
         id="path70"
         inkscape:connector-curvature="0" />
    </g>
    <g
       transform="translate(-212.75363,-226.40949)"
       id="g4329">
      <path
         d="m 237.61538,255.23431 0.1125,0.0125 0.125,0 0.1125,0 0.125,0.0125 0.125,0.0125 0.1125,0.025 0.12499,0.0125 0.1125,0.025 0.125,0.0125 0.125,0.025 0.1125,0.025 0.125,0.025 0.1125,0.0375 0.1125,0.025 0.125,0.0375 0.1125,0.025 c 1.33749,0.4 2.47498,1.35 3.31248,2.46249 0.73749,0.96249 1.27499,2.12498 1.64999,3.27498 0.37499,1.11249 0.62499,2.26248 0.79999,3.41248 0.175,1.18749 0.2625,2.42498 0.3125,3.62497 0.0375,1.38749 0.025,2.77498 -0.075,4.16248 -0.0875,1.29999 -0.25,2.57498 -0.475,3.86247 -0.2625,1.46249 -0.64999,2.93748 -1.18749,4.31247 -0.4875,1.25 -1.19999,2.59999 -2.18749,3.49998 -1.09999,1.01249 -2.51248,1.59999 -4.01247,1.64999 -1.39999,0.05 -2.79998,-0.375 -3.91248,-1.24999 -1.18749,-0.9375 -2.02498,-2.51249 -2.54998,-3.93748 -0.5,-1.36249 -0.84999,-2.81248 -1.07499,-4.24997 -0.2125,-1.26249 -0.3375,-2.61248 -0.425,-3.87497 -0.0875,-1.25 -0.15,-2.64999 -0.0875,-3.89998 0.0375,-1.28749 0.2125,-2.62498 0.4375,-3.88747 0.1875,-1.1 0.45,-2.28749 0.78749,-3.36248 0.3625,-1.15 0.8875,-2.34999 1.61249,-3.32498 0.8625,-1.14999 2.06249,-2.11249 3.46248,-2.51249 0.5375,-0.14999 1.13749,-0.27499 1.71249,-0.27499 z"
         style="font-style:normal;font-variant:normal;font-weight:normal;font-stretch:normal;letter-spacing:normal;word-spacing:normal;text-anchor:start;fill:#000000;fill-rule:nonzero;stroke:none;stroke-linecap:butt;stroke-linejoin:miter;stroke-miterlimit:10.43299961;stroke-dasharray:none;stroke-dashoffset:0;stroke-opacity:1"
         id="path76"
         inkscape:connector-curvature="0" />
      <g
         id="g4326">
        <path
           inkscape:connector-curvature="0"
           id="path74"
           style="font-style:normal;font-variant:normal;font-weight:normal;font-stretch:normal;letter-spacing:normal;word-spacing:normal;text-anchor:start;fill:#ffffff;fill-rule:nonzero;stroke:none;stroke-linecap:butt;stroke-linejoin:miter;stroke-miterlimit:10.43299961;stroke-dasharray:none;stroke-dashoffset:0;stroke-opacity:1"
           d="m 237.64038,259.63428 0.0625,0 0.0625,0 0.0625,0 0.0625,0 0.0625,0.0125 0.0625,0.0125 0.0625,0.0125 0.0625,0.0125 0.0625,0.0125 0.0625,0.0125 0.0625,0.025 0.0625,0.025 0.0625,0.0125 0.05,0.025 0.0625,0.0375 0.05,0.025 c 0.3,0.15 0.5375,0.42499 0.7125,0.69999 0.3,0.4625 0.5,1.1 0.63749,1.62499 0.2375,0.9 0.4125,1.82499 0.55,2.73748 0.15,0.9375 0.25,1.89999 0.3125,2.86249 0.0625,0.97499 0.1125,1.96248 0.1,2.94998 -0.0125,1.09999 -0.0625,2.21248 -0.15,3.32498 -0.1,1.11249 -0.2625,2.27498 -0.5,3.36247 -0.1625,0.75 -0.38749,1.51249 -0.67499,2.23749 -0.1625,0.3625 -0.35,0.75 -0.5875,1.08749 -0.15,0.2125 -0.35,0.425 -0.575,0.575 -0.24999,0.1625 -0.53749,0.25 -0.83749,0.275 -0.35,0.0125 -0.7125,-0.0625 -0.99999,-0.2625 -0.2,-0.1375 -0.3875,-0.375 -0.525,-0.5875 -0.225,-0.33749 -0.4125,-0.71249 -0.575,-1.08749 -0.28749,-0.7 -0.49999,-1.49999 -0.63749,-2.24999 -0.2,-1.06249 -0.325,-2.33748 -0.4125,-3.39997 -0.075,-1.0625 -0.1625,-2.27499 -0.1625,-3.32498 0,-0.975 0.0625,-1.96249 0.1625,-2.93748 0.1,-0.9625 0.2375,-1.92499 0.4125,-2.88749 0.15,-0.87499 0.3375,-1.77498 0.57499,-2.63748 0.15,-0.55 0.3875,-1.19999 0.7,-1.67499 0.1875,-0.2625 0.425,-0.53749 0.71249,-0.68749 0.2375,-0.1125 0.5125,-0.2125 0.7875,-0.225 z" />
      </g>
    </g>
    <rect
       y="55.409573"
       x="31.569"
       height="3.994"
       width="3.994"
       id="rect4339"
       style="fill:#000000;fill-opacity:1" />
    <polygon
       points="317.67,368.36 316.42,369.07 303.12,358.82 303.12,358.82 304.37,358.1 "
       style="font-style:normal;font-variant:normal;font-weight:normal;font-stretch:normal;letter-spacing:normal;word-spacing:normal;text-anchor:start;fill:#000000;fill-opacity:1;fill-rule:nonzero;stroke:#000000;stroke-width:0;stroke-linecap:butt;stroke-linejoin:miter;stroke-miterlimit:10.43299961;stroke-dasharray:none;stroke-dashoffset:0;stroke-opacity:1"
       id="polygon24"
       transform="matrix(1.0841817,-0.62211745,-0.62211745,-1.0841817,-50.30695,637.00249)" />
    <g
       transform="translate(-2.6003425,0)"
       id="g4204">
      <path
         inkscape:connector-curvature="0"
         id="path22"
         style="font-style:normal;font-variant:normal;font-weight:normal;font-stretch:normal;letter-spacing:normal;word-spacing:normal;text-anchor:start;fill:#000000;fill-opacity:1;fill-rule:nonzero;stroke:#000000;stroke-width:0;stroke-linecap:butt;stroke-linejoin:miter;stroke-miterlimit:10.43299961;stroke-dasharray:none;stroke-dashoffset:0;stroke-opacity:1"
         d="m 58.62682,50.535876 0.11784,0.0044 0.10078,-1.79e-4 0.1054,-0.01724 0.10079,-1.79e-4 0.0946,-0.01102 0.1054,-0.01724 0.0946,-0.01102 0.1054,-0.01724 0.0883,-0.02186 0.0883,-0.02186 0.0992,-0.02808 0.0883,-0.02186 0.0821,-0.03271 0.0992,-0.02808 0.0821,-0.03271 0.0759,-0.04355 0.0929,-0.03892 0.0759,-0.04355 0.0759,-0.04355 0.0867,-0.04977 0.0759,-0.04355 0.0697,-0.05439 0.0697,-0.05439 0.0805,-0.06061 0.0697,-0.05439 0.0634,-0.06523 0.0697,-0.05439 0.0743,-0.07146 0.0572,-0.07607 0.0635,-0.06523 0.0681,-0.0823 0.0572,-0.07608 c 0.64658,-0.832167 0.94052,-2.05288 0.94686,-3.699445 l 0,0 0,0 0,0 c 0.006,-1.646564 -0.32304,-2.898717 -0.94781,-3.736377 -0.63562,-0.831438 -1.52166,-1.245361 -2.64727,-1.247991 -1.13646,0.0036 -1.99314,0.394286 -2.63351,1.237317 -0.64658,0.832191 -0.96682,2.082409 -0.97317,3.728973 -0.006,1.646565 0.31522,2.859973 0.94622,3.708473 0.63561,0.831437 1.52165,1.245361 2.6302,1.243371 z" />
      <path
         inkscape:connector-curvature="0"
         id="path30"
         style="font-style:normal;font-variant:normal;font-weight:normal;font-stretch:normal;letter-spacing:normal;word-spacing:normal;text-anchor:start;fill:#ffffff;fill-opacity:1;fill-rule:nonzero;stroke:#ffffff;stroke-width:0;stroke-linecap:butt;stroke-linejoin:miter;stroke-miterlimit:10.43299961;stroke-dasharray:none;stroke-dashoffset:0;stroke-opacity:1"
         d="m 58.63938,48.900153 -0.045,-0.003 -0.045,-0.003 -0.0512,-0.01386 -0.045,-0.003 -0.045,-0.003 -0.0512,-0.01386 -0.045,-0.003 -0.0403,-0.02008 -0.0512,-0.01386 -0.0341,-0.0092 -0.0403,-0.02009 -0.0404,-0.02008 -0.0403,-0.02009 -0.0403,-0.02008 -0.0466,-0.03093 -0.0404,-0.02008 -0.0295,-0.02631 -0.0466,-0.03093 -0.0295,-0.02631 -0.0357,-0.03715 -0.0295,-0.02631 -0.0357,-0.03715 -0.0357,-0.03715 -0.0187,-0.03253 -0.0357,-0.03715 -0.0249,-0.04337 -0.0357,-0.03715 -0.0249,-0.04337 -0.0311,-0.05421 -0.0249,-0.04337 -0.0249,-0.04337 -0.0311,-0.05421 c -0.24903,-0.534447 -0.36832,-1.345108 -0.36107,-2.487786 0.002,-2.206261 0.53204,-3.317318 1.56772,-3.320729 1.05275,0.0012 1.58191,1.124321 1.5626,3.325961 l 0,0 0,0 0,0 c 0.01,1.147299 -0.12826,1.961521 -0.37228,2.490655 -0.26108,0.524512 -0.65902,0.810505 -1.20166,0.819232 z" />
    </g>
    <g
       transform="translate(326.49661,75.530259)"
       id="g4180">
      <path
         inkscape:connector-curvature="0"
         id="path26"
         style="font-style:normal;font-variant:normal;font-weight:normal;font-stretch:normal;letter-spacing:normal;word-spacing:normal;text-anchor:start;fill:#000000;fill-opacity:1;fill-rule:nonzero;stroke:#000000;stroke-width:0;stroke-linecap:butt;stroke-linejoin:miter;stroke-miterlimit:10.43299961;stroke-dasharray:none;stroke-dashoffset:0;stroke-opacity:1"
         d="m -266.55826,-21.695801 0.003,0.156585 -0.003,0.145744 0.003,0.156585 0.008,0.139527 0.008,0.139522 0.0142,0.150364 0.008,0.139526 0.0188,0.133305 0.0188,0.133306 0.0126,0.122459 0.0188,0.133305 0.0297,0.127083 0.0126,0.122464 0.0297,0.127084 0.0235,0.116242 0.0343,0.11002 0.0235,0.116242 0.0343,0.110021 0.0343,0.11002 0.0343,0.11002 0.0452,0.1038 0.0451,0.103799 0.0389,0.09296 0.0452,0.1038 0.0389,0.09296 0.056,0.09758 0.0389,0.09296 0.0498,0.08674 0.11038,0.16725 0.12122,0.161028 c 0.631,0.848502 1.52165,1.245362 2.63643,1.254213 1.13645,-0.0036 2.03188,-0.402108 2.6614,-1.238919 0.63575,-0.825968 0.95759,-2.048282 0.96394,-3.694847 l 0,0 0,0 0,0 c -0.0107,-1.651185 -0.33389,-2.892497 -0.96488,-3.740997 -0.63562,-0.831444 -1.52166,-1.245368 -2.63643,-1.254219 -1.13645,0.0036 -2.00398,0.400508 -2.64434,1.24354 -0.64659,0.832189 -0.96683,2.082408 -0.97318,3.728972 z" />
      <path
         inkscape:connector-curvature="0"
         id="path32"
         style="font-style:normal;font-variant:normal;font-weight:normal;font-stretch:normal;letter-spacing:normal;word-spacing:normal;text-anchor:start;fill:#ffffff;fill-opacity:1;fill-rule:nonzero;stroke:#ffffff;stroke-width:0;stroke-linecap:butt;stroke-linejoin:miter;stroke-miterlimit:10.43299961;stroke-dasharray:none;stroke-dashoffset:0;stroke-opacity:1"
         d="m -264.14752,-19.202392 -0.0452,-0.103799 -0.0451,-0.103799 -0.0405,-0.120862 -0.0405,-0.120862 -0.0359,-0.137926 -0.009,-0.06666 -0.0203,-0.06043 -0.0156,-0.0775 -0.009,-0.06665 -0.0156,-0.0775 -0.0156,-0.0775 -0.005,-0.08372 -0.0156,-0.0775 -0.005,-0.08372 -0.005,-0.08372 -0.0156,-0.0775 -0.011,-0.09456 -0.005,-0.08372 -1.8e-4,-0.100782 -0.005,-0.08372 -0.011,-0.09456 -1.8e-4,-0.100782 -1.8e-4,-0.100782 -1.8e-4,-0.100782 -0.011,-0.09456 0.0106,-0.106998 -0.006,-0.111622 c 0.002,-2.206262 0.54289,-3.323541 1.58479,-3.316108 1.03568,-0.0034 1.56484,1.1197 1.5626,3.32596 l 0,0 0,0 0,0 c -0.007,1.142677 -0.12827,1.961521 -0.38935,2.486034 -0.25486,0.535354 -0.65902,0.810505 -1.19081,0.813011 -0.5318,0.0025 -0.95091,-0.275819 -1.1891,-0.816491 z" />
    </g>
    <g
       transform="translate(326.49661,76.784163)"
       id="g4176">
      <path
         inkscape:connector-curvature="0"
         id="path26-9"
         style="font-style:normal;font-variant:normal;font-weight:normal;font-stretch:normal;letter-spacing:normal;word-spacing:normal;text-anchor:start;fill:#000000;fill-opacity:1;fill-rule:nonzero;stroke:#000000;stroke-width:0;stroke-linecap:butt;stroke-linejoin:miter;stroke-miterlimit:10.43299961;stroke-dasharray:none;stroke-dashoffset:0;stroke-opacity:1"
         d="m -258.93009,-22.949705 0.003,0.156585 -0.003,0.145744 0.003,0.156585 0.008,0.139527 0.008,0.139522 0.0142,0.150364 0.008,0.139526 0.0188,0.133305 0.0188,0.133306 0.0126,0.122459 0.0188,0.133305 0.0297,0.127083 0.0126,0.122464 0.0297,0.127084 0.0235,0.116242 0.0343,0.11002 0.0235,0.116242 0.0343,0.110021 0.0343,0.11002 0.0343,0.11002 0.0452,0.1038 0.0451,0.103799 0.0389,0.09296 0.0452,0.1038 0.0389,0.09296 0.056,0.09758 0.0389,0.09296 0.0498,0.08674 0.11038,0.16725 0.12122,0.161028 c 0.631,0.848502 1.52165,1.245362 2.63643,1.254213 1.13645,-0.0036 2.03188,-0.402108 2.6614,-1.238919 0.63575,-0.825968 0.95759,-2.048282 0.96394,-3.694847 l 0,0 0,0 0,0 c -0.0107,-1.651185 -0.33389,-2.892497 -0.96488,-3.740997 -0.63562,-0.831444 -1.52166,-1.245368 -2.63643,-1.254219 -1.13645,0.0036 -2.00398,0.400508 -2.64434,1.24354 -0.64659,0.832189 -0.96683,2.082408 -0.97318,3.728972 z" />
      <path
         inkscape:connector-curvature="0"
         id="path32-2"
         style="font-style:normal;font-variant:normal;font-weight:normal;font-stretch:normal;letter-spacing:normal;word-spacing:normal;text-anchor:start;fill:#ffffff;fill-opacity:1;fill-rule:nonzero;stroke:#ffffff;stroke-width:0;stroke-linecap:butt;stroke-linejoin:miter;stroke-miterlimit:10.43299961;stroke-dasharray:none;stroke-dashoffset:0;stroke-opacity:1"
         d="m -256.51935,-20.456296 -0.0452,-0.103799 -0.0451,-0.103799 -0.0405,-0.120862 -0.0405,-0.120862 -0.0359,-0.137926 -0.009,-0.06666 -0.0203,-0.06043 -0.0156,-0.0775 -0.009,-0.06665 -0.0156,-0.0775 -0.0156,-0.0775 -0.005,-0.08372 -0.0156,-0.0775 -0.005,-0.08372 -0.005,-0.08372 -0.0156,-0.0775 -0.011,-0.09456 -0.005,-0.08372 -1.8e-4,-0.100782 -0.005,-0.08372 -0.011,-0.09456 -1.8e-4,-0.100782 -1.8e-4,-0.100782 -1.8e-4,-0.100782 -0.011,-0.09456 0.0106,-0.106998 -0.006,-0.111622 c 0.002,-2.206262 0.54289,-3.323541 1.58479,-3.316108 1.03568,-0.0034 1.56484,1.1197 1.5626,3.32596 l 0,0 0,0 0,0 c -0.007,1.142677 -0.12827,1.961521 -0.38935,2.486034 -0.25486,0.535354 -0.65902,0.810505 -1.19081,0.813011 -0.5318,0.0025 -0.95091,-0.275819 -1.1891,-0.816491 z" />
    </g>
  </g>
</svg>
