<?xml version="1.0" ?><!DOCTYPE svg  PUBLIC '-//W3C//DTD SVG 1.1//EN'  'http://www.w3.org/Graphics/SVG/1.1/DTD/svg11.dtd'><svg enable-background="new 0 0 64 64" height="64px" id="Layer_1" version="1.1" viewBox="0 0 64 64" width="64px" xml:space="preserve" xmlns="http://www.w3.org/2000/svg" xmlns:xlink="http://www.w3.org/1999/xlink"><path d="M46.1,17.348c-0.025-0.019-0.045-0.037-0.08-0.057c-1.043-0.598-1.004-1.7-1.004-1.7V7.102  c0-1.04,0.654-1.011,0.654-1.011l-0.008-0.019c0.586-0.073,0.771-0.482,0.812-0.807V1.529c0-1.265-0.951-1.469-1.4-1.495h-6.43  c-1.221,0-1.373,1.005-1.387,1.41v3.291c0,1.061,0.607,1.298,0.926,1.35v0.001h0.002c0.051,0.008,0.092,0.014,0.125,0.015  c0.18,0.043,0.498,0.226,0.498,1.001v8.846c-0.041,0.366-0.221,0.919-0.879,1.285c-0.039,0.021-0.051,0.041-0.084,0.062  c-3.098,1.507-5.242,4.667-5.242,8.343v0.124H13.99c-0.994,0-1.193,0.485-1.212,0.829c0.52,4.963,5.643,8.938,12.134,9.466v21.833  c-0.003,0.265-0.06,1.163-0.672,1.782l-3.281,3.297c-0.254,0.279-0.625,0.796,0.171,0.796h10.482c0.776,0,0.425-0.494,0.174-0.769  l-0.171-0.174l-0.002-0.003l-3.021-3.057l0,0c-0.655-0.663-0.771-1.426-0.788-1.771V36.059c1.717-0.136,3.331-0.52,4.801-1.092v2.7  v3.88v20.735c0.008,0.371,0.163,1.684,1.987,1.684h14.173c2.121,0,2.426-1.371,2.459-1.979V25.637  C51.223,22.008,49.133,18.878,46.1,17.348z M26.376,34.256c-4.209,0-7.673-2.404-8.151-5.499c-0.117-0.741,0.763-0.731,0.763-0.731  h14.81c0.185,0.004,0.746,0.067,0.751,0.629C34.133,31.799,30.63,34.256,26.376,34.256z M48.32,58.245  c0,1.796-1.279,2.125-1.986,2.172h-8.729c-1.826,0-2.103-1.404-2.136-2.048V33.472c2.423-1.65,4.077-3.941,4.466-6.528  c0.18-1.066-0.861-1.179-1.197-1.183h-3.216c0.269-3.303,3.001-5.905,6.372-5.905c3.549,0,6.426,2.876,6.426,6.426V58.245z" fill="#241F20"/></svg>