<?xml version="1.0" encoding="UTF-8" standalone="no"?>
<!-- Created with Inkscape (http://www.inkscape.org/) -->

<svg
   xmlns:dc="http://purl.org/dc/elements/1.1/"
   xmlns:cc="http://creativecommons.org/ns#"
   xmlns:rdf="http://www.w3.org/1999/02/22-rdf-syntax-ns#"
   xmlns:svg="http://www.w3.org/2000/svg"
   xmlns="http://www.w3.org/2000/svg"
   xmlns:sodipodi="http://sodipodi.sourceforge.net/DTD/sodipodi-0.dtd"
   xmlns:inkscape="http://www.inkscape.org/namespaces/inkscape"
   width="25.001204mm"
   height="25.00473mm"
   viewBox="0 0 88.586942 88.599437"
   id="svg8856"
   version="1.1"
   inkscape:version="0.91 r13725"
   sodipodi:docname="100.svg">
  <defs
     id="defs8858" />
  <sodipodi:namedview
     id="base"
     pagecolor="#ffffff"
     bordercolor="#666666"
     borderopacity="1.0"
     inkscape:pageopacity="0.0"
     inkscape:pageshadow="2"
     inkscape:zoom="0.35"
     inkscape:cx="-394.99224"
     inkscape:cy="-101.41457"
     inkscape:document-units="px"
     inkscape:current-layer="layer1"
     showgrid="false"
     fit-margin-top="0"
     fit-margin-left="0"
     fit-margin-right="0"
     fit-margin-bottom="0"
     inkscape:window-width="1920"
     inkscape:window-height="1017"
     inkscape:window-x="-8"
     inkscape:window-y="-8"
     inkscape:window-maximized="1" />
  <metadata
     id="metadata8861">
    <rdf:RDF>
      <cc:Work
         rdf:about="">
        <dc:format>image/svg+xml</dc:format>
        <dc:type
           rdf:resource="http://purl.org/dc/dcmitype/StillImage" />
        <dc:title></dc:title>
      </cc:Work>
    </rdf:RDF>
  </metadata>
  <g
     inkscape:label="Calque 1"
     inkscape:groupmode="layer"
     id="layer1"
     transform="translate(-327.1351,-342.3482)">
    <g
       transform="translate(195.77344,93.974789)"
       id="g4962">
      <path
         inkscape:connector-curvature="0"
         id="path58"
         style="font-style:normal;font-variant:normal;font-weight:normal;font-stretch:normal;letter-spacing:normal;word-spacing:normal;text-anchor:start;fill:#ff1721;fill-rule:nonzero;stroke:none;stroke-linecap:butt;stroke-linejoin:miter;stroke-miterlimit:10.43299961;stroke-dasharray:none;stroke-dashoffset:0;stroke-opacity:1"
         d="m 175.64888,248.37341 -2.27499,0.0625 -2.24998,0.1625 -2.21249,0.2875 -2.18748,0.3875 -2.13749,0.5 -2.09999,0.58749 -2.06248,0.7 -2.01249,0.79999 -1.96249,0.8875 -1.91249,0.97499 -1.84998,1.06249 -1.79999,1.15 -1.73749,1.23749 -1.67499,1.31249 -1.59999,1.39999 -1.53749,1.46249 -1.47499,1.53749 -1.38749,1.61249 -1.31249,1.67499 -1.2375,1.73749 -1.14999,1.78749 -1.07499,1.86249 -0.97499,1.91248 -0.8875,1.96249 -0.78749,2.01249 -0.7,2.04999 -0.6,2.09998 -0.48749,2.14999 -0.3875,2.17498 -0.2875,2.22499 -0.175,2.24999 -0.05,2.27498 c 0,24.47484 19.82488,44.29972 44.28722,44.29972 24.47484,0 44.29972,-19.82488 44.29972,-44.29972 0,-24.46234 -19.82488,-44.29972 -44.29972,-44.29972 z" />
      <path
         inkscape:connector-curvature="0"
         id="path60"
         style="font-style:normal;font-variant:normal;font-weight:normal;font-stretch:normal;letter-spacing:normal;word-spacing:normal;text-anchor:start;fill:#ffffff;fill-rule:nonzero;stroke:none;stroke-linecap:butt;stroke-linejoin:miter;stroke-miterlimit:10.43299961;stroke-dasharray:none;stroke-dashoffset:0;stroke-opacity:1"
         d="m 175.64888,263.14832 -1.51249,0.0375 -1.49999,0.1125 -1.47499,0.1875 -1.46249,0.2625 -1.42499,0.32499 -1.39999,0.4 -1.375,0.4625 -1.33749,0.525 -1.31249,0.59999 -1.27499,0.65 -1.23749,0.71249 -1.18749,0.7625 -1.1625,0.82499 -1.11249,0.875 -1.07499,0.93749 -1.025,0.97499 -0.97499,1.025 -0.92499,1.07499 -0.8875,1.11249 -0.82499,1.1625 -0.7625,1.18749 -0.71249,1.23749 -0.65,1.27499 -0.5875,1.31249 -0.53749,1.3375 -0.4625,1.37499 -0.4,1.39999 -0.325,1.42499 -0.26249,1.46249 -0.1875,1.47499 -0.1125,1.49999 -0.0375,1.52499 c 0,16.2999 13.22491,29.52481 29.52481,29.52481 16.3124,0 29.53731,-13.22491 29.53731,-29.52481 0,-16.31239 -13.22491,-29.53731 -29.53731,-29.53731 z" />
      <path
         inkscape:connector-curvature="0"
         id="path86"
         style="font-style:normal;font-variant:normal;font-weight:normal;font-stretch:normal;letter-spacing:normal;word-spacing:normal;text-anchor:start;fill:#000000;fill-rule:nonzero;stroke:none;stroke-linecap:butt;stroke-linejoin:miter;stroke-miterlimit:10.43299961;stroke-dasharray:none;stroke-dashoffset:0;stroke-opacity:1"
         d="m 162.88646,277.18573 0.1125,29.86231 -4.34997,0 -0.1125,-22.44986 0,0 c -0.075,0.0625 -0.1875,0.175 -0.2625,0.225 -0.2125,0.2125 -0.45,0.4 -0.68749,0.5875 -0.3,0.225 -0.7,0.47499 -1.0125,0.68749 -0.2625,0.1625 -0.62499,0.4 -0.91249,0.525 -0.1,0.05 -0.25,0.1125 -0.3625,0.1625 l 0,0 -2.18749,-3.64998 0,0 c 0.1125,-0.05 0.2375,-0.1375 0.35,-0.2 0.5625,-0.29999 1.13749,-0.67499 1.64999,-1.04999 0.625,-0.475 1.21249,-1.03749 1.69999,-1.64999 0.5,-0.63749 0.92499,-1.34999 1.27499,-2.06249 0.1375,-0.29999 0.3125,-0.68749 0.45,-0.98749 l 0,0 4.34997,0 z" />
      <path
         inkscape:connector-curvature="0"
         id="path90"
         style="font-style:normal;font-variant:normal;font-weight:normal;font-stretch:normal;letter-spacing:normal;word-spacing:normal;text-anchor:start;fill:#000000;fill-rule:nonzero;stroke:none;stroke-linecap:butt;stroke-linejoin:miter;stroke-miterlimit:10.43299961;stroke-dasharray:none;stroke-dashoffset:0;stroke-opacity:1"
         d="m 172.7364,276.86073 0.125,0 0.1125,0 0.125,0.0125 0.125,0 0.11249,0.0125 0.125,0.025 0.125,0.0125 0.1125,0.025 0.125,0.0125 0.125,0.025 0.1125,0.0375 0.125,0.025 0.1125,0.025 0.1125,0.0375 0.1125,0.025 0.125,0.0375 c 1.32499,0.4 2.46248,1.33749 3.29997,2.44998 0.7375,0.9625 1.275,2.12499 1.64999,3.26248 0.3625,1.1125 0.625,2.26249 0.7875,3.41248 0.1875,1.18749 0.275,2.41249 0.3125,3.61248 0.05,1.37499 0.0375,2.76248 -0.0625,4.14997 -0.0875,1.28749 -0.25,2.57499 -0.475,3.84998 -0.2625,1.44999 -0.65,2.93748 -1.18749,4.31247 -0.4875,1.23749 -1.19999,2.58748 -2.18749,3.47498 -1.08749,1.01249 -2.51248,1.59999 -3.99997,1.64999 -1.39999,0.0625 -2.78748,-0.375 -3.89998,-1.24999 -1.18749,-0.9375 -2.02498,-2.49999 -2.53748,-3.92498 -0.5125,-1.36249 -0.85,-2.81248 -1.08749,-4.23747 -0.2,-1.24999 -0.325,-2.59999 -0.4125,-3.86248 -0.1,-1.24999 -0.15,-2.63748 -0.1,-3.88747 0.05,-1.28749 0.225,-2.61249 0.45,-3.87498 0.1875,-1.09999 0.43749,-2.27498 0.77499,-3.36248 0.375,-1.14999 0.8875,-2.33748 1.62499,-3.29998 0.8625,-1.16249 2.04999,-2.12498 3.43748,-2.51248 0.55,-0.15 1.14999,-0.275 1.69999,-0.275 z" />
      <path
         inkscape:connector-curvature="0"
         id="path88"
         style="font-style:normal;font-variant:normal;font-weight:normal;font-stretch:normal;letter-spacing:normal;word-spacing:normal;text-anchor:start;fill:#ffffff;fill-rule:nonzero;stroke:none;stroke-linecap:butt;stroke-linejoin:miter;stroke-miterlimit:10.43299961;stroke-dasharray:none;stroke-dashoffset:0;stroke-opacity:1"
         d="m 172.7739,281.2482 0.0625,0 0.0625,0 0.0625,0 0.0625,0.0125 0.0625,0 0.0625,0.0125 0.0625,0.0125 0.0625,0.0125 0.0625,0.0125 0.0625,0.025 0.0625,0.0125 0.05,0.025 0.0625,0.025 0.0625,0.025 0.0625,0.025 0.05,0.025 c 0.2875,0.15 0.525,0.425 0.7,0.7 0.3,0.45 0.51249,1.09999 0.64999,1.62499 0.225,0.89999 0.4,1.81249 0.55,2.72498 0.1375,0.93749 0.2375,1.89999 0.3,2.86248 0.075,0.975 0.1,1.94999 0.1,2.93748 0,1.1 -0.05,2.21249 -0.15,3.31248 -0.1,1.1125 -0.25,2.26249 -0.5,3.34998 -0.1625,0.75 -0.3875,1.51249 -0.67499,2.23749 -0.15,0.36249 -0.3375,0.74999 -0.575,1.07499 -0.1625,0.2125 -0.3625,0.425 -0.5875,0.5875 -0.2375,0.16249 -0.53749,0.24999 -0.82499,0.26249 -0.35,0.025 -0.7,-0.0625 -0.9875,-0.26249 -0.21249,-0.1375 -0.39999,-0.375 -0.53749,-0.575 -0.225,-0.3375 -0.425,-0.7 -0.575,-1.07499 -0.3,-0.7125 -0.5,-1.49999 -0.62499,-2.26249 -0.2,-1.04999 -0.3375,-2.32498 -0.4125,-3.38748 -0.0875,-1.04999 -0.1625,-2.27498 -0.1625,-3.31248 0,-0.97499 0.0625,-1.96248 0.1625,-2.93748 0.1,-0.96249 0.2375,-1.91249 0.4,-2.87498 0.14999,-0.84999 0.33749,-1.77499 0.57499,-2.61248 0.1625,-0.5625 0.375,-1.21249 0.7,-1.68749 0.1875,-0.2625 0.42499,-0.525 0.71249,-0.6875 0.2375,-0.125 0.5125,-0.2125 0.7875,-0.225 z" />
      <path
         inkscape:connector-curvature="0"
         id="path94"
         style="font-style:normal;font-variant:normal;font-weight:normal;font-stretch:normal;letter-spacing:normal;word-spacing:normal;text-anchor:start;fill:#000000;fill-rule:nonzero;stroke:none;stroke-linecap:butt;stroke-linejoin:miter;stroke-miterlimit:10.43299961;stroke-dasharray:none;stroke-dashoffset:0;stroke-opacity:1"
         d="m 190.33629,276.86073 0.11249,0 0.125,0 0.1125,0.0125 0.125,0 0.125,0.0125 0.1125,0.025 0.125,0.0125 0.125,0.025 0.1125,0.0125 0.125,0.025 0.1125,0.0375 0.125,0.025 0.1125,0.025 0.11249,0.0375 0.1125,0.025 0.125,0.0375 c 1.32499,0.4 2.46249,1.33749 3.29998,2.44998 0.7375,0.9625 1.26249,2.12499 1.64999,3.26248 0.3625,1.1125 0.625,2.26249 0.7875,3.41248 0.175,1.18749 0.27499,2.41249 0.31249,3.61248 0.05,1.37499 0.025,2.76248 -0.0625,4.14997 -0.0875,1.28749 -0.25,2.57499 -0.4875,3.84998 -0.2625,1.44999 -0.6375,2.93748 -1.17499,4.31247 -0.4875,1.23749 -1.2,2.58748 -2.17499,3.47498 -1.09999,1.01249 -2.52498,1.59999 -3.99997,1.64999 -1.4125,0.0625 -2.81249,-0.375 -3.91248,-1.24999 -1.18749,-0.9375 -2.02499,-2.49999 -2.53748,-3.92498 -0.5125,-1.36249 -0.85,-2.81248 -1.0875,-4.23747 -0.2,-1.24999 -0.32499,-2.59999 -0.42499,-3.86248 -0.0875,-1.24999 -0.1375,-2.63748 -0.0875,-3.88747 0.05,-1.28749 0.2125,-2.61249 0.43749,-3.87498 0.2,-1.09999 0.45,-2.27498 0.7875,-3.36248 0.375,-1.14999 0.88749,-2.33748 1.61249,-3.29998 0.87499,-1.16249 2.06249,-2.12498 3.44998,-2.51248 0.53749,-0.15 1.14999,-0.275 1.71249,-0.275 z" />
      <path
         inkscape:connector-curvature="0"
         id="path92"
         style="font-style:normal;font-variant:normal;font-weight:normal;font-stretch:normal;letter-spacing:normal;word-spacing:normal;text-anchor:start;fill:#ffffff;fill-rule:nonzero;stroke:none;stroke-linecap:butt;stroke-linejoin:miter;stroke-miterlimit:10.43299961;stroke-dasharray:none;stroke-dashoffset:0;stroke-opacity:1"
         d="m 190.36129,281.2482 0.0625,0 0.0625,0 0.0625,0 0.0625,0.0125 0.0625,0 0.0625,0.0125 0.0625,0.0125 0.0625,0.0125 0.0625,0.0125 0.0625,0.025 0.0625,0.0125 0.0625,0.025 0.0625,0.025 0.05,0.025 0.0625,0.025 0.0625,0.025 c 0.275,0.15 0.5125,0.425 0.69999,0.7 0.2875,0.45 0.5,1.09999 0.6375,1.62499 0.225,0.89999 0.4125,1.81249 0.55,2.72498 0.1375,0.93749 0.2375,1.89999 0.3,2.86248 0.075,0.975 0.11249,1.94999 0.11249,2.93748 0,1.1 -0.0625,2.21249 -0.16249,3.31248 -0.1,1.1125 -0.25,2.26249 -0.4875,3.34998 -0.175,0.75 -0.4,1.51249 -0.6875,2.23749 -0.15,0.36249 -0.33749,0.74999 -0.57499,1.07499 -0.1625,0.2125 -0.35,0.425 -0.5875,0.5875 -0.2375,0.16249 -0.525,0.24999 -0.82499,0.26249 -0.35,0.025 -0.7,-0.0625 -0.9875,-0.26249 -0.2125,-0.1375 -0.4,-0.375 -0.53749,-0.575 -0.225,-0.3375 -0.4125,-0.7 -0.575,-1.07499 -0.2875,-0.7125 -0.4875,-1.49999 -0.625,-2.26249 -0.2,-1.04999 -0.32499,-2.32498 -0.41249,-3.38748 -0.0875,-1.04999 -0.1625,-2.27498 -0.1625,-3.31248 0.0125,-0.97499 0.0625,-1.96248 0.1625,-2.93748 0.1,-0.96249 0.23749,-1.91249 0.39999,-2.87498 0.15,-0.84999 0.3375,-1.77499 0.575,-2.61248 0.1625,-0.5625 0.3875,-1.21249 0.71249,-1.68749 0.175,-0.2625 0.4125,-0.525 0.7,-0.6875 0.25,-0.125 0.5125,-0.2125 0.7875,-0.225 z" />
    </g>
  </g>
</svg>
