<?xml version="1.0" encoding="UTF-8" standalone="no"?>
<!-- Created with Inkscape (http://www.inkscape.org/) -->

<svg
   xmlns:dc="http://purl.org/dc/elements/1.1/"
   xmlns:cc="http://creativecommons.org/ns#"
   xmlns:rdf="http://www.w3.org/1999/02/22-rdf-syntax-ns#"
   xmlns:svg="http://www.w3.org/2000/svg"
   xmlns="http://www.w3.org/2000/svg"
   xmlns:sodipodi="http://sodipodi.sourceforge.net/DTD/sodipodi-0.dtd"
   xmlns:inkscape="http://www.inkscape.org/namespaces/inkscape"
   width="25.001204mm"
   height="25.004728mm"
   viewBox="0 0 88.586942 88.599431"
   id="svg9439"
   version="1.1"
   inkscape:version="0.91 r13725"
   sodipodi:docname="120.svg">
  <defs
     id="defs9441" />
  <sodipodi:namedview
     id="base"
     pagecolor="#ffffff"
     bordercolor="#666666"
     borderopacity="1.0"
     inkscape:pageopacity="0.0"
     inkscape:pageshadow="2"
     inkscape:zoom="0.35"
     inkscape:cx="-432.1351"
     inkscape:cy="90.014005"
     inkscape:document-units="px"
     inkscape:current-layer="layer1"
     showgrid="false"
     fit-margin-top="0"
     fit-margin-left="0"
     fit-margin-right="0"
     fit-margin-bottom="0"
     inkscape:window-width="1920"
     inkscape:window-height="1017"
     inkscape:window-x="-8"
     inkscape:window-y="-8"
     inkscape:window-maximized="1" />
  <metadata
     id="metadata9444">
    <rdf:RDF>
      <cc:Work
         rdf:about="">
        <dc:format>image/svg+xml</dc:format>
        <dc:type
           rdf:resource="http://purl.org/dc/dcmitype/StillImage" />
        <dc:title></dc:title>
      </cc:Work>
    </rdf:RDF>
  </metadata>
  <g
     inkscape:label="Calque 1"
     inkscape:groupmode="layer"
     id="layer1"
     transform="translate(-364.27796,-533.77678)">
    <g
       transform="translate(232.9163,161.36666)"
       id="g4954">
      <path
         inkscape:connector-curvature="0"
         id="path54"
         style="font-style:normal;font-variant:normal;font-weight:normal;font-stretch:normal;letter-spacing:normal;word-spacing:normal;text-anchor:start;fill:#ff1721;fill-rule:nonzero;stroke:none;stroke-linecap:butt;stroke-linejoin:miter;stroke-miterlimit:10.43299961;stroke-dasharray:none;stroke-dashoffset:0;stroke-opacity:1"
         d="m 175.64888,372.41012 -2.27499,0.0625 -2.24998,0.1625 -2.21249,0.2875 -2.18748,0.3875 -2.13749,0.49999 -2.09999,0.5875 -2.06248,0.69999 -2.01249,0.8 -1.96249,0.88749 -1.89999,0.975 -1.86248,1.06249 -1.79999,1.14999 -1.72499,1.23749 -1.67499,1.3125 -1.61249,1.39999 -1.53749,1.46249 -1.46249,1.53749 -1.39999,1.61249 -1.31249,1.67499 -1.2375,1.73749 -1.14999,1.78748 -1.06249,1.86249 -0.97499,1.91249 -0.8875,1.96249 -0.79999,1.99999 -0.7,2.06248 -0.5875,2.09999 -0.49999,2.14998 -0.3875,2.17499 -0.2875,2.22499 -0.1625,2.24998 -0.0625,2.27499 c 0,24.46234 19.83738,44.29971 44.28722,44.29971 24.46234,0 44.29972,-19.83737 44.29972,-44.29971 0,-24.46235 -19.83738,-44.29972 -44.29972,-44.29972 z" />
      <path
         inkscape:connector-curvature="0"
         id="path56"
         style="font-style:normal;font-variant:normal;font-weight:normal;font-stretch:normal;letter-spacing:normal;word-spacing:normal;text-anchor:start;fill:#ffffff;fill-rule:nonzero;stroke:none;stroke-linecap:butt;stroke-linejoin:miter;stroke-miterlimit:10.43299961;stroke-dasharray:none;stroke-dashoffset:0;stroke-opacity:1"
         d="m 175.64888,387.17253 -1.51249,0.0375 -1.49999,0.1125 -1.47499,0.18749 -1.44999,0.2625 -1.43749,0.325 -1.39999,0.4 -1.375,0.4625 -1.33749,0.53749 -1.29999,0.5875 -1.27499,0.64999 -1.23749,0.7125 -1.19999,0.77499 -1.1625,0.825 -1.11249,0.87499 -1.07499,0.925 -1.025,0.97499 -0.97499,1.02499 -0.92499,1.075 -0.875,1.11249 -0.82499,1.16249 -0.775,1.2 -0.69999,1.23749 -0.6625,1.27499 -0.5875,1.29999 -0.52499,1.34999 -0.4625,1.36249 -0.4,1.39999 -0.3375,1.4375 -0.24999,1.44999 -0.1875,1.47499 -0.125,1.49999 -0.0375,1.52499 c 0,16.29989 13.22491,29.52481 29.52481,29.52481 16.3124,0 29.53731,-13.22492 29.53731,-29.52481 0,-16.3124 -13.22491,-29.53731 -29.53731,-29.53731 z" />
      <path
         inkscape:connector-curvature="0"
         id="path78"
         style="font-style:normal;font-variant:normal;font-weight:normal;font-stretch:normal;letter-spacing:normal;word-spacing:normal;text-anchor:start;fill:#000000;fill-rule:nonzero;stroke:none;stroke-linecap:butt;stroke-linejoin:miter;stroke-miterlimit:10.43299961;stroke-dasharray:none;stroke-dashoffset:0;stroke-opacity:1"
         d="m 162.47396,401.20994 0.1,29.86231 -4.34997,0 -0.1125,-22.44986 0,0 c -0.075,0.0625 -0.1875,0.175 -0.25,0.225 -0.225,0.2125 -0.46249,0.4125 -0.69999,0.58749 -0.2875,0.225 -0.6875,0.4875 -1,0.6875 -0.26249,0.175 -0.63749,0.4 -0.91249,0.525 -0.1125,0.05 -0.2625,0.1125 -0.375,0.1625 l 0,0 -2.17498,-3.64998 0,0 c 0.1,-0.0625 0.23749,-0.1375 0.34999,-0.2 0.55,-0.3 1.1375,-0.675 1.63749,-1.04999 0.6375,-0.475 1.2125,-1.0375 1.69999,-1.64999 0.5125,-0.6375 0.9375,-1.33749 1.27499,-2.07499 0.1375,-0.2875 0.3125,-0.6875 0.45,-0.97499 l 0,0 4.36247,0 z" />
      <path
         inkscape:connector-curvature="0"
         id="path82"
         style="font-style:normal;font-variant:normal;font-weight:normal;font-stretch:normal;letter-spacing:normal;word-spacing:normal;text-anchor:start;fill:#000000;fill-rule:nonzero;stroke:none;stroke-linecap:butt;stroke-linejoin:miter;stroke-miterlimit:10.43299961;stroke-dasharray:none;stroke-dashoffset:0;stroke-opacity:1"
         d="m 190.63628,400.88494 0.125,0 0.1125,0 0.125,0.0125 0.1125,0.0125 0.125,0.0125 0.125,0.0125 0.1125,0.0125 0.125,0.025 0.1125,0.025 0.125,0.025 0.1125,0.025 0.12499,0.025 0.1125,0.025 0.125,0.0375 0.1125,0.025 0.1125,0.0375 c 1.32499,0.39999 2.47499,1.33749 3.29998,2.44998 0.7375,0.96249 1.27499,2.11249 1.64999,3.26248 0.375,1.11249 0.625,2.26249 0.79999,3.41248 0.175,1.17499 0.2625,2.41248 0.3125,3.61248 0.0375,1.37499 0.025,2.76248 -0.0625,4.14997 -0.0875,1.28749 -0.25,2.57498 -0.48749,3.84997 -0.275,1.44999 -0.65,2.93749 -1.1875,4.29998 -0.48749,1.24999 -1.19999,2.58748 -2.17498,3.48747 -1.1,1.0125 -2.51249,1.59999 -3.99998,1.64999 -1.41249,0.05 -2.79998,-0.37499 -3.89997,-1.24999 -1.19999,-0.93749 -2.02499,-2.49998 -2.54999,-3.92497 -0.49999,-1.36249 -0.84999,-2.81249 -1.08749,-4.24998 -0.2,-1.24999 -0.325,-2.58748 -0.4125,-3.84997 -0.0875,-1.23749 -0.14999,-2.64998 -0.1,-3.89998 0.0625,-1.27499 0.225,-2.59998 0.45,-3.86247 0.1875,-1.11249 0.45,-2.28749 0.7875,-3.36248 0.36249,-1.14999 0.87499,-2.33749 1.61249,-3.29998 0.86249,-1.16249 2.04998,-2.12499 3.44997,-2.51248 0.5375,-0.15 1.1375,-0.275 1.69999,-0.275 z" />
      <path
         inkscape:connector-curvature="0"
         id="path80"
         style="font-style:normal;font-variant:normal;font-weight:normal;font-stretch:normal;letter-spacing:normal;word-spacing:normal;text-anchor:start;fill:#ffffff;fill-rule:nonzero;stroke:none;stroke-linecap:butt;stroke-linejoin:miter;stroke-miterlimit:10.43299961;stroke-dasharray:none;stroke-dashoffset:0;stroke-opacity:1"
         d="m 190.66128,405.27241 0.0625,0 0.0625,0 0.0625,0 0.0625,0.0125 0.0625,0 0.075,0.0125 0.0625,0.0125 0.05,0.0125 0.0625,0.0125 0.0625,0.025 0.0625,0.0125 0.0625,0.025 0.0625,0.025 0.05,0.025 0.0625,0.025 0.05,0.025 c 0.2875,0.15 0.53749,0.425 0.71249,0.69999 0.2875,0.45 0.5,1.1125 0.6375,1.62499 0.225,0.9 0.4125,1.79999 0.55,2.72499 0.14999,0.93749 0.23749,1.89998 0.31249,2.84998 0.0625,0.98749 0.1,1.96249 0.0875,2.93748 0,1.11249 -0.05,2.22499 -0.15,3.32498 -0.1,1.11249 -0.24999,2.26248 -0.48749,3.34998 -0.175,0.74999 -0.3875,1.51249 -0.6875,2.23748 -0.15,0.3625 -0.3375,0.75 -0.575,1.075 -0.16249,0.22499 -0.34999,0.42499 -0.57499,0.57499 -0.25,0.1625 -0.5375,0.2625 -0.8375,0.275 -0.34999,0.025 -0.69999,-0.0625 -0.98749,-0.2625 -0.2125,-0.1375 -0.3875,-0.3625 -0.5375,-0.58749 -0.225,-0.325 -0.41249,-0.7 -0.56249,-1.075 -0.3,-0.69999 -0.5,-1.48749 -0.625,-2.24998 -0.2,-1.05 -0.3375,-2.32499 -0.425,-3.38748 -0.0875,-1.04999 -0.1625,-2.27499 -0.1625,-3.32498 0,-0.96249 0.0625,-1.94999 0.1625,-2.92498 0.1,-0.96249 0.2375,-1.92499 0.4,-2.87498 0.15,-0.8625 0.35,-1.77499 0.575,-2.62499 0.1625,-0.54999 0.3875,-1.19999 0.69999,-1.67499 0.1875,-0.26249 0.425,-0.53749 0.7125,-0.68749 0.25,-0.1125 0.5125,-0.2125 0.78749,-0.225 z" />
      <path
         inkscape:connector-curvature="0"
         id="path84"
         style="font-style:normal;font-variant:normal;font-weight:normal;font-stretch:normal;letter-spacing:normal;word-spacing:normal;text-anchor:start;fill:#000000;fill-rule:nonzero;stroke:none;stroke-linecap:butt;stroke-linejoin:miter;stroke-miterlimit:10.43299961;stroke-dasharray:none;stroke-dashoffset:0;stroke-opacity:1"
         d="m 181.06134,427.09727 0,3.97498 -15.5249,0 -0.0125,-2.62499 0,0 c 0,-0.68749 0.2375,-1.71249 0.425,-2.36248 0.1875,-0.725 0.475,-1.47499 0.775,-2.14999 0.57499,-1.24999 1.27499,-2.46248 2.03748,-3.61248 0.5875,-0.87499 1.37499,-1.93748 2.02499,-2.77498 0.125,-0.1625 0.5875,-0.78749 0.7,-0.93749 l 0,0 3.91247,-4.99997 0,0 c 0.25,-0.325 0.8625,-1.11249 1.03749,-1.47499 0.25,-0.4875 0.3875,-1.01249 0.4,-1.54999 0,-0.7875 -0.275,-1.53749 -0.76249,-2.13749 -0.675,-0.83749 -1.68749,-1.34999 -2.76249,-1.33749 -0.87499,0.0125 -1.69998,0.3875 -2.31248,0.975 -0.525,0.51249 -0.875,1.14999 -0.99999,1.86248 -0.05,0.2875 -0.05,0.7375 -0.05,1.0375 l 0,0 0,0.98749 -4.39998,0.0125 0,0 c -0.0125,-0.2375 -0.025,-0.575 -0.025,-0.79999 0,-0.3125 0.0125,-0.6125 0.0375,-0.9125 0.025,-0.275 0.05,-0.54999 0.1,-0.81249 0.025,-0.2125 0.075,-0.4375 0.1125,-0.65 0.375,-1.66249 1.38749,-3.12498 2.74999,-4.17497 1.34999,-1.05 3.01248,-1.64999 4.73746,-1.66249 1.81249,-0.0125 3.57498,0.61249 4.98747,1.74999 1.225,0.98749 2.12499,2.32498 2.57499,3.84997 0.2125,0.6875 0.31249,1.41249 0.31249,2.13749 0.0125,0.83749 -0.11249,1.66249 -0.34999,2.46248 -0.15,0.4625 -0.3375,0.9125 -0.575,1.32499 -0.2125,0.3875 -0.475,0.7625 -0.76249,1.1 l 0,0 -5.79997,7.46245 0,0 c -0.1875,0.225 -0.43749,0.55 -0.61249,0.77499 -0.3,0.4 -0.6375,0.8625 -0.9125,1.275 -0.3625,0.59999 -0.71249,1.26249 -0.99999,1.91248 -0.2,0.425 -0.4125,0.975 -0.5125,1.425 -0.025,0.18749 -0.0625,0.47499 -0.0875,0.64999 l 0,0 10.53743,0 z" />
    </g>
  </g>
</svg>
