<?xml version="1.0" encoding="UTF-8" standalone="no"?>
<!-- Created with Inkscape (http://www.inkscape.org/) -->

<svg
   xmlns:dc="http://purl.org/dc/elements/1.1/"
   xmlns:cc="http://creativecommons.org/ns#"
   xmlns:rdf="http://www.w3.org/1999/02/22-rdf-syntax-ns#"
   xmlns:svg="http://www.w3.org/2000/svg"
   xmlns="http://www.w3.org/2000/svg"
   xmlns:sodipodi="http://sodipodi.sourceforge.net/DTD/sodipodi-0.dtd"
   xmlns:inkscape="http://www.inkscape.org/namespaces/inkscape"
   width="25.001204mm"
   height="25.004728mm"
   viewBox="0 0 88.586942 88.599431"
   id="svg9439"
   version="1.1"
   inkscape:version="0.91 r13725"
   sodipodi:docname="130.svg">
  <defs
     id="defs9441" />
  <sodipodi:namedview
     id="base"
     pagecolor="#ffffff"
     bordercolor="#666666"
     borderopacity="1.0"
     inkscape:pageopacity="0.0"
     inkscape:pageshadow="2"
     inkscape:zoom="3.959798"
     inkscape:cx="-32.053963"
     inkscape:cy="26.093712"
     inkscape:document-units="px"
     inkscape:current-layer="layer1"
     showgrid="false"
     fit-margin-top="0"
     fit-margin-left="0"
     fit-margin-right="0"
     fit-margin-bottom="0"
     inkscape:window-width="1920"
     inkscape:window-height="1017"
     inkscape:window-x="-8"
     inkscape:window-y="-8"
     inkscape:window-maximized="1" />
  <metadata
     id="metadata9444">
    <rdf:RDF>
      <cc:Work
         rdf:about="">
        <dc:format>image/svg+xml</dc:format>
        <dc:type
           rdf:resource="http://purl.org/dc/dcmitype/StillImage" />
        <dc:title />
      </cc:Work>
    </rdf:RDF>
  </metadata>
  <g
     inkscape:label="Calque 1"
     inkscape:groupmode="layer"
     id="layer1"
     transform="translate(-364.27796,-533.77678)">
    <g
       id="g4139">
      <path
         inkscape:connector-curvature="0"
         id="path54"
         style="font-style:normal;font-variant:normal;font-weight:normal;font-stretch:normal;letter-spacing:normal;word-spacing:normal;text-anchor:start;fill:#ff1721;fill-rule:nonzero;stroke:none;stroke-linecap:butt;stroke-linejoin:miter;stroke-miterlimit:10.43299961;stroke-dasharray:none;stroke-dashoffset:0;stroke-opacity:1"
         d="m 408.56518,533.77678 -2.27499,0.0625 -2.24998,0.1625 -2.21249,0.2875 -2.18748,0.3875 -2.13749,0.49999 -2.09999,0.5875 -2.06248,0.69999 -2.01249,0.8 -1.96249,0.88749 -1.89999,0.975 -1.86248,1.06249 -1.79999,1.14999 -1.72499,1.23749 -1.67499,1.3125 -1.61249,1.39999 -1.53749,1.46249 -1.46249,1.53749 -1.39999,1.61249 -1.31249,1.67499 -1.2375,1.73749 -1.14999,1.78748 -1.06249,1.86249 -0.97499,1.91249 -0.8875,1.96249 -0.79999,1.99999 -0.7,2.06248 -0.5875,2.09999 -0.49999,2.14998 -0.3875,2.17499 -0.2875,2.22499 -0.1625,2.24998 -0.0625,2.27499 c 0,24.46234 19.83738,44.29971 44.28722,44.29971 24.46234,0 44.29972,-19.83737 44.29972,-44.29971 0,-24.46235 -19.83738,-44.29972 -44.29972,-44.29972 z" />
      <path
         inkscape:connector-curvature="0"
         id="path56"
         style="font-style:normal;font-variant:normal;font-weight:normal;font-stretch:normal;letter-spacing:normal;word-spacing:normal;text-anchor:start;fill:#ffffff;fill-rule:nonzero;stroke:none;stroke-linecap:butt;stroke-linejoin:miter;stroke-miterlimit:10.43299961;stroke-dasharray:none;stroke-dashoffset:0;stroke-opacity:1"
         d="m 408.56518,548.53919 -1.51249,0.0375 -1.49999,0.1125 -1.47499,0.18749 -1.44999,0.2625 -1.43749,0.325 -1.39999,0.4 -1.375,0.4625 -1.33749,0.53749 -1.29999,0.5875 -1.27499,0.64999 -1.23749,0.7125 -1.19999,0.77499 -1.1625,0.825 -1.11249,0.87499 -1.07499,0.925 -1.025,0.97499 -0.97499,1.02499 -0.92499,1.075 -0.875,1.11249 -0.82499,1.16249 -0.775,1.2 -0.69999,1.23749 -0.6625,1.27499 -0.5875,1.29999 -0.52499,1.34999 -0.4625,1.36249 -0.4,1.39999 -0.3375,1.4375 -0.24999,1.44999 -0.1875,1.47499 -0.125,1.49999 -0.0375,1.52499 c 0,16.29989 13.22491,29.52481 29.52481,29.52481 16.3124,0 29.53731,-13.22492 29.53731,-29.52481 0,-16.3124 -13.22491,-29.53731 -29.53731,-29.53731 z" />
      <path
         inkscape:connector-curvature="0"
         id="path78"
         style="font-style:normal;font-variant:normal;font-weight:normal;font-stretch:normal;letter-spacing:normal;word-spacing:normal;text-anchor:start;fill:#000000;fill-rule:nonzero;stroke:none;stroke-linecap:butt;stroke-linejoin:miter;stroke-miterlimit:10.43299961;stroke-dasharray:none;stroke-dashoffset:0;stroke-opacity:1"
         d="m 395.39026,562.5766 0.1,29.86231 -4.34997,0 -0.1125,-22.44986 0,0 c -0.075,0.0625 -0.1875,0.175 -0.25,0.225 -0.225,0.2125 -0.46249,0.4125 -0.69999,0.58749 -0.2875,0.225 -0.6875,0.4875 -1,0.6875 -0.26249,0.175 -0.63749,0.4 -0.91249,0.525 -0.1125,0.05 -0.2625,0.1125 -0.375,0.1625 l 0,0 -2.17498,-3.64998 0,0 c 0.1,-0.0625 0.23749,-0.1375 0.34999,-0.2 0.55,-0.3 1.1375,-0.675 1.63749,-1.04999 0.6375,-0.475 1.2125,-1.0375 1.69999,-1.64999 0.5125,-0.6375 0.9375,-1.33749 1.27499,-2.07499 0.1375,-0.2875 0.3125,-0.6875 0.45,-0.97499 l 0,0 4.36247,0 z" />
      <path
         inkscape:connector-curvature="0"
         id="path82"
         style="font-style:normal;font-variant:normal;font-weight:normal;font-stretch:normal;letter-spacing:normal;word-spacing:normal;text-anchor:start;fill:#000000;fill-rule:nonzero;stroke:none;stroke-linecap:butt;stroke-linejoin:miter;stroke-miterlimit:10.43299961;stroke-dasharray:none;stroke-dashoffset:0;stroke-opacity:1"
         d="m 423.55258,562.2516 0.125,0 0.1125,0 0.125,0.0125 0.1125,0.0125 0.125,0.0125 0.125,0.0125 0.1125,0.0125 0.125,0.025 0.1125,0.025 0.125,0.025 0.1125,0.025 0.12499,0.025 0.1125,0.025 0.125,0.0375 0.1125,0.025 0.1125,0.0375 c 1.32499,0.39999 2.47499,1.33749 3.29998,2.44998 0.7375,0.96249 1.27499,2.11249 1.64999,3.26248 0.375,1.11249 0.625,2.26249 0.79999,3.41248 0.175,1.17499 0.2625,2.41248 0.3125,3.61248 0.0375,1.37499 0.025,2.76248 -0.0625,4.14997 -0.0875,1.28749 -0.25,2.57498 -0.48749,3.84997 -0.275,1.44999 -0.65,2.93749 -1.1875,4.29998 -0.48749,1.24999 -1.19999,2.58748 -2.17498,3.48747 -1.1,1.0125 -2.51249,1.59999 -3.99998,1.64999 -1.41249,0.05 -2.79998,-0.37499 -3.89997,-1.24999 -1.19999,-0.93749 -2.02499,-2.49998 -2.54999,-3.92497 -0.49999,-1.36249 -0.84999,-2.81249 -1.08749,-4.24998 -0.2,-1.24999 -0.325,-2.58748 -0.4125,-3.84997 -0.0875,-1.23749 -0.14999,-2.64998 -0.1,-3.89998 0.0625,-1.27499 0.225,-2.59998 0.45,-3.86247 0.1875,-1.11249 0.45,-2.28749 0.7875,-3.36248 0.36249,-1.14999 0.87499,-2.33749 1.61249,-3.29998 0.86249,-1.16249 2.04998,-2.12499 3.44997,-2.51248 0.5375,-0.15 1.1375,-0.275 1.69999,-0.275 z" />
      <path
         inkscape:connector-curvature="0"
         id="path80"
         style="font-style:normal;font-variant:normal;font-weight:normal;font-stretch:normal;letter-spacing:normal;word-spacing:normal;text-anchor:start;fill:#ffffff;fill-rule:nonzero;stroke:none;stroke-linecap:butt;stroke-linejoin:miter;stroke-miterlimit:10.43299961;stroke-dasharray:none;stroke-dashoffset:0;stroke-opacity:1"
         d="m 423.57758,566.63907 0.0625,0 0.0625,0 0.0625,0 0.0625,0.0125 0.0625,0 0.075,0.0125 0.0625,0.0125 0.05,0.0125 0.0625,0.0125 0.0625,0.025 0.0625,0.0125 0.0625,0.025 0.0625,0.025 0.05,0.025 0.0625,0.025 0.05,0.025 c 0.2875,0.15 0.53749,0.425 0.71249,0.69999 0.2875,0.45 0.5,1.1125 0.6375,1.62499 0.225,0.9 0.4125,1.79999 0.55,2.72499 0.14999,0.93749 0.23749,1.89998 0.31249,2.84998 0.0625,0.98749 0.1,1.96249 0.0875,2.93748 0,1.11249 -0.05,2.22499 -0.15,3.32498 -0.1,1.11249 -0.24999,2.26248 -0.48749,3.34998 -0.175,0.74999 -0.3875,1.51249 -0.6875,2.23748 -0.15,0.3625 -0.3375,0.75 -0.575,1.075 -0.16249,0.22499 -0.34999,0.42499 -0.57499,0.57499 -0.25,0.1625 -0.5375,0.2625 -0.8375,0.275 -0.34999,0.025 -0.69999,-0.0625 -0.98749,-0.2625 -0.2125,-0.1375 -0.3875,-0.3625 -0.5375,-0.58749 -0.225,-0.325 -0.41249,-0.7 -0.56249,-1.075 -0.3,-0.69999 -0.5,-1.48749 -0.625,-2.24998 -0.2,-1.05 -0.3375,-2.32499 -0.425,-3.38748 -0.0875,-1.04999 -0.1625,-2.27499 -0.1625,-3.32498 0,-0.96249 0.0625,-1.94999 0.1625,-2.92498 0.1,-0.96249 0.2375,-1.92499 0.4,-2.87498 0.15,-0.8625 0.35,-1.77499 0.575,-2.62499 0.1625,-0.54999 0.3875,-1.19999 0.69999,-1.67499 0.1875,-0.26249 0.425,-0.53749 0.7125,-0.68749 0.25,-0.1125 0.5125,-0.2125 0.78749,-0.225 z" />
      <path
         inkscape:connector-curvature="0"
         id="path34"
         style="font-style:normal;font-variant:normal;font-weight:normal;font-stretch:normal;letter-spacing:normal;word-spacing:normal;text-anchor:start;fill:#000000;fill-opacity:1;fill-rule:nonzero;stroke:#000000;stroke-width:0;stroke-linecap:butt;stroke-linejoin:miter;stroke-miterlimit:10.43299961;stroke-dasharray:none;stroke-dashoffset:0;stroke-opacity:1"
         d="m 402.9497,568.66229 -3.07906,-2.90629 0,0 c 0.0777,-0.15377 0.18661,-0.38443 0.26436,-0.52282 0.60649,-1.0764 1.67949,-1.82988 2.8147,-2.30657 0.99525,-0.41518 2.08379,-0.61508 3.17236,-0.58433 1.30626,0.0307 2.58143,0.39981 3.70108,1.07639 1.1352,0.69198 2.05271,1.70686 2.62809,2.90629 0.46651,0.96875 0.69977,2.04516 0.68422,3.12155 -0.0156,1.23017 -0.32656,2.44497 -0.94859,3.52136 -0.24881,0.39981 -0.52873,0.78424 -0.83974,1.13792 -0.29547,0.30754 -0.60648,0.58433 -0.9486,0.84573 -0.34212,0.23066 -0.85529,0.52283 -1.22852,0.72273 0.37323,0.15378 0.8864,0.39981 1.22852,0.61509 0.32657,0.21528 0.63758,0.47669 0.91749,0.75348 0.37322,0.35367 0.69979,0.79961 0.99526,1.23017 0.52872,0.76885 0.99524,1.6146 1.30626,2.47571 0.29547,0.90726 0.43543,1.84526 0.43543,2.79865 -0.0156,1.12252 -0.21772,2.21431 -0.63759,3.25995 -0.35767,0.90725 -0.87084,1.75299 -1.50842,2.4911 -0.80865,0.95337 -1.80389,1.70686 -2.92356,2.24506 -1.1663,0.55357 -2.42591,0.84574 -3.71663,0.89187 -1.05745,0.0308 -2.11491,-0.12302 -3.1257,-0.43057 -1.08855,-0.35366 -2.36373,-1.07639 -3.34342,-1.6761 -0.0777,-0.0615 -0.27991,-0.18453 -0.35767,-0.24604 l 0,0 2.03715,-3.72126 1.69504,1.09178 0,0 c 0.35767,0.1999 0.71534,0.39981 1.1041,0.56896 0.27991,0.10764 0.55983,0.18451 0.87085,0.23064 0.54428,0.0769 1.1041,0.0461 1.63283,-0.0615 0.9797,-0.21527 1.86609,-0.70735 2.56588,-1.4147 0.74643,-0.73809 1.25961,-1.70686 1.36847,-2.7525 0.0933,-0.96876 -0.18662,-1.95289 -0.68424,-2.79864 -0.54427,-0.938 -1.32182,-1.73762 -2.28596,-2.24507 -0.41987,-0.23065 -0.93305,-0.43056 -1.39958,-0.58433 -0.51316,-0.16914 -1.08855,-0.33829 -1.63283,-0.41517 -0.10885,-0.0308 -0.27991,-0.0615 -0.38877,-0.0769 l 0,0 0,-4.49013 0,0 c 0.12441,0 0.29547,-0.0308 0.43542,-0.0308 0.55984,-0.0461 1.10412,-0.1384 1.63284,-0.26141 0.62203,-0.1384 1.32182,-0.36906 1.83499,-0.75348 0.48207,-0.32292 0.87085,-0.79961 1.13521,-1.30706 0.31102,-0.5997 0.49763,-1.26092 0.45098,-1.9529 -0.0467,-0.70734 -0.32657,-1.41469 -0.87085,-1.89138 -0.38877,-0.32293 -0.9175,-0.52283 -1.43067,-0.5997 -0.68424,-0.10764 -1.41513,-0.0461 -2.03715,0.27677 -0.51318,0.29217 -0.93306,0.76887 -1.24407,1.27631 -0.0933,0.1384 -0.20215,0.35368 -0.27991,0.49206 z" />
    </g>
  </g>
</svg>
