<?xml version="1.0" encoding="UTF-8" standalone="no"?>
<!-- Created with Inkscape (http://www.inkscape.org/) -->

<svg
   xmlns:xhtml="http://www.w3.org/1999/xhtml"
   xmlns:dc="http://purl.org/dc/elements/1.1/"
   xmlns:cc="http://creativecommons.org/ns#"
   xmlns:rdf="http://www.w3.org/1999/02/22-rdf-syntax-ns#"
   xmlns:svg="http://www.w3.org/2000/svg"
   xmlns="http://www.w3.org/2000/svg"
   xmlns:sodipodi="http://sodipodi.sourceforge.net/DTD/sodipodi-0.dtd"
   xmlns:inkscape="http://www.inkscape.org/namespaces/inkscape"
   version="1.0"
   width="303.54807"
   height="409.16937"
   id="svg1933"
   inkscape:version="0.91 r13725"
   sodipodi:docname="1989-.svg">
  <metadata
     id="metadata69">
    <rdf:RDF>
      <cc:Work
         rdf:about="">
        <dc:format>image/svg+xml</dc:format>
        <dc:type
           rdf:resource="http://purl.org/dc/dcmitype/StillImage" />
        <dc:title></dc:title>
      </cc:Work>
    </rdf:RDF>
  </metadata>
  <sodipodi:namedview
     pagecolor="#ffffff"
     bordercolor="#666666"
     borderopacity="1"
     objecttolerance="10"
     gridtolerance="10"
     guidetolerance="10"
     inkscape:pageopacity="0"
     inkscape:pageshadow="2"
     inkscape:window-width="1920"
     inkscape:window-height="1017"
     id="namedview67"
     showgrid="false"
     fit-margin-top="0.3"
     fit-margin-right="0.3"
     fit-margin-bottom="0.3"
     fit-margin-left="0.3"
     inkscape:zoom="0.8606788"
     inkscape:cx="507.39733"
     inkscape:cy="309.63333"
     inkscape:window-x="-8"
     inkscape:window-y="-8"
     inkscape:window-maximized="1"
     inkscape:current-layer="layer1" />
  <defs
     id="defs1935" />
  <g
     transform="translate(-1085.3688,-137.28893)"
     id="layer1">
    <polygon
       id="polygon16"
       style="font-style:normal;font-variant:normal;font-weight:normal;font-stretch:normal;letter-spacing:normal;word-spacing:normal;text-anchor:start;fill:#0070ff;fill-rule:nonzero;stroke:none;stroke-width:0;stroke-linecap:butt;stroke-linejoin:miter;stroke-miterlimit:10.43299961;stroke-dasharray:none;stroke-dashoffset:0;stroke-opacity:1"
       points="175.34,183.17 175.34,183.17 175.34,666.48 417.7,666.48 417.7,183.17 "
       transform="matrix(1.249992,0,0,-0.84535676,866.4952,701.0023)" />
    <polygon
       id="polygon24"
       style="font-style:normal;font-variant:normal;font-weight:normal;font-stretch:normal;letter-spacing:normal;word-spacing:normal;text-anchor:start;fill:#ffffff;fill-rule:nonzero;stroke:none;stroke-linecap:butt;stroke-linejoin:miter;stroke-miterlimit:10.43299961;stroke-dasharray:none;stroke-dashoffset:0;stroke-opacity:1"
       points="193.76,208.62 399.28,208.62 399.28,300.76 193.76,300.76 193.76,300.76 "
       transform="matrix(1.249992,0,0,-1.249992,866.4952,785.08018)" />
    <polygon
       id="polygon20"
       style="font-style:normal;font-variant:normal;font-weight:normal;font-stretch:normal;letter-spacing:normal;word-spacing:normal;text-anchor:start;fill:#ffffff;fill-rule:nonzero;stroke:none;stroke-linecap:butt;stroke-linejoin:miter;stroke-miterlimit:10.43299961;stroke-dasharray:none;stroke-dashoffset:0;stroke-opacity:1"
       points="193.76,499.22 193.76,407.07 399.28,407.07 399.28,499.22 193.76,499.22 "
       transform="matrix(1.249992,0,0,-1.249992,866.4952,909.1043)" />
    <polygon
       id="polygon22"
       style="font-style:normal;font-variant:normal;font-weight:normal;font-stretch:normal;letter-spacing:normal;word-spacing:normal;text-anchor:start;fill:#ffffff;fill-rule:nonzero;stroke:none;stroke-linecap:butt;stroke-linejoin:miter;stroke-miterlimit:10.43299961;stroke-dasharray:none;stroke-dashoffset:0;stroke-opacity:1"
       points="193.76,598.45 193.76,506.3 399.28,506.3 399.28,598.45 193.76,598.45 "
       transform="matrix(1.249992,0,0,-1.249992,866.4952,909.1043)" />
    <path
       inkscape:connector-curvature="0"
       id="path12"
       style="font-style:normal;font-variant:normal;font-weight:normal;font-stretch:normal;letter-spacing:normal;word-spacing:normal;text-anchor:start;fill:#000000;fill-rule:nonzero;stroke:none;stroke-linecap:butt;stroke-linejoin:miter;stroke-miterlimit:10.43299961;stroke-dasharray:none;stroke-dashoffset:0;stroke-opacity:1"
       d="m 1133.3935,248.15853 92.6744,0 0,-30.8748 -8.0125,-4.89997 0,0 c -2.9249,2.13749 -5.7124,3.82497 -6.4374,4.44997 l 0,0 -0.075,15.8749 -1.9,0 -0.05,-1.83749 -7.2124,-7.09995 -7.75,6.92495 0.013,2.06249 -1.225,0.025 0,-4.21247 -7.6749,-3.27498 -0.125,-1.46249 -2.45,-2.84999 -2.55,2.78749 -0.05,1.52499 -6.7375,3.12498 0,9.33744 -2.2,0.1 -0.087,-3.03748 -5.9374,-45.69971 -8.4125,43.06222 0.2375,5.67497 -1.8999,0 0.013,-7.82495 -10.875,-7.26246 -11.2249,7.09996 -0.05,18.28738 z" />
    <path
       inkscape:connector-curvature="0"
       id="path14"
       style="font-style:normal;font-variant:normal;font-weight:normal;font-stretch:normal;letter-spacing:normal;word-spacing:normal;text-anchor:start;fill:#000000;fill-rule:nonzero;stroke:none;stroke-linecap:butt;stroke-linejoin:miter;stroke-miterlimit:10.43299961;stroke-dasharray:none;stroke-dashoffset:0;stroke-opacity:1"
       d="m 1133.4935,365.42028 92.4744,0 0,-30.8123 -7.9999,-4.88747 0,0 c -2.9125,2.13748 -5.7,3.81247 -6.4125,4.44997 l 0,0 -0.087,15.8249 -1.8875,0 -0.05,-1.82499 -7.1874,-7.09995 -7.75,6.92495 0.013,2.04999 -1.2125,0.0375 0,-4.21248 -7.6749,-3.26247 -0.1125,-1.4625 -2.4375,-2.83748 -2.5625,2.76249 -0.05,1.53749 -6.7125,3.11248 0,9.31244 -2.2,0.1125 -0.088,-3.03749 -5.9249,-45.5997 -8.3875,42.96222 0.2375,5.67497 -1.9,0 0.013,-7.81245 -10.8624,-7.23746 -11.1874,7.07496 -0.05,18.24988 z" />
    <path
       inkscape:connector-curvature="0"
       id="path28"
       style="font-style:normal;font-variant:normal;font-weight:normal;font-stretch:normal;letter-spacing:normal;word-spacing:normal;text-anchor:start;fill:#ff1721;fill-rule:nonzero;stroke:none;stroke-linecap:butt;stroke-linejoin:miter;stroke-miterlimit:10.43299961;stroke-dasharray:none;stroke-dashoffset:0;stroke-opacity:1"
       d="m 1321.2923,176.20899 -1.0375,-0.2875 -1.0375,-0.275 -1.0375,-0.23749 -1.0375,-0.225 -1.0375,-0.1875 -1.025,-0.175 -1.0375,-0.1375 -1.0375,-0.125 -1.025,-0.0875 -1.0249,-0.075 -1.0375,-0.0375 -1.025,-0.025 -1.025,0 -1.0125,0.0375 -1.025,0.05 -1.025,0.075 -1.0125,0.1125 -1.0125,0.125 -1.0125,0.15 -1.0125,0.1875 -1,0.2 -1,0.225 -1,0.24999 -1,0.2875 -0.9999,0.3 -0.9875,0.325 -0.9875,0.35 -0.9875,0.37499 -0.975,0.4 -0.975,0.425 -0.975,0.44999 -0.9625,0.475 c -10.3124,5.18747 -17.6749,13.44992 -21.6499,24.28735 -3.9749,10.83743 -3.7124,21.89986 0.8,32.52479 4.5125,10.62493 12.2625,18.49988 22.8124,23.18735 24.5623,10.87493 53.0746,-2.46248 60.4746,-28.27482 6.6875,-23.38735 -6.725,-47.78719 -30.0498,-54.64965 z" />
    <path
       inkscape:connector-curvature="0"
       id="path30"
       style="font-style:normal;font-variant:normal;font-weight:normal;font-stretch:normal;letter-spacing:normal;word-spacing:normal;text-anchor:start;fill:#ffffff;fill-rule:nonzero;stroke:none;stroke-linecap:butt;stroke-linejoin:miter;stroke-miterlimit:10.43299961;stroke-dasharray:none;stroke-dashoffset:0;stroke-opacity:1"
       d="m 1317.1048,190.3964 1.4375,0.4625 1.4,0.52499 1.35,0.6 1.3125,0.65 1.275,0.71249 1.225,0.775 1.175,0.82499 1.1375,0.875 1.0749,0.93749 1.0375,0.97499 0.9875,1.025 0.925,1.06249 0.875,1.11249 0.825,1.1375 0.7625,1.18749 0.7125,1.22499 0.65,1.24999 0.5875,1.27499 0.525,1.3125 0.4625,1.32499 0.4125,1.36249 0.3375,1.37499 0.2625,1.39999 0.2125,1.41249 0.1375,1.42499 0.062,1.43749 0,1.44999 -0.088,1.44999 -0.15,1.46249 -0.225,1.4625 -0.3,1.46249 -0.375,1.46249 c -4.9375,17.21239 -23.9374,26.11233 -40.2998,18.84988 -7.0374,-3.11248 -12.1999,-8.36245 -15.2124,-15.44991 -2.9999,-7.08745 -3.1749,-14.4624 -0.525,-21.67486 2.65,-7.22495 7.55,-12.73741 14.4125,-16.18739 6.8749,-3.46248 14.2249,-4.12498 21.5998,-1.94999 z" />
    <path
       inkscape:connector-curvature="0"
       id="path96"
       style="font-style:normal;font-variant:normal;font-weight:normal;font-stretch:normal;letter-spacing:normal;word-spacing:normal;text-anchor:start;fill:#000000;fill-rule:nonzero;stroke:none;stroke-linecap:butt;stroke-linejoin:miter;stroke-miterlimit:10.43299961;stroke-dasharray:none;stroke-dashoffset:0;stroke-opacity:1"
       d="m 1318.4173,203.53382 -0.1,0 -0.1125,0.0125 -0.1,0 -0.1125,0.0125 -0.1125,0.0125 -0.1,0.0125 -0.1125,0.0125 -0.1,0.025 -0.1125,0.0125 -0.1,0.025 -0.1125,0.025 -0.1,0.025 -0.1125,0.025 -0.1,0.025 -0.1,0.025 -0.1,0.025 c -1.3875,0.3875 -2.5625,1.3375 -3.425,2.48749 -0.7125,0.96249 -1.2375,2.14998 -1.5874,3.28748 -0.35,1.07499 -0.6,2.22498 -0.8,3.33748 -0.2,1.24999 -0.375,2.56248 -0.425,3.83747 -0.062,1.23749 0,2.62498 0.087,3.86248 0.088,1.24999 0.225,2.58748 0.425,3.82497 0.225,1.42499 0.5625,2.86248 1.0624,4.21247 0.525,1.4125 1.35,2.97499 2.525,3.89998 1.1,0.86249 2.475,1.28749 3.8625,1.23749 1.4875,-0.05 2.8875,-0.63749 3.975,-1.63749 0.975,-0.88749 1.675,-2.22498 2.1625,-3.44998 0.5375,-1.37499 0.9125,-2.83748 1.175,-4.28747 0.2375,-1.26249 0.3875,-2.53748 0.475,-3.81247 0.1,-1.37499 0.1125,-2.74999 0.062,-4.12498 -0.037,-1.18749 -0.125,-2.39998 -0.3,-3.57497 -0.175,-1.15 -0.425,-2.28749 -0.7875,-3.37498 -0.375,-1.15 -0.9125,-2.29999 -1.6375,-3.26248 -0.8375,-1.08749 -1.9625,-2.02499 -3.2875,-2.42499 -0.6,-0.175 -1.25,-0.31249 -1.875,-0.31249 z" />
    <path
       inkscape:connector-curvature="0"
       id="path100"
       style="font-style:normal;font-variant:normal;font-weight:normal;font-stretch:normal;letter-spacing:normal;word-spacing:normal;text-anchor:start;fill:#ffffff;fill-opacity:1;fill-rule:nonzero;stroke:none;stroke-linecap:butt;stroke-linejoin:miter;stroke-miterlimit:10.43299961;stroke-dasharray:none;stroke-dashoffset:0;stroke-opacity:1"
       d="m 1318.4548,207.89629 0.062,0 0.062,0 0.062,0 0.062,0 0.062,0.0125 0.062,0.0125 0.062,0.0125 0.062,0.0125 0.05,0.0125 0.062,0.0125 0.062,0.025 0.062,0.0125 0.05,0.025 0.062,0.025 0.062,0.025 0.05,0.0375 c 0.2875,0.15 0.525,0.42499 0.7,0.68749 0.2875,0.45 0.5,1.09999 0.6375,1.61249 0.225,0.8875 0.4,1.79999 0.5375,2.69998 0.15,0.9375 0.25,1.88749 0.3125,2.83749 0.062,0.97499 0.1,1.94998 0.1,2.92498 -0.013,1.08749 -0.062,2.18748 -0.15,3.28748 -0.1,1.09999 -0.2625,2.24998 -0.4875,3.32498 -0.175,0.74999 -0.3875,1.49999 -0.6875,2.21248 -0.15,0.3625 -0.3375,0.75 -0.5625,1.07499 -0.1625,0.2125 -0.35,0.425 -0.575,0.575 -0.25,0.15 -0.5375,0.25 -0.825,0.2625 -0.35,0.025 -0.7,-0.05 -0.9875,-0.25 -0.2,-0.1375 -0.3875,-0.375 -0.5375,-0.575 -0.2125,-0.33749 -0.4,-0.71249 -0.55,-1.08749 -0.3,-0.68749 -0.5,-1.48749 -0.6375,-2.22498 -0.2,-1.0375 -0.325,-2.31249 -0.4,-3.36248 -0.087,-1.05 -0.1625,-2.24999 -0.1625,-3.29998 0,-0.9625 0.062,-1.93749 0.1625,-2.89998 0.088,-0.95 0.225,-1.89999 0.4,-2.84999 0.15,-0.86249 0.3375,-1.76248 0.5625,-2.59998 0.15,-0.55 0.3875,-1.21249 0.7,-1.67499 0.1875,-0.2625 0.4125,-0.52499 0.7125,-0.67499 0.225,-0.125 0.5,-0.2125 0.775,-0.225 z" />
    <polygon
       id="polygon32"
       style="font-style:normal;font-variant:normal;font-weight:normal;font-stretch:normal;letter-spacing:normal;word-spacing:normal;text-anchor:start;fill:#ffffff;fill-rule:nonzero;stroke:none;stroke-linecap:butt;stroke-linejoin:miter;stroke-miterlimit:10.43299961;stroke-dasharray:none;stroke-dashoffset:0;stroke-opacity:1"
       points="336.86,577.6 334.98,576.22 333.86,577.73 336.69,579.81 335.88,580.9 331.86,577.93 336.7,571.38 336.7,571.38 340.72,574.35 339.91,575.44 337.09,573.35 335.78,575.12 337.67,576.52 "
       transform="matrix(1.249992,0,0,-1.249992,866.4952,909.1043)" />
    <polygon
       id="polygon34"
       style="font-style:normal;font-variant:normal;font-weight:normal;font-stretch:normal;letter-spacing:normal;word-spacing:normal;text-anchor:start;fill:#ffffff;fill-rule:nonzero;stroke:none;stroke-linecap:butt;stroke-linejoin:miter;stroke-miterlimit:10.43299961;stroke-dasharray:none;stroke-dashoffset:0;stroke-opacity:1"
       points="342.09,575.14 343.35,575.62 341.43,580.61 345.64,576.51 347.29,577.14 344.37,584.74 343.11,584.26 345.07,579.15 340.78,583.36 339.16,582.74 342.09,575.14 "
       transform="matrix(1.249992,0,0,-1.249992,866.4952,909.1043)" />
    <polygon
       id="polygon36"
       style="font-style:normal;font-variant:normal;font-weight:normal;font-stretch:normal;letter-spacing:normal;word-spacing:normal;text-anchor:start;fill:#ffffff;fill-rule:nonzero;stroke:none;stroke-linecap:butt;stroke-linejoin:miter;stroke-miterlimit:10.43299961;stroke-dasharray:none;stroke-dashoffset:0;stroke-opacity:1"
       points="368.11,579.23 365.99,580.23 366.8,581.93 369.97,580.42 370.55,581.65 366.04,583.8 362.54,576.44 362.54,576.44 367.05,574.29 367.63,575.52 364.47,577.02 365.41,579.02 367.53,578.01 "
       transform="matrix(1.249992,0,0,-1.249992,866.4952,909.1043)" />
    <path
       inkscape:connector-curvature="0"
       id="path38"
       style="font-style:normal;font-variant:normal;font-weight:normal;font-stretch:normal;letter-spacing:normal;word-spacing:normal;text-anchor:start;fill:#ffffff;fill-rule:nonzero;stroke:none;stroke-linecap:butt;stroke-linejoin:miter;stroke-miterlimit:10.43299961;stroke-dasharray:none;stroke-dashoffset:0;stroke-opacity:1"
       d="m 1281.005,192.52139 2.2125,1.72499 0,0 c 0.15,0.11249 0.2875,0.24999 0.4125,0.37499 0.375,0.4 0.65,0.85 0.825,1.36249 0.175,0.5875 0.2125,1.1875 0.088,1.76249 -0.1125,0.525 -0.35,1 -0.675,1.39999 -0.3375,0.45 -0.775,0.8125 -1.275,1.0625 -0.4875,0.225 -1.0125,0.33749 -1.55,0.32499 -0.5499,-0.0125 -1.1249,-0.14999 -1.6124,-0.43749 -0.175,-0.1 -0.35,-0.225 -0.5125,-0.35 l 0,0 -2.7875,-2.17499 0,0 c -0.2,-0.1625 -0.3875,-0.36249 -0.5625,-0.56249 -0.325,-0.375 -0.55,-0.8375 -0.675,-1.32499 -0.125,-0.5 -0.15,-1.025 -0.062,-1.53749 0.1125,-0.575 0.3625,-1.0875 0.725,-1.54999 0.325,-0.4 0.725,-0.75 1.1875,-0.975 0.4375,-0.2125 0.925,-0.325 1.4125,-0.3375 0.4125,0 0.8375,0.0625 1.225,0.225 0.087,0.025 0.175,0.0625 0.25,0.1 l 0,0 -1.1375,1.46249 0,0 c -0.062,-0.0125 -0.1375,-0.025 -0.1875,-0.025 -0.275,-0.05 -0.5625,0.0125 -0.8125,0.125 -0.2625,0.1125 -0.475,0.3125 -0.65,0.5375 -0.225,0.3 -0.3625,0.66249 -0.375,1.02499 0,0.3125 0.088,0.625 0.275,0.875 0.1,0.125 0.2125,0.23749 0.3375,0.32499 l 0,0 3.175,2.48749 0,0 c 0.1375,0.1 0.3,0.2125 0.4624,0.2625 0.2875,0.1125 0.625,0.1 0.925,0 0.3625,-0.1 0.675,-0.3 0.9125,-0.6 0.2125,-0.275 0.3375,-0.625 0.3375,-0.97499 0,-0.3125 -0.1,-0.625 -0.275,-0.875 -0.1,-0.1375 -0.225,-0.2625 -0.3625,-0.3625 l 0,0 -1.0625,-0.84999 -0.9624,1.24999 -1.35,-1.03749 2.1249,-2.71248 z" />
    <polygon
       id="polygon40"
       style="font-style:normal;font-variant:normal;font-weight:normal;font-stretch:normal;letter-spacing:normal;word-spacing:normal;text-anchor:start;fill:#ffffff;fill-rule:nonzero;stroke:none;stroke-linecap:butt;stroke-linejoin:miter;stroke-miterlimit:10.43299961;stroke-dasharray:none;stroke-dashoffset:0;stroke-opacity:1"
       points="374.79,569.16 380.2,573.25 380.2,573.25 379.3,574.44 372.8,569.54 375.61,565.82 376.69,566.64 "
       transform="matrix(1.249992,0,0,-1.249992,866.4952,909.1043)" />
    <path
       inkscape:connector-curvature="0"
       id="path42"
       style="font-style:normal;font-variant:normal;font-weight:normal;font-stretch:normal;letter-spacing:normal;word-spacing:normal;text-anchor:start;fill:#ffffff;fill-rule:nonzero;stroke:#ff1721;stroke-width:0;stroke-linecap:butt;stroke-linejoin:miter;stroke-miterlimit:10.43299961;stroke-dasharray:none;stroke-dashoffset:0;stroke-opacity:1"
       d="m 1310.9299,186.67142 1.8249,-10.01243 4.3375,0.78749 0,0 c 0.15,0.025 0.3375,0.1 0.4875,0.1625 0.45,0.1875 0.8375,0.4875 1.125,0.8875 0.3125,0.43749 0.475,0.94999 0.475,1.48749 0,0.1875 -0.012,0.37499 -0.05,0.57499 l 0,0 -0.062,0.3875 0,0 c -0.037,0.175 -0.087,0.3625 -0.1375,0.5375 -0.15,0.37499 -0.3625,0.71249 -0.65,0.97499 -0.3875,0.375 -0.875,0.6125 -1.4,0.7 -0.062,0.0125 -0.1625,0.0375 -0.225,0.0375 l 0,0 1.425,4.77497 -2.0375,-0.375 -1.4,-4.76247 -1.0875,-0.2 -0.7875,4.37497 -1.8374,-0.3375 z" />
    <polygon
       id="polygon44"
       style="font-style:normal;font-variant:normal;font-weight:normal;font-stretch:normal;letter-spacing:normal;word-spacing:normal;text-anchor:start;fill:#ffffff;fill-rule:nonzero;stroke:none;stroke-linecap:butt;stroke-linejoin:miter;stroke-miterlimit:10.43299961;stroke-dasharray:none;stroke-dashoffset:0;stroke-opacity:1"
       points="370.38,573.52 374.72,578.73 374.72,578.73 373.57,579.69 368.36,573.43 371.93,570.45 372.8,571.49 "
       transform="matrix(1.249992,0,0,-1.249992,866.4952,909.1043)" />
    <polygon
       id="polygon46"
       style="font-style:normal;font-variant:normal;font-weight:normal;font-stretch:normal;letter-spacing:normal;word-spacing:normal;text-anchor:start;fill:#ffffff;fill-rule:nonzero;stroke:none;stroke-linecap:butt;stroke-linejoin:miter;stroke-miterlimit:10.43299961;stroke-dasharray:none;stroke-dashoffset:0;stroke-opacity:1"
       points="352.36,582.75 350.02,582.53 349.85,584.4 353.34,584.72 353.21,586.07 348.19,585.57 348.99,577.5 348.99,577.5 353.97,577.96 353.84,579.32 350.36,579 350.14,581.18 352.48,581.4 "
       transform="matrix(1.249992,0,0,-1.249992,866.4952,909.1043)" />
    <path
       inkscape:connector-curvature="0"
       id="path48"
       style="font-style:normal;font-variant:normal;font-weight:normal;font-stretch:normal;letter-spacing:normal;word-spacing:normal;text-anchor:start;fill:#ff1721;fill-opacity:1;fill-rule:nonzero;stroke:none;stroke-linecap:butt;stroke-linejoin:miter;stroke-miterlimit:10.43299961;stroke-dasharray:none;stroke-dashoffset:0;stroke-opacity:1"
       d="m 1313.8673,180.95896 2.25,0.4125 0,0 c 0.1,0.025 0.2125,0.025 0.3125,0.0125 0.15,0 0.2875,-0.05 0.4,-0.125 0.1375,-0.1 0.225,-0.2125 0.3,-0.3625 0.038,-0.1 0.075,-0.2 0.1,-0.2875 l 0,0 0.075,-0.3875 0,0 c 0.013,-0.0875 0.025,-0.19999 0.025,-0.28749 -0.013,-0.1375 -0.05,-0.2875 -0.125,-0.4125 -0.088,-0.15 -0.225,-0.2625 -0.375,-0.35 -0.075,-0.0375 -0.175,-0.0875 -0.25,-0.0875 l 0,0 -2.3,-0.425 -0.4125,2.29999 z" />
    <path
       inkscape:connector-curvature="0"
       id="path50"
       style="font-style:normal;font-variant:normal;font-weight:normal;font-stretch:normal;letter-spacing:normal;word-spacing:normal;text-anchor:start;fill:#ff1721;fill-rule:nonzero;stroke:none;stroke-linecap:butt;stroke-linejoin:miter;stroke-miterlimit:10.43299961;stroke-dasharray:none;stroke-dashoffset:0;stroke-opacity:1"
       d="m 1308.7549,298.37071 -2.275,0.0625 -2.25,0.175 -2.2125,0.275 -2.1875,0.38749 -2.1375,0.5 -2.1124,0.6 -2.05,0.68749 -2.0125,0.8 -1.9625,0.88749 -1.9125,0.97499 -1.85,1.0625 -1.8,1.16249 -1.7375,1.22499 -1.675,1.32499 -1.5999,1.3875 -1.5375,1.46249 -1.475,1.53749 -1.3875,1.61249 -1.3125,1.67498 -1.2375,1.73749 -1.15,1.79999 -1.0625,1.84999 -0.9875,1.91249 -0.8875,1.96249 -0.7875,2.01248 -0.7,2.04999 -0.6,2.11249 -0.4875,2.13748 -0.3875,2.18749 -0.2874,2.21248 -0.1625,2.24999 -0.062,2.27499 c 0,24.46234 19.8248,44.29971 44.2872,44.29971 24.4623,0 44.2872,-19.83737 44.2872,-44.29971 0,-24.46235 -19.8249,-44.29972 -44.2872,-44.29972 z" />
    <path
       inkscape:connector-curvature="0"
       id="path52"
       style="font-style:normal;font-variant:normal;font-weight:normal;font-stretch:normal;letter-spacing:normal;word-spacing:normal;text-anchor:start;fill:#ffffff;fill-rule:nonzero;stroke:none;stroke-linecap:butt;stroke-linejoin:miter;stroke-miterlimit:10.43299961;stroke-dasharray:none;stroke-dashoffset:0;stroke-opacity:1"
       d="m 1308.7549,313.13311 -1.5125,0.0375 -1.5,0.125 -1.475,0.1875 -1.4625,0.25 -1.425,0.3375 -1.4,0.4 -1.375,0.46249 -1.3375,0.525 -1.3124,0.5875 -1.275,0.66249 -1.225,0.7 -1.2,0.77499 -1.1625,0.825 -1.1125,0.87499 -1.075,0.925 -1.025,0.97499 -0.975,1.03749 -0.925,1.0625 -0.8875,1.12499 -0.8125,1.14999 -0.775,1.19999 -0.7125,1.2375 -0.65,1.27499 -0.5875,1.31249 -0.5375,1.33749 -0.4624,1.37499 -0.4,1.39999 -0.325,1.42499 -0.2625,1.44999 -0.1875,1.48749 -0.1125,1.49999 -0.037,1.5125 c 0,16.29989 13.2249,29.53731 29.5248,29.53731 16.3124,0 29.5248,-13.23742 29.5248,-29.53731 0,-16.3124 -13.2124,-29.53732 -29.5248,-29.53732 z" />
    <path
       inkscape:connector-curvature="0"
       id="path54"
       style="font-style:normal;font-variant:normal;font-weight:normal;font-stretch:normal;letter-spacing:normal;word-spacing:normal;text-anchor:start;fill:#ff1721;fill-rule:nonzero;stroke:none;stroke-linecap:butt;stroke-linejoin:miter;stroke-miterlimit:10.43299961;stroke-dasharray:none;stroke-dashoffset:0;stroke-opacity:1"
       d="m 1308.7424,422.42 -2.275,0.0625 -2.25,0.1625 -2.2125,0.2875 -2.1875,0.3875 -2.1375,0.49999 -2.0999,0.5875 -2.0625,0.69999 -2.0125,0.8 -1.9625,0.88749 -1.9,0.975 -1.8625,1.06249 -1.8,1.14999 -1.725,1.23749 -1.675,1.3125 -1.6124,1.39999 -1.5375,1.46249 -1.4625,1.53749 -1.4,1.61249 -1.3125,1.67499 -1.2375,1.73749 -1.15,1.78748 -1.0625,1.86249 -0.975,1.91249 -0.8875,1.96249 -0.8,1.99999 -0.7,2.06248 -0.5875,2.09999 -0.5,2.14998 -0.3875,2.17499 -0.2874,2.22499 -0.1625,2.24998 -0.062,2.27499 c 0,24.46234 19.8373,44.29971 44.2872,44.29971 24.4623,0 44.2997,-19.83737 44.2997,-44.29971 0,-24.46235 -19.8374,-44.29972 -44.2997,-44.29972 z" />
    <path
       inkscape:connector-curvature="0"
       id="path56"
       style="font-style:normal;font-variant:normal;font-weight:normal;font-stretch:normal;letter-spacing:normal;word-spacing:normal;text-anchor:start;fill:#ffffff;fill-rule:nonzero;stroke:none;stroke-linecap:butt;stroke-linejoin:miter;stroke-miterlimit:10.43299961;stroke-dasharray:none;stroke-dashoffset:0;stroke-opacity:1"
       d="m 1308.7424,437.18241 -1.5125,0.0375 -1.5,0.1125 -1.475,0.18749 -1.45,0.2625 -1.4375,0.325 -1.4,0.4 -1.375,0.4625 -1.3375,0.53749 -1.2999,0.5875 -1.275,0.64999 -1.2375,0.7125 -1.2,0.77499 -1.1625,0.825 -1.1125,0.87499 -1.075,0.925 -1.025,0.97499 -0.975,1.02499 -0.925,1.075 -0.875,1.11249 -0.825,1.16249 -0.775,1.2 -0.7,1.23749 -0.6625,1.27499 -0.5875,1.29999 -0.525,1.34999 -0.4624,1.36249 -0.4,1.39999 -0.3375,1.4375 -0.25,1.44999 -0.1875,1.47499 -0.125,1.49999 -0.038,1.52499 c 0,16.29989 13.2249,29.52481 29.5248,29.52481 16.3124,0 29.5373,-13.22492 29.5373,-29.52481 0,-16.3124 -13.2249,-29.53731 -29.5373,-29.53731 z" />
    <polygon
       id="polygon62"
       style="font-style:normal;font-variant:normal;font-weight:normal;font-stretch:normal;letter-spacing:normal;word-spacing:normal;text-anchor:start;fill:#ff1721;fill-rule:nonzero;stroke:none;stroke-linecap:butt;stroke-linejoin:miter;stroke-miterlimit:10.43299961;stroke-dasharray:none;stroke-dashoffset:0;stroke-opacity:1"
       points="219.47,427.55 276.18,484.28 281.71,478.75 225,422.02 219.47,427.55 "
       transform="matrix(1.249992,0,0,-1.249992,866.4952,909.1043)" />
    <path
       inkscape:connector-curvature="0"
       id="path72"
       style="font-style:normal;font-variant:normal;font-weight:normal;font-stretch:normal;letter-spacing:normal;word-spacing:normal;text-anchor:start;fill:#000000;fill-rule:nonzero;stroke:none;stroke-linecap:butt;stroke-linejoin:miter;stroke-miterlimit:10.43299961;stroke-dasharray:none;stroke-dashoffset:0;stroke-opacity:1"
       d="m 1299.7549,326.89553 0.05,0.0125 0.05,0 0.1,0 0.1125,0 0.1125,0.0125 0.1125,0 0.125,0.0125 0.1125,0.0125 0.125,0 0.1125,0.0125 0.125,0.0125 0.1125,0.0125 0.1125,0.0125 0.1125,0.0125 0.1125,0.0125 0.05,0.0125 0.05,0 0.05,0.0125 0.05,0.0125 c 0.6125,0.12499 1.2,0.34999 1.7625,0.66249 1.175,0.675 2.1375,1.69999 2.7375,2.93748 0.5,1.0125 0.725,2.14999 0.75,3.27498 0.025,1.09999 -0.15,2.21249 -0.525,3.24998 -0.3125,0.88749 -0.7875,1.71249 -1.3625,2.46248 -0.075,0.1125 -0.2,0.2625 -0.2875,0.375 0.062,0.075 0.175,0.2 0.225,0.2875 0.85,1.14999 1.575,2.39998 2.05,3.74998 0.475,1.34999 0.725,2.77498 0.7875,4.21247 0.037,1.12499 -0.025,2.28748 -0.3125,3.36248 -0.3,1.12499 -0.825,2.17498 -1.5625,3.06248 -0.7125,0.83749 -1.6125,1.51249 -2.6125,1.97499 -1.05,0.51249 -2.2,0.79999 -3.375,0.81249 -1.1125,0 -2.225,-0.2375 -3.2375,-0.6875 -1.0499,-0.47499 -1.9749,-1.14999 -2.7124,-2.02498 -0.725,-0.8375 -1.2625,-1.82499 -1.5875,-2.89998 -0.35,-1.175 -0.425,-2.51249 -0.375,-3.74998 0.075,-1.44999 0.325,-2.93748 0.8375,-4.29997 0.45,-1.24999 1.1,-2.41249 1.9125,-3.46248 0.062,-0.0875 0.1625,-0.2125 0.225,-0.2875 -0.038,-0.075 -0.1375,-0.1875 -0.1875,-0.25 -0.675,-0.82499 -1.175,-1.79999 -1.5125,-2.82498 -0.325,-0.97499 -0.5,-1.99999 -0.4875,-3.02498 0,-1.19999 0.25,-2.41248 0.8125,-3.47498 0.7375,-1.37499 1.925,-2.43748 3.3624,-3.04998 0.5,-0.2125 1,-0.35 1.525,-0.43749 0.3875,-0.0625 0.9625,-0.0875 1.3625,-0.1125 z" />
    <path
       inkscape:connector-curvature="0"
       id="path68"
       style="font-style:normal;font-variant:normal;font-weight:normal;font-stretch:normal;letter-spacing:normal;word-spacing:normal;text-anchor:start;fill:#ffffff;fill-rule:nonzero;stroke:none;stroke-linecap:butt;stroke-linejoin:miter;stroke-miterlimit:10.43299961;stroke-dasharray:none;stroke-dashoffset:0;stroke-opacity:1"
       d="m 1299.7299,331.1205 0.062,0 0.062,0 0.062,0 0.062,0 0.062,0.0125 0.062,0.0125 0.062,0 0.062,0.0125 0.062,0.0125 0.062,0.025 0.062,0.0125 0.05,0.0125 0.062,0.025 0.062,0.0125 0.1125,0.05 0.1125,0.05 0.1125,0.05 0.1125,0.0625 0.1125,0.0625 0.1,0.075 0.1125,0.075 0.1,0.075 0.088,0.075 c 0.5375,0.475 0.8125,1.175 0.8625,1.87499 0.025,0.55 -0.1125,1.1625 -0.2875,1.68749 -0.15,0.4375 -0.325,0.85 -0.525,1.24999 -0.1625,0.325 -0.4,0.7125 -0.675,0.95 -0.325,0.275 -0.75,0.4125 -1.1875,0.4125 -0.4375,0 -0.85,-0.15 -1.1875,-0.4375 -0.225,-0.1875 -0.425,-0.5 -0.5875,-0.75 -0.2625,-0.44999 -0.5,-0.93749 -0.675,-1.43749 -0.175,-0.51249 -0.2875,-1.08749 -0.25,-1.62499 0.05,-0.67499 0.3,-1.34999 0.7875,-1.81249 0.5125,-0.49999 1.1875,-0.82499 1.9,-0.82499 z" />
    <path
       inkscape:connector-curvature="0"
       id="path70"
       style="font-style:normal;font-variant:normal;font-weight:normal;font-stretch:normal;letter-spacing:normal;word-spacing:normal;text-anchor:start;fill:#ffffff;fill-rule:nonzero;stroke:none;stroke-linecap:butt;stroke-linejoin:miter;stroke-miterlimit:10.43299961;stroke-dasharray:none;stroke-dashoffset:0;stroke-opacity:1"
       d="m 1299.7549,342.35793 0.075,0.0125 0.075,0.0125 0.075,0.0125 0.075,0.0125 0.075,0.0125 0.075,0.025 0.062,0.025 0.075,0.025 0.075,0.025 0.062,0.0375 0.075,0.025 0.062,0.0375 0.062,0.0375 0.075,0.0375 0.062,0.05 0.062,0.0375 c 0.225,0.1625 0.4375,0.4375 0.5875,0.6625 0.35,0.5 0.6375,1.03749 0.875,1.59999 0.3375,0.79999 0.6,1.63749 0.7375,2.49998 0.15,0.85 0.2,1.76249 0.025,2.58749 -0.15,0.72499 -0.45,1.43749 -0.9625,1.97498 -0.6125,0.65 -1.45,1.025 -2.35,1.0625 -0.9875,0.05 -1.9625,-0.3375 -2.65,-1.0625 -0.525,-0.53749 -0.8375,-1.23749 -0.9749,-1.97498 -0.1625,-0.8125 -0.088,-1.77499 0.062,-2.58749 0.1375,-0.84999 0.35,-1.69999 0.6375,-2.51248 0.2125,-0.5875 0.5125,-1.28749 0.925,-1.76249 0.2375,-0.2625 0.5125,-0.5125 0.8375,-0.66249 0.35,-0.15 0.7375,-0.2625 1.125,-0.25 z" />
    <path
       inkscape:connector-curvature="0"
       id="path76"
       style="font-style:normal;font-variant:normal;font-weight:normal;font-stretch:normal;letter-spacing:normal;word-spacing:normal;text-anchor:start;fill:#000000;fill-rule:nonzero;stroke:none;stroke-linecap:butt;stroke-linejoin:miter;stroke-miterlimit:10.43299961;stroke-dasharray:none;stroke-dashoffset:0;stroke-opacity:1"
       d="m 1318.1048,326.89553 0.1125,0.0125 0.125,0 0.1125,0 0.125,0.0125 0.125,0.0125 0.1125,0.025 0.125,0.0125 0.1125,0.025 0.125,0.0125 0.125,0.025 0.1125,0.025 0.125,0.025 0.1125,0.0375 0.1125,0.025 0.125,0.0375 0.1125,0.025 c 1.3375,0.4 2.475,1.35 3.3125,2.46249 0.7375,0.96249 1.275,2.12498 1.65,3.27498 0.375,1.11249 0.625,2.26248 0.8,3.41248 0.175,1.18749 0.2625,2.42498 0.3125,3.62497 0.037,1.38749 0.025,2.77498 -0.075,4.16248 -0.087,1.29999 -0.25,2.57498 -0.475,3.86247 -0.2625,1.46249 -0.65,2.93748 -1.1875,4.31247 -0.4875,1.25 -1.2,2.59999 -2.1875,3.49998 -1.1,1.01249 -2.5125,1.59999 -4.0125,1.64999 -1.4,0.05 -2.8,-0.375 -3.9125,-1.24999 -1.1875,-0.9375 -2.025,-2.51249 -2.5499,-3.93748 -0.5,-1.36249 -0.85,-2.81248 -1.075,-4.24997 -0.2125,-1.26249 -0.3375,-2.61248 -0.425,-3.87497 -0.088,-1.25 -0.15,-2.64999 -0.088,-3.89998 0.037,-1.28749 0.2125,-2.62498 0.4375,-3.88747 0.1875,-1.1 0.45,-2.28749 0.7875,-3.36248 0.3625,-1.15 0.8874,-2.34999 1.6124,-3.32498 0.8625,-1.14999 2.0625,-2.11249 3.4625,-2.51249 0.5375,-0.14999 1.1375,-0.27499 1.7125,-0.27499 z" />
    <path
       inkscape:connector-curvature="0"
       id="path74"
       style="font-style:normal;font-variant:normal;font-weight:normal;font-stretch:normal;letter-spacing:normal;word-spacing:normal;text-anchor:start;fill:#ffffff;fill-rule:nonzero;stroke:none;stroke-linecap:butt;stroke-linejoin:miter;stroke-miterlimit:10.43299961;stroke-dasharray:none;stroke-dashoffset:0;stroke-opacity:1"
       d="m 1318.1298,331.2955 0.062,0 0.062,0 0.062,0 0.062,0 0.062,0.0125 0.062,0.0125 0.062,0.0125 0.062,0.0125 0.062,0.0125 0.062,0.0125 0.062,0.025 0.062,0.025 0.062,0.0125 0.05,0.025 0.062,0.0375 0.05,0.025 c 0.3,0.15 0.5375,0.42499 0.7125,0.69999 0.3,0.4625 0.5,1.1 0.6375,1.62499 0.2375,0.9 0.4125,1.82499 0.55,2.73748 0.15,0.9375 0.25,1.89999 0.3125,2.86249 0.062,0.97499 0.1125,1.96248 0.1,2.94998 -0.013,1.09999 -0.062,2.21248 -0.15,3.32498 -0.1,1.11249 -0.2625,2.27498 -0.5,3.36247 -0.1625,0.75 -0.3875,1.51249 -0.675,2.23749 -0.1625,0.3625 -0.35,0.75 -0.5875,1.08749 -0.15,0.2125 -0.35,0.425 -0.575,0.575 -0.25,0.1625 -0.5375,0.25 -0.8375,0.275 -0.35,0.0125 -0.7125,-0.0625 -1,-0.2625 -0.2,-0.1375 -0.3875,-0.375 -0.525,-0.5875 -0.225,-0.33749 -0.4125,-0.71249 -0.575,-1.08749 -0.2875,-0.7 -0.5,-1.49999 -0.6375,-2.24999 -0.2,-1.06249 -0.325,-2.33748 -0.4125,-3.39997 -0.075,-1.0625 -0.1625,-2.27499 -0.1625,-3.32498 0,-0.975 0.062,-1.96249 0.1625,-2.93748 0.1,-0.9625 0.2375,-1.92499 0.4125,-2.88749 0.15,-0.87499 0.3375,-1.77498 0.575,-2.63748 0.15,-0.55 0.3875,-1.19999 0.7,-1.67499 0.1875,-0.2625 0.425,-0.53749 0.7125,-0.68749 0.2375,-0.1125 0.5125,-0.2125 0.7875,-0.225 z" />
    <path
       inkscape:connector-curvature="0"
       id="path78"
       style="font-style:normal;font-variant:normal;font-weight:normal;font-stretch:normal;letter-spacing:normal;word-spacing:normal;text-anchor:start;fill:#000000;fill-rule:nonzero;stroke:none;stroke-linecap:butt;stroke-linejoin:miter;stroke-miterlimit:10.43299961;stroke-dasharray:none;stroke-dashoffset:0;stroke-opacity:1"
       d="m 1295.5675,451.21982 0.1,29.86231 -4.35,0 -0.1125,-22.44986 0,0 c -0.075,0.0625 -0.1875,0.175 -0.25,0.225 -0.225,0.2125 -0.4625,0.4125 -0.7,0.58749 -0.2875,0.225 -0.6875,0.4875 -1,0.6875 -0.2625,0.175 -0.6375,0.4 -0.9125,0.525 -0.1125,0.05 -0.2625,0.1125 -0.375,0.1625 l 0,0 -2.175,-3.64998 0,0 c 0.1,-0.0625 0.2375,-0.1375 0.35,-0.2 0.55,-0.3 1.1375,-0.675 1.6375,-1.04999 0.6375,-0.475 1.2125,-1.0375 1.7,-1.64999 0.5125,-0.6375 0.9375,-1.33749 1.275,-2.07499 0.1375,-0.2875 0.3125,-0.6875 0.45,-0.97499 l 0,0 4.3625,0 z" />
    <path
       inkscape:connector-curvature="0"
       id="path82"
       style="font-style:normal;font-variant:normal;font-weight:normal;font-stretch:normal;letter-spacing:normal;word-spacing:normal;text-anchor:start;fill:#000000;fill-rule:nonzero;stroke:none;stroke-linecap:butt;stroke-linejoin:miter;stroke-miterlimit:10.43299961;stroke-dasharray:none;stroke-dashoffset:0;stroke-opacity:1"
       d="m 1323.7298,450.89482 0.125,0 0.1125,0 0.125,0.0125 0.1125,0.0125 0.125,0.0125 0.125,0.0125 0.1125,0.0125 0.125,0.025 0.1125,0.025 0.125,0.025 0.1125,0.025 0.125,0.025 0.1125,0.025 0.125,0.0375 0.1125,0.025 0.1125,0.0375 c 1.325,0.39999 2.4749,1.33749 3.2999,2.44998 0.7375,0.96249 1.275,2.11249 1.65,3.26248 0.375,1.11249 0.625,2.26249 0.8,3.41248 0.175,1.17499 0.2625,2.41248 0.3125,3.61248 0.038,1.37499 0.025,2.76248 -0.062,4.14997 -0.087,1.28749 -0.25,2.57498 -0.4875,3.84997 -0.275,1.44999 -0.65,2.93749 -1.1875,4.29998 -0.4875,1.24999 -1.2,2.58748 -2.175,3.48747 -1.0999,1.0125 -2.5124,1.59999 -3.9999,1.64999 -1.4125,0.05 -2.8,-0.37499 -3.9,-1.24999 -1.2,-0.93749 -2.025,-2.49998 -2.55,-3.92497 -0.5,-1.36249 -0.85,-2.81249 -1.0875,-4.24998 -0.2,-1.24999 -0.325,-2.58748 -0.4125,-3.84997 -0.088,-1.23749 -0.15,-2.64998 -0.1,-3.89998 0.062,-1.27499 0.225,-2.59998 0.45,-3.86247 0.1875,-1.11249 0.45,-2.28749 0.7875,-3.36248 0.3625,-1.14999 0.875,-2.33749 1.6125,-3.29998 0.8625,-1.16249 2.05,-2.12499 3.45,-2.51248 0.5375,-0.15 1.1375,-0.275 1.7,-0.275 z" />
    <path
       inkscape:connector-curvature="0"
       id="path80"
       style="font-style:normal;font-variant:normal;font-weight:normal;font-stretch:normal;letter-spacing:normal;word-spacing:normal;text-anchor:start;fill:#ffffff;fill-rule:nonzero;stroke:none;stroke-linecap:butt;stroke-linejoin:miter;stroke-miterlimit:10.43299961;stroke-dasharray:none;stroke-dashoffset:0;stroke-opacity:1"
       d="m 1323.7548,455.28229 0.062,0 0.062,0 0.062,0 0.062,0.0125 0.062,0 0.075,0.0125 0.062,0.0125 0.05,0.0125 0.062,0.0125 0.062,0.025 0.062,0.0125 0.062,0.025 0.062,0.025 0.05,0.025 0.062,0.025 0.05,0.025 c 0.2875,0.15 0.5375,0.425 0.7125,0.69999 0.2875,0.45 0.5,1.1125 0.6375,1.62499 0.225,0.9 0.4125,1.79999 0.55,2.72499 0.15,0.93749 0.2375,1.89998 0.3125,2.84998 0.062,0.98749 0.1,1.96249 0.088,2.93748 0,1.11249 -0.05,2.22499 -0.15,3.32498 -0.1,1.11249 -0.25,2.26248 -0.4875,3.34998 -0.175,0.74999 -0.3875,1.51249 -0.6875,2.23748 -0.15,0.3625 -0.3375,0.75 -0.575,1.075 -0.1625,0.22499 -0.35,0.42499 -0.575,0.57499 -0.25,0.1625 -0.5375,0.2625 -0.8375,0.275 -0.35,0.025 -0.7,-0.0625 -0.9875,-0.2625 -0.2125,-0.1375 -0.3875,-0.3625 -0.5375,-0.58749 -0.225,-0.325 -0.4125,-0.7 -0.5625,-1.075 -0.3,-0.69999 -0.5,-1.48749 -0.625,-2.24998 -0.2,-1.05 -0.3375,-2.32499 -0.425,-3.38748 -0.088,-1.04999 -0.1625,-2.27499 -0.1625,-3.32498 0,-0.96249 0.062,-1.94999 0.1625,-2.92498 0.1,-0.96249 0.2375,-1.92499 0.4,-2.87498 0.15,-0.8625 0.35,-1.77499 0.575,-2.62499 0.1625,-0.54999 0.3875,-1.19999 0.7,-1.67499 0.1875,-0.26249 0.425,-0.53749 0.7125,-0.68749 0.25,-0.1125 0.5125,-0.2125 0.7875,-0.225 z" />
    <path
       inkscape:connector-curvature="0"
       id="path84"
       style="font-style:normal;font-variant:normal;font-weight:normal;font-stretch:normal;letter-spacing:normal;word-spacing:normal;text-anchor:start;fill:#000000;fill-rule:nonzero;stroke:none;stroke-linecap:butt;stroke-linejoin:miter;stroke-miterlimit:10.43299961;stroke-dasharray:none;stroke-dashoffset:0;stroke-opacity:1"
       d="m 1314.1548,477.10715 0,3.97498 -15.5249,0 -0.012,-2.62499 0,0 c 0,-0.68749 0.2375,-1.71249 0.425,-2.36248 0.1875,-0.725 0.475,-1.47499 0.775,-2.14999 0.575,-1.24999 1.275,-2.46248 2.0375,-3.61248 0.5875,-0.87499 1.375,-1.93748 2.025,-2.77498 0.125,-0.1625 0.5875,-0.78749 0.7,-0.93749 l 0,0 3.9125,-4.99997 0,0 c 0.25,-0.325 0.8625,-1.11249 1.0375,-1.47499 0.25,-0.4875 0.3875,-1.01249 0.4,-1.54999 0,-0.7875 -0.275,-1.53749 -0.7625,-2.13749 -0.675,-0.83749 -1.6875,-1.34999 -2.7625,-1.33749 -0.875,0.0125 -1.7,0.3875 -2.3125,0.975 -0.525,0.51249 -0.875,1.14999 -1,1.86248 -0.05,0.2875 -0.05,0.7375 -0.05,1.0375 l 0,0 0,0.98749 -4.4,0.0125 0,0 c -0.013,-0.2375 -0.025,-0.575 -0.025,-0.79999 0,-0.3125 0.012,-0.6125 0.037,-0.9125 0.025,-0.275 0.05,-0.54999 0.1,-0.81249 0.025,-0.2125 0.075,-0.4375 0.1125,-0.65 0.375,-1.66249 1.3875,-3.12498 2.75,-4.17497 1.35,-1.05 3.0125,-1.64999 4.7375,-1.66249 1.8125,-0.0125 3.575,0.61249 4.9875,1.74999 1.2249,0.98749 2.1249,2.32498 2.5749,3.84997 0.2125,0.6875 0.3125,1.41249 0.3125,2.13749 0.012,0.83749 -0.1125,1.66249 -0.35,2.46248 -0.15,0.4625 -0.3375,0.9125 -0.575,1.32499 -0.2125,0.3875 -0.475,0.7625 -0.7625,1.1 l 0,0 -5.7999,7.46245 0,0 c -0.1875,0.225 -0.4375,0.55 -0.6125,0.77499 -0.3,0.4 -0.6375,0.8625 -0.9125,1.275 -0.3625,0.59999 -0.7125,1.26249 -1,1.91248 -0.2,0.425 -0.4125,0.975 -0.5125,1.425 -0.025,0.18749 -0.062,0.47499 -0.087,0.64999 l 0,0 10.5374,0 z" />
    <path
       inkscape:connector-curvature="0"
       id="path98"
       style="font-style:normal;font-variant:normal;font-weight:normal;font-stretch:normal;letter-spacing:normal;word-spacing:normal;text-anchor:start;fill:#000000;fill-rule:nonzero;stroke:none;stroke-linecap:butt;stroke-linejoin:miter;stroke-miterlimit:10.43299961;stroke-dasharray:none;stroke-dashoffset:0;stroke-opacity:1"
       d="m 1306.6424,203.84631 -14.1499,0 0,15.6249 4.1624,0.9875 0,0 c 0.037,-0.0875 0.075,-0.225 0.1125,-0.325 0.062,-0.1375 0.15,-0.275 0.225,-0.4 0.275,-0.4 0.625,-0.73749 1.0375,-0.98749 0.525,-0.325 1.125,-0.5 1.7375,-0.5 0.7125,0.0125 1.4125,0.25 1.9625,0.7 0.475,0.41249 0.8375,1.03749 1.075,1.62499 0.2,0.47499 0.3625,0.97499 0.475,1.49999 0.1375,0.61249 0.2,1.26249 0.2,1.89998 0,0.6 -0.05,1.2 -0.1625,1.78749 -0.1,0.5875 -0.275,1.175 -0.55,1.71249 -0.2625,0.5375 -0.6375,1.025 -1.125,1.38749 -0.5375,0.4 -1.1875,0.625 -1.8625,0.6375 -0.6625,0.0125 -1.3125,-0.175 -1.8625,-0.5375 -0.5125,-0.34999 -0.925,-0.81249 -1.175,-1.37499 -0.075,-0.15 -0.15,-0.375 -0.2,-0.52499 l 0,0 -4.0499,1.16249 0,0 c 0.037,0.1625 0.075,0.4 0.125,0.54999 0.125,0.4875 0.4,0.9875 0.675,1.4125 0.4375,0.68749 0.9625,1.32499 1.5875,1.84998 0.65,0.5375 1.3999,0.95 2.1874,1.25 0.9375,0.34999 1.925,0.53749 2.9125,0.49999 0.8375,-0.025 1.6625,-0.2125 2.45,-0.51249 0.7875,-0.3125 1.525,-0.725 2.175,-1.275 0.7,-0.57499 1.2625,-1.28749 1.7125,-2.06248 0.4875,-0.85 0.825,-1.83749 1.0625,-2.78749 0.2625,-1.03749 0.4375,-2.12498 0.45,-3.19997 0.013,-1 -0.1375,-2.04999 -0.3375,-3.02499 -0.2,-0.97499 -0.5125,-2.02498 -0.975,-2.91248 -0.4375,-0.83749 -1.025,-1.59999 -1.725,-2.22498 -0.7125,-0.625 -1.525,-1.1125 -2.4125,-1.44999 -0.8375,-0.3125 -1.75,-0.4875 -2.675,-0.4875 -0.8625,0 -1.725,0.15 -2.525,0.5 -0.1,0.0375 -0.25,0.1 -0.3375,0.1375 l 0,0 0,-6.59996 9.8,0 0,-4.03748 z" />
    <polygon
       id="polygon112"
       style="font-style:normal;font-variant:normal;font-weight:normal;font-stretch:normal;letter-spacing:normal;word-spacing:normal;text-anchor:start;fill:#027646;fill-opacity:1;fill-rule:nonzero;stroke:none;stroke-linecap:butt;stroke-linejoin:miter;stroke-miterlimit:10.43299961;stroke-dasharray:none;stroke-dashoffset:0;stroke-opacity:1"
       points="275.6,219.25 275.6,290.13 225.58,290.13 225.58,219.25 225.58,219.25 "
       transform="matrix(1.249992,0,0,-1.249992,866.4952,785.08018)" />
    <polygon
       id="polygon102"
       style="font-style:normal;font-variant:normal;font-weight:normal;font-stretch:normal;letter-spacing:normal;word-spacing:normal;text-anchor:start;fill:#ffffff;fill-rule:nonzero;stroke:none;stroke-linecap:butt;stroke-linejoin:miter;stroke-miterlimit:10.43299961;stroke-dasharray:none;stroke-dashoffset:0;stroke-opacity:1"
       points="249.24,287.52 248.79,268.7 242.75,268.67 247.46,287.52 247.46,287.52 "
       transform="matrix(1.249992,0,0,-1.249992,866.4952,785.08018)" />
    <polygon
       id="polygon104"
       style="font-style:normal;font-variant:normal;font-weight:normal;font-stretch:normal;letter-spacing:normal;word-spacing:normal;text-anchor:start;fill:#ffffff;fill-rule:nonzero;stroke:none;stroke-linecap:butt;stroke-linejoin:miter;stroke-miterlimit:10.43299961;stroke-dasharray:none;stroke-dashoffset:0;stroke-opacity:1"
       points="252.41,268.67 258.39,268.67 253.86,287.52 252.15,287.52 252.15,287.52 "
       transform="matrix(1.249992,0,0,-1.249992,866.4952,785.08018)" />
    <polygon
       id="polygon106"
       style="font-style:normal;font-variant:normal;font-weight:normal;font-stretch:normal;letter-spacing:normal;word-spacing:normal;text-anchor:start;fill:#ffffff;fill-rule:nonzero;stroke:none;stroke-linecap:butt;stroke-linejoin:miter;stroke-miterlimit:10.43299961;stroke-dasharray:none;stroke-dashoffset:0;stroke-opacity:1"
       points="264.52,257.64 267.09,257.64 267.09,262.86 272.47,262.86 272.47,265.52 228.7,265.52 228.7,265.52 228.7,262.86 233.83,262.86 233.83,257.64 236.4,257.64 237.8,262.86 263.32,262.86 "
       transform="matrix(1.249992,0,0,-1.249992,866.4952,785.08018)" />
    <polygon
       id="polygon108"
       style="font-style:normal;font-variant:normal;font-weight:normal;font-stretch:normal;letter-spacing:normal;word-spacing:normal;text-anchor:start;fill:#ffffff;fill-rule:nonzero;stroke:none;stroke-linecap:butt;stroke-linejoin:miter;stroke-miterlimit:10.43299961;stroke-dasharray:none;stroke-dashoffset:0;stroke-opacity:1"
       points="231.1,221.85 247.8,221.85 248.62,260.18 240.64,260.24 240.64,260.24 "
       transform="matrix(1.249992,0,0,-1.249992,866.4952,785.08018)" />
    <polygon
       id="polygon110"
       style="font-style:normal;font-variant:normal;font-weight:normal;font-stretch:normal;letter-spacing:normal;word-spacing:normal;text-anchor:start;fill:#ffffff;fill-rule:nonzero;stroke:none;stroke-linecap:butt;stroke-linejoin:miter;stroke-miterlimit:10.43299961;stroke-dasharray:none;stroke-dashoffset:0;stroke-opacity:1"
       points="252.84,221.85 269.43,221.85 260.39,260.24 252.5,260.24 252.5,260.24 "
       transform="matrix(1.249992,0,0,-1.249992,866.4952,785.08018)" />
  </g>
  <xhtml:style
     charset="utf-8"
     type="text/css"
     class="firebugResetStyles">/* See license.txt for terms of usage */

/** reset styling **/

.firebugResetStyles {

    z-index: 2147483646 !important;

    top: 0 !important;

    left: 0 !important;

    display: block !important;

    border: 0 none !important;

    margin: 0 !important;

    padding: 0 !important;

    outline: 0 !important;

    min-width: 0 !important;

    max-width: none !important;

    min-height: 0 !important;

    max-height: none !important;

    position: fixed !important;

    transform: rotate(0deg) !important;

    transform-origin: 50% 50% !important;

    border-radius: 0 !important;

    box-shadow: none !important;

    background: transparent none !important;

    pointer-events: none !important;

    white-space: normal !important;

}

style.firebugResetStyles {

    display: none !important;

}



.firebugBlockBackgroundColor {

    background-color: transparent !important;

}



.firebugResetStyles:before, .firebugResetStyles:after {

    content: &quot;&quot; !important;

}

/**actual styling to be modified by firebug theme**/

.firebugCanvas {

    display: none !important;

}



/* * * * * * * * * * * * * * * * * * * * * * * * * * * * * * * * * * * * * * * * * * * * * * * * */

.firebugLayoutBox {

    width: auto !important;

    position: static !important;

}



.firebugLayoutBoxOffset {

    opacity: 0.8 !important;

    position: fixed !important;

}



.firebugLayoutLine {

    opacity: 0.4 !important;

    background-color: #000000 !important;

}



.firebugLayoutLineLeft, .firebugLayoutLineRight {

    width: 1px !important;

    height: 100% !important;

}



.firebugLayoutLineTop, .firebugLayoutLineBottom {

    width: 100% !important;

    height: 1px !important;

}



.firebugLayoutLineTop {

    margin-top: -1px !important;

    border-top: 1px solid #999999 !important;

}



.firebugLayoutLineRight {

    border-right: 1px solid #999999 !important;

}



.firebugLayoutLineBottom {

    border-bottom: 1px solid #999999 !important;

}



.firebugLayoutLineLeft {

    margin-left: -1px !important;

    border-left: 1px solid #999999 !important;

}



/* * * * * * * * * * * * * * * * * * * * * * * * * * * * * * * * * * * * * * * * * * * * * * * * */

.firebugLayoutBoxParent {

    border-top: 0 none !important;

    border-right: 1px dashed #E00 !important;

    border-bottom: 1px dashed #E00 !important;

    border-left: 0 none !important;

    position: fixed !important;

    width: auto !important;

}



.firebugRuler{

    position: absolute !important;

}



.firebugRulerH {

    top: -15px !important;

    left: 0 !important;

    width: 100% !important;

    height: 14px !important;

    background: url(&quot;data:image/png,%89PNG%0D%0A%1A%0A%00%00%00%0DIHDR%00%00%13%88%00%00%00%0E%08%02%00%00%00L%25a%0A%00%00%00%04gAMA%00%00%D6%D8%D4OX2%00%00%00%19tEXtSoftware%00Adobe%20ImageReadyq%C9e%3C%00%00%04%F8IDATx%DA%EC%DD%D1n%E2%3A%00E%D1%80%F8%FF%EF%E2%AF2%95%D0D4%0E%C1%14%B0%8Fa-%E9%3E%CC%9C%87n%B9%81%A6W0%1C%A6i%9A%E7y%0As8%1CT%A9R%A5J%95*U%AAT%A9R%A5J%95*U%AAT%A9R%A5J%95*U%AAT%A9R%A5J%95*U%AAT%A9R%A5J%95*U%AAT%A9R%A5J%95*U%AAT%A9R%A5J%95*U%AATE9%FE%FCw%3E%9F%AF%2B%2F%BA%97%FDT%1D~K(%5C%9D%D5%EA%1B%5C%86%B5%A9%BDU%B5y%80%ED%AB*%03%FAV9%AB%E1%CEj%E7%82%EF%FB%18%BC%AEJ8%AB%FA'%D2%BEU9%D7U%ECc0%E1%A2r%5DynwVi%CFW%7F%BB%17%7Dy%EACU%CD%0E%F0%FA%3BX%FEbV%FEM%9B%2B%AD%BE%AA%E5%95v%AB%AA%E3E5%DCu%15rV9%07%B5%7F%B5w%FCm%BA%BE%AA%FBY%3D%14%F0%EE%C7%60%0EU%AAT%A9R%A5J%95*U%AAT%A9R%A5J%95*U%AAT%A9R%A5J%95*U%AAT%A9R%A5J%95*U%AAT%A9R%A5JU%88%D3%F5%1F%AE%DF%3B%1B%F2%3E%DAUCNa%F92%D02%AC%7Dm%F9%3A%D4%F2%8B6%AE*%BF%5C%C2Ym~9g5%D0Y%95%17%7C%C8c%B0%7C%18%26%9CU%CD%13i%F7%AA%90%B3Z%7D%95%B4%C7%60%E6E%B5%BC%05%B4%FBY%95U%9E%DB%FD%1C%FC%E0%9F%83%7F%BE%17%7DkjMU%E3%03%AC%7CWj%DF%83%9An%BCG%AE%F1%95%96yQ%0Dq%5Dy%00%3Et%B5'%FC6%5DS%95pV%95%01%81%FF'%07%00%00%00%00%00%00%00%00%00%F8x%C7%F0%BE%9COp%5D%C9%7C%AD%E7%E6%EBV%FB%1E%E0(%07%E5%AC%C6%3A%ABi%9C%8F%C6%0E9%AB%C0'%D2%8E%9F%F99%D0E%B5%99%14%F5%0D%CD%7F%24%C6%DEH%B8%E9rV%DFs%DB%D0%F7%00k%FE%1D%84%84%83J%B8%E3%BA%FB%EF%20%84%1C%D7%AD%B0%8E%D7U%C8Y%05%1E%D4t%EF%AD%95Q%BF8w%BF%E9%0A%BF%EB%03%00%00%00%00%00%00%00%00%00%B8vJ%8E%BB%F5%B1u%8Cx%80%E1o%5E%CA9%AB%CB%CB%8E%03%DF%1D%B7T%25%9C%D5(%EFJM8%AB%CC'%D2%B2*%A4s%E7c6%FB%3E%FA%A2%1E%80~%0E%3E%DA%10x%5D%95Uig%15u%15%ED%7C%14%B6%87%A1%3B%FCo8%A8%D8o%D3%ADO%01%EDx%83%1A~%1B%9FpP%A3%DC%C6'%9C%95gK%00%00%00%00%00%00%00%00%00%20%D9%C9%11%D0%C0%40%AF%3F%EE%EE%92%94%D6%16X%B5%BCMH%15%2F%BF%D4%A7%C87%F1%8E%F2%81%AE%AAvzr%DA2%ABV%17%7C%E63%83%E7I%DC%C6%0Bs%1B%EF6%1E%00%00%00%00%00%00%00%00%00%80cr%9CW%FF%7F%C6%01%0E%F1%CE%A5%84%B3%CA%BC%E0%CB%AA%84%CE%F9%BF)%EC%13%08WU%AE%AB%B1%AE%2BO%EC%8E%CBYe%FE%8CN%ABr%5Dy%60~%CFA%0D%F4%AE%D4%BE%C75%CA%EDVB%EA(%B7%F1%09g%E5%D9%12%00%00%00%00%00%00%00%00%00H%F6%EB%13S%E7y%5E%5E%FB%98%F0%22%D1%B2'%A7%F0%92%B1%BC%24z3%AC%7Dm%60%D5%92%B4%7CEUO%5E%F0%AA*%3BU%B9%AE%3E%A0j%94%07%A0%C7%A0%AB%FD%B5%3F%A0%F7%03T%3Dy%D7%F7%D6%D4%C0%AAU%D2%E6%DFt%3F%A8%CC%AA%F2%86%B9%D7%F5%1F%18%E6%01%F8%CC%D5%9E%F0%F3z%88%AA%90%EF%20%00%00%00%00%00%00%00%00%00%C0%A6%D3%EA%CFi%AFb%2C%7BB%0A%2B%C3%1A%D7%06V%D5%07%A8r%5D%3D%D9%A6%CAu%F5%25%CF%A2%99%97zNX%60%95%AB%5DUZ%D5%FBR%03%AB%1C%D4k%9F%3F%BB%5C%FF%81a%AE%AB'%7F%F3%EA%FE%F3z%94%AA%D8%DF%5B%01%00%00%00%00%00%00%00%00%00%8E%FB%F3%F2%B1%1B%8DWU%AAT%A9R%A5J%95*U%AAT%A9R%A5J%95*U%AAT%A9R%A5J%95*U%AAT%A9R%A5J%95*U%AAT%A9R%A5J%95*U%AAT%A9R%A5J%95*U%AAT%A9R%A5J%95*UiU%C7%BBe%E7%F3%B9%CB%AAJ%95*U%AAT%A9R%A5J%95*U%AAT%A9R%A5J%95*U%AAT%A9R%A5J%95*U%AAT%A9R%A5J%95*U%AAT%A9R%A5J%95*U%AAT%A9R%A5J%95*U%AAT%A9R%A5*%AAj%FD%C6%D4%5Eo%90%B5Z%ADV%AB%D5j%B5Z%ADV%AB%D5j%B5Z%ADV%AB%D5j%B5Z%ADV%AB%D5j%B5Z%ADV%AB%D5j%B5Z%ADV%AB%D5j%B5Z%ADV%AB%D5j%B5%86%AF%1B%9F%98%DA%EBm%BBV%AB%D5j%B5Z%ADV%AB%D5j%B5Z%ADV%AB%D5j%B5Z%ADV%AB%D5j%B5Z%ADV%AB%D5j%B5Z%ADV%AB%D5j%B5Z%ADV%AB%D5j%B5Z%AD%D6%E4%F58%01%00%00%00%00%00%00%00%00%00%00%00%00%00%40%85%7F%02%0C%008%C2%D0H%16j%8FX%00%00%00%00IEND%AEB%60%82&quot;) repeat-x !important;

    border-top: 1px solid #BBBBBB !important;

    border-right: 1px dashed #BBBBBB !important;

    border-bottom: 1px solid #000000 !important;

}



.firebugRulerV {

    top: 0 !important;

    left: -15px !important;

    width: 14px !important;

    height: 100% !important;

    background: url(&quot;data:image/png,%89PNG%0D%0A%1A%0A%00%00%00%0DIHDR%00%00%00%0E%00%00%13%88%08%02%00%00%00%0E%F5%CB%10%00%00%00%04gAMA%00%00%D6%D8%D4OX2%00%00%00%19tEXtSoftware%00Adobe%20ImageReadyq%C9e%3C%00%00%06~IDATx%DA%EC%DD%D1v%A20%14%40Qt%F1%FF%FF%E4%97%D9%07%3BT%19%92%DC%40(%90%EEy%9A5%CB%B6%E8%F6%9Ac%A4%CC0%84%FF%DC%9E%CF%E7%E3%F1%88%DE4%F8%5D%C7%9F%2F%BA%DD%5E%7FI%7D%F18%DDn%BA%C5%FB%DF%97%BFk%F2%10%FF%FD%B4%F2M%A7%FB%FD%FD%B3%22%07p%8F%3F%AE%E3%F4S%8A%8F%40%EEq%9D%BE8D%F0%0EY%A1Uq%B7%EA%1F%81%88V%E8X%3F%B4%CEy%B7h%D1%A2E%EBohU%FC%D9%AF2fO%8BBeD%BE%F7X%0C%97%A4%D6b7%2Ck%A5%12%E3%9B%60v%B7r%C7%1AI%8C%BD%2B%23r%00c0%B2v%9B%AD%CA%26%0C%1Ek%05A%FD%93%D0%2B%A1u%8B%16-%95q%5Ce%DCSO%8E%E4M%23%8B%F7%C2%FE%40%BB%BD%8C%FC%8A%B5V%EBu%40%F9%3B%A72%FA%AE%8C%D4%01%CC%B5%DA%13%9CB%AB%E2I%18%24%B0n%A9%0CZ*Ce%9C%A22%8E%D8NJ%1E%EB%FF%8F%AE%CAP%19*%C3%BAEKe%AC%D1%AAX%8C*%DEH%8F%C5W%A1e%AD%D4%B7%5C%5B%19%C5%DB%0D%EF%9F%19%1D%7B%5E%86%BD%0C%95%A12%AC%5B*%83%96%CAP%19%F62T%86%CAP%19*%83%96%CA%B8Xe%BC%FE)T%19%A1%17xg%7F%DA%CBP%19*%C3%BA%A52T%86%CAP%19%F62T%86%CA%B0n%A9%0CZ%1DV%C6%3D%F3%FCH%DE%B4%B8~%7F%5CZc%F1%D6%1F%AF%84%F9%0F6%E6%EBVt9%0E~%BEr%AF%23%B0%97%A12T%86%CAP%19%B4T%86%CA%B8Re%D8%CBP%19*%C3%BA%A52huX%19%AE%CA%E5%BC%0C%7B%19*CeX%B7h%A9%0C%95%E1%BC%0C%7B%19*CeX%B7T%06%AD%CB%5E%95%2B%BF.%8F%C5%97%D5%E4%7B%EE%82%D6%FB%CF-%9C%FD%B9%CF%3By%7B%19%F62T%86%CA%B0n%D1R%19*%A3%D3%CA%B0%97%A12T%86uKe%D0%EA%B02*%3F1%99%5DB%2B%A4%B5%F8%3A%7C%BA%2B%8Co%7D%5C%EDe%A8%0C%95a%DDR%19%B4T%C66%82fA%B2%ED%DA%9FC%FC%17GZ%06%C9%E1%B3%E5%2C%1A%9FoiB%EB%96%CA%A0%D5qe4%7B%7D%FD%85%F7%5B%ED_%E0s%07%F0k%951%ECr%0D%B5C%D7-g%D1%A8%0C%EB%96%CA%A0%A52T%C6)*%C3%5E%86%CAP%19%D6-%95A%EB*%95q%F8%BB%E3%F9%AB%F6%E21%ACZ%B7%22%B7%9B%3F%02%85%CB%A2%5B%B7%BA%5E%B7%9C%97%E1%BC%0C%EB%16-%95%A12z%AC%0C%BFc%A22T%86uKe%D0%EA%B02V%DD%AD%8A%2B%8CWhe%5E%AF%CF%F5%3B%26%CE%CBh%5C%19%CE%CB%B0%F3%A4%095%A1%CAP%19*Ce%A8%0C%3BO*Ce%A8%0C%95%A12%3A%AD%8C%0A%82%7B%F0v%1F%2FD%A9%5B%9F%EE%EA%26%AF%03%CA%DF9%7B%19*Ce%A8%0C%95%A12T%86%CA%B8Ze%D8%CBP%19*Ce%A8%0C%95%D1ae%EC%F7%89I%E1%B4%D7M%D7P%8BjU%5C%BB%3E%F2%20%D8%CBP%19*Ce%A8%0C%95%A12T%C6%D5*%C3%5E%86%CAP%19*Ce%B4O%07%7B%F0W%7Bw%1C%7C%1A%8C%B3%3B%D1%EE%AA%5C%D6-%EBV%83%80%5E%D0%CA%10%5CU%2BD%E07YU%86%CAP%19*%E3%9A%95%91%D9%A0%C8%AD%5B%EDv%9E%82%FFKOee%E4%8FUe%A8%0C%95%A12T%C6%1F%A9%8C%C8%3D%5B%A5%15%FD%14%22r%E7B%9F%17l%F8%BF%ED%EAf%2B%7F%CF%ECe%D8%CBP%19*Ce%A8%0C%95%E1%93~%7B%19%F62T%86%CAP%19*Ce%A8%0C%E7%13%DA%CBP%19*Ce%A8%0CZf%8B%16-Z%B4h%D1R%19f%8B%16-Z%B4h%D1R%19%B4%CC%16-Z%B4h%D1R%19%B4%CC%16-Z%B4h%D1%A2%A52%CC%16-Z%B4h%D1%A2%A52h%99-Z%B4h%D1%A2%A52h%99-Z%B4h%D1%A2EKe%98-Z%B4h%D1%A2EKe%D02%5B%B4h%D1%A2EKe%D02%5B%B4h%D1%A2E%8B%96%CA0%5B%B4h%D1%A2E%8B%96%CA%A0e%B6h%D1%A2E%8B%96%CA%A0e%B6h%D1%A2E%8B%16-%95a%B6h%D1%A2E%8B%16-%95A%CBl%D1%A2E%8B%16-%95A%CBl%D1%A2E%8B%16-Z*%C3l%D1%A2E%8B%16-Z*%83%96%D9%A2E%8B%16-Z*%83%96%D9%A2E%8B%16-Z%B4T%86%D9%A2E%8B%16-Z%B4T%06-%B3E%8B%16-Z%B4T%06-%B3E%8B%16-Z%B4h%A9%0C%B3E%8B%16-Z%B4h%A9%0CZf%8B%16-Z%B4h%A9%0CZf%8B%16-Z%B4h%D1R%19f%8B%16-Z%B4h%D1R%19%B4%CC%16-Z%B4h%D1R%19%B4%CC%16-Z%B4h%D1%A2%A52%CC%16-Z%B4h%D1%A2%A52h%99-Z%B4h%D1%A2%A52h%99-Z%B4h%D1%A2EKe%98-Z%B4h%D1%A2EKe%D02%5B%B4h%D1%A2EKe%D02%5B%B4h%D1%A2E%8B%96%CA0%5B%B4h%D1%A2E%8B%96%CA%A0e%B6h%D1%A2E%8B%96%CA%A0e%B6h%D1%A2E%8B%16-%95a%B6h%D1%A2E%8B%16-%95A%CBl%D1%A2E%8B%16-%95A%CBl%D1%A2E%8B%16-Z*%C3l%D1%A2E%8B%16-Z*%83%96%D9%A2E%8B%16-Z*%83%96%D9%A2E%8B%16-Z%B4T%86%D9%A2E%8B%16-Z%B4T%06-%B3E%8B%16-Z%B4T%06-%B3E%8B%16-Z%B4h%A9%0C%B3E%8B%16-Z%B4h%A9%0CZf%8B%16-Z%B4h%A9%0CZf%8B%16-Z%B4h%D1R%19f%8B%16-Z%B4h%D1R%19%B4%CC%16-Z%B4h%D1R%19%B4%CC%16-Z%B4h%D1%A2%A52%CC%16-Z%B4h%D1%A2%A52h%99-Z%B4h%D1%A2%A52h%99-Z%B4h%D1%A2EKe%98-Z%B4h%D1%A2EKe%D02%5B%B4h%D1%A2EKe%D02%5B%B4h%D1%A2E%8B%96%CA0%5B%B4h%D1%A2E%8B%96%CA%A0e%B6h%D1%A2E%8B%96%CA%A0e%B6h%D1%A2E%8B%16-%95a%B6h%D1%A2E%8B%16-%95A%CBl%D1%A2E%8B%16-%95A%CBl%D1%A2E%8B%16-Z*%C3l%D1%A2E%8B%16-Z*%83%96%D9%A2E%8B%16-Z*%83%96%D9%A2E%8B%16-Z%B4T%86%D9%A2E%8B%16-Z%B4T%06-%B3E%8B%16-Z%B4%AE%A4%F5%25%C0%00%DE%BF%5C'%0F%DA%B8q%00%00%00%00IEND%AEB%60%82&quot;) repeat-y !important;

    border-left: 1px solid #BBBBBB !important;

    border-right: 1px solid #000000 !important;

    border-bottom: 1px dashed #BBBBBB !important;

}



.overflowRulerX &gt; .firebugRulerV {

    left: 0 !important;

}



.overflowRulerY &gt; .firebugRulerH {

    top: 0 !important;

}



/* * * * * * * * * * * * * * * * * * * * * * * * * * * * * * * * * * * * * * * * * * * * * * * * */

.fbProxyElement {

    position: fixed !important;

    pointer-events: auto !important;

}

</xhtml:style>
</svg>
