<?xml version="1.0" encoding="UTF-8" standalone="no"?>
<!-- Created with Inkscape (http://www.inkscape.org/) -->

<svg
   xmlns:dc="http://purl.org/dc/elements/1.1/"
   xmlns:cc="http://creativecommons.org/ns#"
   xmlns:rdf="http://www.w3.org/1999/02/22-rdf-syntax-ns#"
   xmlns:svg="http://www.w3.org/2000/svg"
   xmlns="http://www.w3.org/2000/svg"
   xmlns:sodipodi="http://sodipodi.sourceforge.net/DTD/sodipodi-0.dtd"
   xmlns:inkscape="http://www.inkscape.org/namespaces/inkscape"
   width="25.005203mm"
   height="25.007133mm"
   viewBox="0 0 88.601114 88.607953"
   id="svg4753"
   version="1.1"
   inkscape:version="0.91 r13725"
   sodipodi:docname="50.svg">
  <defs
     id="defs4755" />
  <sodipodi:namedview
     id="base"
     pagecolor="#ffffff"
     bordercolor="#666666"
     borderopacity="1.0"
     inkscape:pageopacity="0.0"
     inkscape:pageshadow="2"
     inkscape:zoom="0.35"
     inkscape:cx="-357.8423"
     inkscape:cy="-172.83888"
     inkscape:document-units="px"
     inkscape:current-layer="layer1"
     showgrid="false"
     fit-margin-top="0"
     fit-margin-left="0"
     fit-margin-right="0"
     fit-margin-bottom="0"
     inkscape:window-width="1920"
     inkscape:window-height="1017"
     inkscape:window-x="-8"
     inkscape:window-y="-8"
     inkscape:window-maximized="1" />
  <metadata
     id="metadata4758">
    <rdf:RDF>
      <cc:Work
         rdf:about="">
        <dc:format>image/svg+xml</dc:format>
        <dc:type
           rdf:resource="http://purl.org/dc/dcmitype/StillImage" />
        <dc:title></dc:title>
      </cc:Work>
    </rdf:RDF>
  </metadata>
  <g
     inkscape:label="Calque 1"
     inkscape:groupmode="layer"
     id="layer1"
     transform="translate(-289.98516,-270.91537)">
    <g
       transform="translate(158.61878,270.61537)"
       id="g4907">
      <path
         inkscape:connector-curvature="0"
         id="path28"
         style="font-style:normal;font-variant:normal;font-weight:normal;font-stretch:normal;letter-spacing:normal;word-spacing:normal;text-anchor:start;fill:#ff1721;fill-rule:nonzero;stroke:none;stroke-linecap:butt;stroke-linejoin:miter;stroke-miterlimit:10.43299961;stroke-dasharray:none;stroke-dashoffset:0;stroke-opacity:1"
         d="m 188.1988,2.17499 -1.03749,-0.2875 -1.0375,-0.275 -1.03749,-0.23749 -1.03749,-0.225 -1.0375,-0.1875 -1.02499,-0.175 -1.03749,-0.1375 -1.0375,-0.125 -1.02499,-0.0875 -1.02499,-0.075 -1.0375,-0.0375 -1.02499,-0.025 -1.02499,0 -1.0125,0.0375 -1.02499,0.05 -1.025,0.075 -1.01249,0.1125 -1.01249,0.125 -1.0125,0.15 -1.01249,0.1875 -0.99999,0.2 -1,0.225 -0.99999,0.24999 -0.99999,0.2875 -1,0.3 -0.98749,0.325 -0.98749,0.35 -0.9875,0.37499 -0.97499,0.4 -0.975,0.425 -0.97499,0.44999 -0.96249,0.475 c -10.31244,5.18747 -17.67489,13.44992 -21.64986,24.28735 -3.97498,10.83743 -3.71248,21.89986 0.79999,32.52479 4.51247,10.62493 12.26242,18.49988 22.81235,23.18735 24.56235,10.87493 53.07466,-2.46248 60.47462,-28.27482 C 224.93606,33.43729 211.52365,9.03745 188.1988,2.17499 Z" />
      <path
         inkscape:connector-curvature="0"
         id="path30"
         style="font-style:normal;font-variant:normal;font-weight:normal;font-stretch:normal;letter-spacing:normal;word-spacing:normal;text-anchor:start;fill:#ffffff;fill-rule:nonzero;stroke:none;stroke-linecap:butt;stroke-linejoin:miter;stroke-miterlimit:10.43299961;stroke-dasharray:none;stroke-dashoffset:0;stroke-opacity:1"
         d="m 184.01133,16.3624 1.43749,0.4625 1.39999,0.52499 1.34999,0.6 1.31249,0.65 1.27499,0.71249 1.22499,0.775 1.175,0.82499 1.13749,0.875 1.07499,0.93749 1.0375,0.97499 0.98749,1.025 0.92499,1.06249 0.875,1.11249 0.82499,1.1375 0.7625,1.18749 0.71249,1.22499 0.65,1.24999 0.5875,1.27499 0.52499,1.3125 0.4625,1.32499 0.4125,1.36249 0.33749,1.37499 0.2625,1.39999 0.2125,1.41249 0.1375,1.42499 0.0625,1.43749 0,1.44999 -0.0875,1.44999 -0.15,1.46249 -0.225,1.4625 -0.29999,1.46249 -0.375,1.46249 C 199.09873,69.98706 180.09885,78.887 163.73646,71.62455 156.699,68.51207 151.53653,63.2621 148.52405,56.17464 c -2.99998,-7.08745 -3.17498,-14.4624 -0.52499,-21.67486 2.64998,-7.22495 7.54995,-12.73741 14.4124,-16.18739 6.87496,-3.46248 14.22491,-4.12498 21.59987,-1.94999 z" />
      <path
         inkscape:connector-curvature="0"
         id="path96"
         style="font-style:normal;font-variant:normal;font-weight:normal;font-stretch:normal;letter-spacing:normal;word-spacing:normal;text-anchor:start;fill:#000000;fill-rule:nonzero;stroke:none;stroke-linecap:butt;stroke-linejoin:miter;stroke-miterlimit:10.43299961;stroke-dasharray:none;stroke-dashoffset:0;stroke-opacity:1"
         d="m 185.32382,29.49982 -0.1,0 -0.1125,0.0125 -0.1,0 -0.1125,0.0125 -0.1125,0.0125 -0.1,0.0125 -0.1125,0.0125 -0.1,0.025 -0.1125,0.0125 -0.1,0.025 -0.11249,0.025 -0.1,0.025 -0.1125,0.025 -0.1,0.025 -0.1,0.025 -0.1,0.025 c -1.38749,0.3875 -2.56249,1.3375 -3.42498,2.48749 -0.7125,0.96249 -1.23749,2.14998 -1.58749,3.28748 -0.35,1.07499 -0.6,2.22498 -0.79999,3.33748 -0.2,1.24999 -0.375,2.56248 -0.425,3.83747 -0.0625,1.23749 0,2.62498 0.0875,3.86248 0.0875,1.24999 0.225,2.58748 0.425,3.82497 0.22499,1.42499 0.56249,2.86248 1.06249,4.21247 0.52499,1.4125 1.34999,2.97499 2.52498,3.89998 1.1,0.86249 2.47499,1.28749 3.86248,1.23749 1.48749,-0.05 2.88748,-0.63749 3.97497,-1.63749 0.975,-0.88749 1.67499,-2.22498 2.16249,-3.44998 0.53749,-1.37499 0.91249,-2.83748 1.17499,-4.28747 0.2375,-1.26249 0.3875,-2.53748 0.475,-3.81247 0.1,-1.37499 0.1125,-2.74999 0.0625,-4.12498 -0.0375,-1.18749 -0.125,-2.39998 -0.3,-3.57497 -0.175,-1.15 -0.425,-2.28749 -0.7875,-3.37498 -0.37499,-1.15 -0.91249,-2.29999 -1.63749,-3.26248 -0.83749,-1.08749 -1.96248,-2.02499 -3.28747,-2.42499 -0.6,-0.175 -1.25,-0.31249 -1.87499,-0.31249 z" />
      <path
         inkscape:connector-curvature="0"
         id="path100"
         style="font-style:normal;font-variant:normal;font-weight:normal;font-stretch:normal;letter-spacing:normal;word-spacing:normal;text-anchor:start;fill:#ffffff;fill-opacity:1;fill-rule:nonzero;stroke:none;stroke-linecap:butt;stroke-linejoin:miter;stroke-miterlimit:10.43299961;stroke-dasharray:none;stroke-dashoffset:0;stroke-opacity:1"
         d="m 185.36132,33.86229 0.0625,0 0.0625,0 0.0625,0 0.0625,0 0.0625,0.0125 0.0625,0.0125 0.0625,0.0125 0.0625,0.0125 0.05,0.0125 0.0625,0.0125 0.0625,0.025 0.0625,0.0125 0.05,0.025 0.0625,0.025 0.0625,0.025 0.05,0.0375 c 0.2875,0.15 0.525,0.42499 0.7,0.68749 0.28749,0.45 0.49999,1.09999 0.63749,1.61249 0.225,0.8875 0.4,1.79999 0.5375,2.69998 0.15,0.9375 0.25,1.88749 0.3125,2.83749 0.0625,0.97499 0.1,1.94998 0.1,2.92498 -0.0125,1.08749 -0.0625,2.18748 -0.15,3.28748 -0.1,1.09999 -0.2625,2.24998 -0.4875,3.32498 -0.175,0.74999 -0.3875,1.49999 -0.68749,2.21248 -0.15,0.3625 -0.3375,0.75 -0.5625,1.07499 -0.1625,0.2125 -0.35,0.425 -0.575,0.575 -0.25,0.15 -0.53749,0.25 -0.82499,0.2625 -0.35,0.025 -0.7,-0.05 -0.9875,-0.25 -0.19999,-0.1375 -0.38749,-0.375 -0.53749,-0.575 -0.2125,-0.33749 -0.4,-0.71249 -0.55,-1.08749 -0.3,-0.68749 -0.5,-1.48749 -0.63749,-2.22498 -0.2,-1.0375 -0.325,-2.31249 -0.4,-3.36248 -0.0875,-1.05 -0.1625,-2.24999 -0.1625,-3.29998 0,-0.9625 0.0625,-1.93749 0.1625,-2.89998 0.0875,-0.95 0.225,-1.89999 0.4,-2.84999 0.14999,-0.86249 0.33749,-1.76248 0.56249,-2.59998 0.15,-0.55 0.3875,-1.21249 0.7,-1.67499 0.1875,-0.2625 0.41249,-0.52499 0.71249,-0.67499 0.225,-0.125 0.5,-0.2125 0.775,-0.225 z" />
      <polygon
         transform="matrix(1.249992,0,0,-1.249992,-266.59829,735.0703)"
         id="polygon32"
         style="font-style:normal;font-variant:normal;font-weight:normal;font-stretch:normal;letter-spacing:normal;word-spacing:normal;text-anchor:start;fill:#ffffff;fill-rule:nonzero;stroke:none;stroke-linecap:butt;stroke-linejoin:miter;stroke-miterlimit:10.43299961;stroke-dasharray:none;stroke-dashoffset:0;stroke-opacity:1"
         points="334.98,576.22 333.86,577.73 336.69,579.81 335.88,580.9 331.86,577.93 336.7,571.38 336.7,571.38 340.72,574.35 339.91,575.44 337.09,573.35 335.78,575.12 337.67,576.52 336.86,577.6 " />
      <polygon
         transform="matrix(1.249992,0,0,-1.249992,-266.59829,735.0703)"
         id="polygon34"
         style="font-style:normal;font-variant:normal;font-weight:normal;font-stretch:normal;letter-spacing:normal;word-spacing:normal;text-anchor:start;fill:#ffffff;fill-rule:nonzero;stroke:none;stroke-linecap:butt;stroke-linejoin:miter;stroke-miterlimit:10.43299961;stroke-dasharray:none;stroke-dashoffset:0;stroke-opacity:1"
         points="342.09,575.14 343.35,575.62 341.43,580.61 345.64,576.51 347.29,577.14 344.37,584.74 343.11,584.26 345.07,579.15 340.78,583.36 339.16,582.74 342.09,575.14 " />
      <polygon
         transform="matrix(1.249992,0,0,-1.249992,-266.59829,735.0703)"
         id="polygon36"
         style="font-style:normal;font-variant:normal;font-weight:normal;font-stretch:normal;letter-spacing:normal;word-spacing:normal;text-anchor:start;fill:#ffffff;fill-rule:nonzero;stroke:none;stroke-linecap:butt;stroke-linejoin:miter;stroke-miterlimit:10.43299961;stroke-dasharray:none;stroke-dashoffset:0;stroke-opacity:1"
         points="365.99,580.23 366.8,581.93 369.97,580.42 370.55,581.65 366.04,583.8 362.54,576.44 362.54,576.44 367.05,574.29 367.63,575.52 364.47,577.02 365.41,579.02 367.53,578.01 368.11,579.23 " />
      <path
         inkscape:connector-curvature="0"
         id="path38"
         style="font-style:normal;font-variant:normal;font-weight:normal;font-stretch:normal;letter-spacing:normal;word-spacing:normal;text-anchor:start;fill:#ffffff;fill-rule:nonzero;stroke:none;stroke-linecap:butt;stroke-linejoin:miter;stroke-miterlimit:10.43299961;stroke-dasharray:none;stroke-dashoffset:0;stroke-opacity:1"
         d="m 147.91156,18.48739 2.21248,1.72499 0,0 c 0.15,0.11249 0.2875,0.24999 0.4125,0.37499 0.375,0.4 0.65,0.85 0.825,1.36249 0.17499,0.5875 0.21249,1.1875 0.0875,1.76249 -0.11249,0.525 -0.34999,1 -0.67499,1.39999 -0.3375,0.45 -0.775,0.8125 -1.27499,1.0625 -0.4875,0.225 -1.0125,0.33749 -1.54999,0.32499 -0.55,-0.0125 -1.125,-0.14999 -1.61249,-0.43749 -0.175,-0.1 -0.35,-0.225 -0.5125,-0.35 l 0,0 -2.78748,-2.17499 0,0 c -0.2,-0.1625 -0.3875,-0.36249 -0.5625,-0.56249 -0.325,-0.375 -0.54999,-0.8375 -0.67499,-1.32499 -0.125,-0.5 -0.15,-1.025 -0.0625,-1.53749 0.1125,-0.575 0.36249,-1.0875 0.72499,-1.54999 0.325,-0.4 0.725,-0.75 1.18749,-0.975 0.4375,-0.2125 0.925,-0.325 1.4125,-0.3375 0.41249,0 0.83749,0.0625 1.22499,0.225 0.0875,0.025 0.175,0.0625 0.25,0.1 l 0,0 -1.1375,1.46249 0,0 c -0.0625,-0.0125 -0.1375,-0.025 -0.1875,-0.025 -0.27499,-0.05 -0.56249,0.0125 -0.81249,0.125 -0.2625,0.1125 -0.475,0.3125 -0.65,0.5375 -0.22499,0.3 -0.36249,0.66249 -0.37499,1.02499 0,0.3125 0.0875,0.625 0.27499,0.875 0.1,0.125 0.2125,0.23749 0.3375,0.32499 l 0,0 3.17498,2.48749 0,0 c 0.1375,0.1 0.3,0.2125 0.4625,0.2625 0.2875,0.1125 0.62499,0.1 0.92499,0 0.3625,-0.1 0.675,-0.3 0.9125,-0.6 0.2125,-0.275 0.3375,-0.625 0.3375,-0.97499 0,-0.3125 -0.1,-0.625 -0.275,-0.875 -0.1,-0.1375 -0.225,-0.2625 -0.3625,-0.3625 l 0,0 -1.06249,-0.84999 -0.9625,1.24999 -1.34999,-1.03749 2.12499,-2.71248 z" />
      <polygon
         transform="matrix(1.249992,0,0,-1.249992,-266.59829,735.0703)"
         id="polygon40"
         style="font-style:normal;font-variant:normal;font-weight:normal;font-stretch:normal;letter-spacing:normal;word-spacing:normal;text-anchor:start;fill:#ffffff;fill-rule:nonzero;stroke:none;stroke-linecap:butt;stroke-linejoin:miter;stroke-miterlimit:10.43299961;stroke-dasharray:none;stroke-dashoffset:0;stroke-opacity:1"
         points="374.79,569.16 380.2,573.25 380.2,573.25 379.3,574.44 372.8,569.54 375.61,565.82 376.69,566.64 " />
      <path
         inkscape:connector-curvature="0"
         id="path42"
         style="font-style:normal;font-variant:normal;font-weight:normal;font-stretch:normal;letter-spacing:normal;word-spacing:normal;text-anchor:start;fill:#ffffff;fill-rule:nonzero;stroke:#ff1721;stroke-width:0;stroke-linecap:butt;stroke-linejoin:miter;stroke-miterlimit:10.43299961;stroke-dasharray:none;stroke-dashoffset:0;stroke-opacity:1"
         d="m 177.83637,12.63742 1.82498,-10.01243 4.33748,0.78749 0,0 c 0.15,0.025 0.33749,0.1 0.48749,0.1625 0.45,0.1875 0.8375,0.4875 1.125,0.8875 0.31249,0.43749 0.47499,0.94999 0.47499,1.48749 0,0.1875 -0.0125,0.37499 -0.05,0.57499 l 0,0 -0.0625,0.3875 0,0 c -0.0375,0.175 -0.0875,0.3625 -0.1375,0.5375 -0.14999,0.37499 -0.36249,0.71249 -0.64999,0.97499 -0.3875,0.375 -0.875,0.6125 -1.39999,0.7 -0.0625,0.0125 -0.1625,0.0375 -0.225,0.0375 l 0,0 1.42499,4.77497 -2.03749,-0.375 -1.39999,-4.76247 -1.08749,-0.2 -0.7875,4.37497 -1.83748,-0.3375 z" />
      <polygon
         transform="matrix(1.249992,0,0,-1.249992,-266.59829,735.0703)"
         id="polygon44"
         style="font-style:normal;font-variant:normal;font-weight:normal;font-stretch:normal;letter-spacing:normal;word-spacing:normal;text-anchor:start;fill:#ffffff;fill-rule:nonzero;stroke:none;stroke-linecap:butt;stroke-linejoin:miter;stroke-miterlimit:10.43299961;stroke-dasharray:none;stroke-dashoffset:0;stroke-opacity:1"
         points="370.38,573.52 374.72,578.73 374.72,578.73 373.57,579.69 368.36,573.43 371.93,570.45 372.8,571.49 " />
      <polygon
         transform="matrix(1.249992,0,0,-1.249992,-266.59829,735.0703)"
         id="polygon46"
         style="font-style:normal;font-variant:normal;font-weight:normal;font-stretch:normal;letter-spacing:normal;word-spacing:normal;text-anchor:start;fill:#ffffff;fill-rule:nonzero;stroke:none;stroke-linecap:butt;stroke-linejoin:miter;stroke-miterlimit:10.43299961;stroke-dasharray:none;stroke-dashoffset:0;stroke-opacity:1"
         points="350.02,582.53 349.85,584.4 353.34,584.72 353.21,586.07 348.19,585.57 348.99,577.5 348.99,577.5 353.97,577.96 353.84,579.32 350.36,579 350.14,581.18 352.48,581.4 352.36,582.75 " />
      <path
         inkscape:connector-curvature="0"
         id="path48"
         style="font-style:normal;font-variant:normal;font-weight:normal;font-stretch:normal;letter-spacing:normal;word-spacing:normal;text-anchor:start;fill:#ff1721;fill-opacity:1;fill-rule:nonzero;stroke:none;stroke-linecap:butt;stroke-linejoin:miter;stroke-miterlimit:10.43299961;stroke-dasharray:none;stroke-dashoffset:0;stroke-opacity:1"
         d="m 180.77385,6.92496 2.24998,0.4125 0,0 c 0.1,0.025 0.2125,0.025 0.3125,0.0125 0.15,0 0.2875,-0.05 0.4,-0.125 0.1375,-0.1 0.225,-0.2125 0.3,-0.3625 0.0375,-0.1 0.075,-0.2 0.1,-0.2875 l 0,0 0.075,-0.3875 0,0 c 0.0125,-0.0875 0.025,-0.19999 0.025,-0.28749 -0.0125,-0.1375 -0.05,-0.2875 -0.12499,-0.4125 -0.0875,-0.15 -0.225,-0.2625 -0.375,-0.35 -0.075,-0.0375 -0.175,-0.0875 -0.25,-0.0875 l 0,0 -2.29999,-0.425 -0.41249,2.29999 z" />
      <path
         inkscape:connector-curvature="0"
         id="path98"
         style="font-style:normal;font-variant:normal;font-weight:normal;font-stretch:normal;letter-spacing:normal;word-spacing:normal;text-anchor:start;fill:#000000;fill-rule:nonzero;stroke:none;stroke-linecap:butt;stroke-linejoin:miter;stroke-miterlimit:10.43299961;stroke-dasharray:none;stroke-dashoffset:0;stroke-opacity:1"
         d="m 173.54889,29.81231 -14.14991,0 0,15.6249 4.16248,0.9875 0,0 c 0.0375,-0.0875 0.075,-0.225 0.1125,-0.325 0.0625,-0.1375 0.15,-0.275 0.22499,-0.4 0.275,-0.4 0.625,-0.73749 1.0375,-0.98749 0.52499,-0.325 1.12499,-0.5 1.73749,-0.5 0.71249,0.0125 1.41249,0.25 1.96248,0.7 0.475,0.41249 0.8375,1.03749 1.075,1.62499 0.2,0.47499 0.3625,0.97499 0.47499,1.49999 0.1375,0.61249 0.2,1.26249 0.2,1.89998 0,0.6 -0.05,1.2 -0.1625,1.78749 -0.1,0.5875 -0.27499,1.175 -0.54999,1.71249 -0.2625,0.5375 -0.6375,1.025 -1.12499,1.38749 -0.5375,0.4 -1.1875,0.625 -1.86249,0.6375 -0.6625,0.0125 -1.31249,-0.175 -1.86249,-0.5375 -0.5125,-0.34999 -0.925,-0.81249 -1.17499,-1.37499 -0.075,-0.15 -0.15,-0.375 -0.2,-0.52499 l 0,0 -4.04998,1.16249 0,0 c 0.0375,0.1625 0.075,0.4 0.125,0.54999 0.125,0.4875 0.4,0.9875 0.675,1.4125 0.4375,0.68749 0.96249,1.32499 1.58749,1.84998 0.64999,0.5375 1.39999,0.95 2.18748,1.25 0.9375,0.34999 1.92499,0.53749 2.91249,0.49999 0.83749,-0.025 1.66249,-0.2125 2.44998,-0.51249 0.78749,-0.3125 1.52499,-0.725 2.17499,-1.275 0.69999,-0.57499 1.26249,-1.28749 1.71249,-2.06248 0.48749,-0.85 0.82499,-1.83749 1.06249,-2.78749 0.2625,-1.03749 0.4375,-2.12498 0.45,-3.19997 0.0125,-1 -0.1375,-2.04999 -0.3375,-3.02499 -0.2,-0.97499 -0.5125,-2.02498 -0.975,-2.91248 -0.43749,-0.83749 -1.02499,-1.59999 -1.72499,-2.22498 -0.71249,-0.625 -1.52499,-1.1125 -2.41248,-1.44999 -0.83749,-0.3125 -1.74999,-0.4875 -2.67498,-0.4875 -0.8625,0 -1.72499,0.15 -2.52499,0.5 -0.1,0.0375 -0.24999,0.1 -0.33749,0.1375 l 0,0 0,-6.59996 9.79993,0 0,-4.03748 z" />
    </g>
  </g>
</svg>
