<?xml version="1.0" encoding="UTF-8" standalone="no"?>
<!-- Created with Inkscape (http://www.inkscape.org/) -->

<svg
   xmlns:dc="http://purl.org/dc/elements/1.1/"
   xmlns:cc="http://creativecommons.org/ns#"
   xmlns:rdf="http://www.w3.org/1999/02/22-rdf-syntax-ns#"
   xmlns:svg="http://www.w3.org/2000/svg"
   xmlns="http://www.w3.org/2000/svg"
   xmlns:sodipodi="http://sodipodi.sourceforge.net/DTD/sodipodi-0.dtd"
   xmlns:inkscape="http://www.inkscape.org/namespaces/inkscape"
   width="25.005203mm"
   height="25.007133mm"
   viewBox="0 0 88.601114 88.607953"
   id="svg4753"
   version="1.1"
   inkscape:version="0.91 r13725"
   sodipodi:docname="60.svg">
  <defs
     id="defs4755" />
  <sodipodi:namedview
     id="base"
     pagecolor="#ffffff"
     bordercolor="#666666"
     borderopacity="1.0"
     inkscape:pageopacity="0.0"
     inkscape:pageshadow="2"
     inkscape:zoom="5.6"
     inkscape:cx="15.115462"
     inkscape:cy="48.328284"
     inkscape:document-units="px"
     inkscape:current-layer="layer1"
     showgrid="false"
     fit-margin-top="0"
     fit-margin-left="0"
     fit-margin-right="0"
     fit-margin-bottom="0"
     inkscape:window-width="1920"
     inkscape:window-height="1017"
     inkscape:window-x="-8"
     inkscape:window-y="-8"
     inkscape:window-maximized="1" />
  <metadata
     id="metadata4758">
    <rdf:RDF>
      <cc:Work
         rdf:about="">
        <dc:format>image/svg+xml</dc:format>
        <dc:type
           rdf:resource="http://purl.org/dc/dcmitype/StillImage" />
        <dc:title />
      </cc:Work>
    </rdf:RDF>
  </metadata>
  <g
     inkscape:label="Calque 1"
     inkscape:groupmode="layer"
     id="layer1"
     transform="translate(-289.98516,-270.91537)">
    <g
       id="g4149">
      <path
         inkscape:connector-curvature="0"
         id="path28"
         style="font-style:normal;font-variant:normal;font-weight:normal;font-stretch:normal;letter-spacing:normal;word-spacing:normal;text-anchor:start;fill:#ff1721;fill-rule:nonzero;stroke:none;stroke-linecap:butt;stroke-linejoin:miter;stroke-miterlimit:10.43299961;stroke-dasharray:none;stroke-dashoffset:0;stroke-opacity:1"
         d="m 346.81758,272.79036 -1.03749,-0.2875 -1.0375,-0.275 -1.03749,-0.23749 -1.03749,-0.225 -1.0375,-0.1875 -1.02499,-0.175 -1.03749,-0.1375 -1.0375,-0.125 -1.02499,-0.0875 -1.02499,-0.075 -1.0375,-0.0375 -1.02499,-0.025 -1.02499,0 -1.0125,0.0375 -1.02499,0.05 -1.025,0.075 -1.01249,0.1125 -1.01249,0.125 -1.0125,0.15 -1.01249,0.1875 -0.99999,0.2 -1,0.225 -0.99999,0.24999 -0.99999,0.2875 -1,0.3 -0.98749,0.325 -0.98749,0.35 -0.9875,0.37499 -0.97499,0.4 -0.975,0.425 -0.97499,0.44999 -0.96249,0.475 c -10.31244,5.18747 -17.67489,13.44992 -21.64986,24.28735 -3.97498,10.83743 -3.71248,21.89986 0.79999,32.52479 4.51247,10.62493 12.26242,18.49988 22.81235,23.18735 24.56235,10.87493 53.07466,-2.46248 60.47462,-28.27482 6.68745,-23.38735 -6.72496,-47.78719 -30.04981,-54.64965 z" />
      <path
         inkscape:connector-curvature="0"
         id="path30"
         style="font-style:normal;font-variant:normal;font-weight:normal;font-stretch:normal;letter-spacing:normal;word-spacing:normal;text-anchor:start;fill:#ffffff;fill-rule:nonzero;stroke:none;stroke-linecap:butt;stroke-linejoin:miter;stroke-miterlimit:10.43299961;stroke-dasharray:none;stroke-dashoffset:0;stroke-opacity:1"
         d="m 342.63011,286.97777 1.43749,0.4625 1.39999,0.52499 1.34999,0.6 1.31249,0.65 1.27499,0.71249 1.22499,0.775 1.175,0.82499 1.13749,0.875 1.07499,0.93749 1.0375,0.97499 0.98749,1.025 0.92499,1.06249 0.875,1.11249 0.82499,1.1375 0.7625,1.18749 0.71249,1.22499 0.65,1.24999 0.5875,1.27499 0.52499,1.3125 0.4625,1.32499 0.4125,1.36249 0.33749,1.37499 0.2625,1.39999 0.2125,1.41249 0.1375,1.42499 0.0625,1.43749 0,1.44999 -0.0875,1.44999 -0.15,1.46249 -0.225,1.4625 -0.29999,1.46249 -0.375,1.46249 c -4.93747,17.21239 -23.93735,26.11233 -40.29974,18.84988 -7.03746,-3.11248 -12.19993,-8.36245 -15.21241,-15.44991 -2.99998,-7.08745 -3.17498,-14.4624 -0.52499,-21.67486 2.64998,-7.22495 7.54995,-12.73741 14.4124,-16.18739 6.87496,-3.46248 14.22491,-4.12498 21.59987,-1.94999 z" />
      <path
         inkscape:connector-curvature="0"
         id="path96"
         style="font-style:normal;font-variant:normal;font-weight:normal;font-stretch:normal;letter-spacing:normal;word-spacing:normal;text-anchor:start;fill:#000000;fill-rule:nonzero;stroke:none;stroke-linecap:butt;stroke-linejoin:miter;stroke-miterlimit:10.43299961;stroke-dasharray:none;stroke-dashoffset:0;stroke-opacity:1"
         d="m 343.9426,300.11519 -0.1,0 -0.1125,0.0125 -0.1,0 -0.1125,0.0125 -0.1125,0.0125 -0.1,0.0125 -0.1125,0.0125 -0.1,0.025 -0.1125,0.0125 -0.1,0.025 -0.11249,0.025 -0.1,0.025 -0.1125,0.025 -0.1,0.025 -0.1,0.025 -0.1,0.025 c -1.38749,0.3875 -2.56249,1.3375 -3.42498,2.48749 -0.7125,0.96249 -1.23749,2.14998 -1.58749,3.28748 -0.35,1.07499 -0.6,2.22498 -0.79999,3.33748 -0.2,1.24999 -0.375,2.56248 -0.425,3.83747 -0.0625,1.23749 0,2.62498 0.0875,3.86248 0.0875,1.24999 0.225,2.58748 0.425,3.82497 0.22499,1.42499 0.56249,2.86248 1.06249,4.21247 0.52499,1.4125 1.34999,2.97499 2.52498,3.89998 1.1,0.86249 2.47499,1.28749 3.86248,1.23749 1.48749,-0.05 2.88748,-0.63749 3.97497,-1.63749 0.975,-0.88749 1.67499,-2.22498 2.16249,-3.44998 0.53749,-1.37499 0.91249,-2.83748 1.17499,-4.28747 0.2375,-1.26249 0.3875,-2.53748 0.475,-3.81247 0.1,-1.37499 0.1125,-2.74999 0.0625,-4.12498 -0.0375,-1.18749 -0.125,-2.39998 -0.3,-3.57497 -0.175,-1.15 -0.425,-2.28749 -0.7875,-3.37498 -0.37499,-1.15 -0.91249,-2.29999 -1.63749,-3.26248 -0.83749,-1.08749 -1.96248,-2.02499 -3.28747,-2.42499 -0.6,-0.175 -1.25,-0.31249 -1.87499,-0.31249 z" />
      <path
         inkscape:connector-curvature="0"
         id="path100"
         style="font-style:normal;font-variant:normal;font-weight:normal;font-stretch:normal;letter-spacing:normal;word-spacing:normal;text-anchor:start;fill:#ffffff;fill-opacity:1;fill-rule:nonzero;stroke:none;stroke-linecap:butt;stroke-linejoin:miter;stroke-miterlimit:10.43299961;stroke-dasharray:none;stroke-dashoffset:0;stroke-opacity:1"
         d="m 343.9801,304.47766 0.0625,0 0.0625,0 0.0625,0 0.0625,0 0.0625,0.0125 0.0625,0.0125 0.0625,0.0125 0.0625,0.0125 0.05,0.0125 0.0625,0.0125 0.0625,0.025 0.0625,0.0125 0.05,0.025 0.0625,0.025 0.0625,0.025 0.05,0.0375 c 0.2875,0.15 0.525,0.42499 0.7,0.68749 0.28749,0.45 0.49999,1.09999 0.63749,1.61249 0.225,0.8875 0.4,1.79999 0.5375,2.69998 0.15,0.9375 0.25,1.88749 0.3125,2.83749 0.0625,0.97499 0.1,1.94998 0.1,2.92498 -0.0125,1.08749 -0.0625,2.18748 -0.15,3.28748 -0.1,1.09999 -0.2625,2.24998 -0.4875,3.32498 -0.175,0.74999 -0.3875,1.49999 -0.68749,2.21248 -0.15,0.3625 -0.3375,0.75 -0.5625,1.07499 -0.1625,0.2125 -0.35,0.425 -0.575,0.575 -0.25,0.15 -0.53749,0.25 -0.82499,0.2625 -0.35,0.025 -0.7,-0.05 -0.9875,-0.25 -0.19999,-0.1375 -0.38749,-0.375 -0.53749,-0.575 -0.2125,-0.33749 -0.4,-0.71249 -0.55,-1.08749 -0.3,-0.68749 -0.5,-1.48749 -0.63749,-2.22498 -0.2,-1.0375 -0.325,-2.31249 -0.4,-3.36248 -0.0875,-1.05 -0.1625,-2.24999 -0.1625,-3.29998 0,-0.9625 0.0625,-1.93749 0.1625,-2.89998 0.0875,-0.95 0.225,-1.89999 0.4,-2.84999 0.14999,-0.86249 0.33749,-1.76248 0.56249,-2.59998 0.15,-0.55 0.3875,-1.21249 0.7,-1.67499 0.1875,-0.2625 0.41249,-0.52499 0.71249,-0.67499 0.225,-0.125 0.5,-0.2125 0.775,-0.225 z" />
      <polygon
         transform="matrix(1.249992,0,0,-1.249992,-107.97951,1005.6857)"
         id="polygon32"
         style="font-style:normal;font-variant:normal;font-weight:normal;font-stretch:normal;letter-spacing:normal;word-spacing:normal;text-anchor:start;fill:#ffffff;fill-rule:nonzero;stroke:none;stroke-linecap:butt;stroke-linejoin:miter;stroke-miterlimit:10.43299961;stroke-dasharray:none;stroke-dashoffset:0;stroke-opacity:1"
         points="336.69,579.81 335.88,580.9 331.86,577.93 336.7,571.38 336.7,571.38 340.72,574.35 339.91,575.44 337.09,573.35 335.78,575.12 337.67,576.52 336.86,577.6 334.98,576.22 333.86,577.73 " />
      <polygon
         transform="matrix(1.249992,0,0,-1.249992,-107.97951,1005.6857)"
         id="polygon34"
         style="font-style:normal;font-variant:normal;font-weight:normal;font-stretch:normal;letter-spacing:normal;word-spacing:normal;text-anchor:start;fill:#ffffff;fill-rule:nonzero;stroke:none;stroke-linecap:butt;stroke-linejoin:miter;stroke-miterlimit:10.43299961;stroke-dasharray:none;stroke-dashoffset:0;stroke-opacity:1"
         points="341.43,580.61 345.64,576.51 347.29,577.14 344.37,584.74 343.11,584.26 345.07,579.15 340.78,583.36 339.16,582.74 342.09,575.14 342.09,575.14 343.35,575.62 " />
      <polygon
         transform="matrix(1.249992,0,0,-1.249992,-107.97951,1005.6857)"
         id="polygon36"
         style="font-style:normal;font-variant:normal;font-weight:normal;font-stretch:normal;letter-spacing:normal;word-spacing:normal;text-anchor:start;fill:#ffffff;fill-rule:nonzero;stroke:none;stroke-linecap:butt;stroke-linejoin:miter;stroke-miterlimit:10.43299961;stroke-dasharray:none;stroke-dashoffset:0;stroke-opacity:1"
         points="369.97,580.42 370.55,581.65 366.04,583.8 362.54,576.44 362.54,576.44 367.05,574.29 367.63,575.52 364.47,577.02 365.41,579.02 367.53,578.01 368.11,579.23 365.99,580.23 366.8,581.93 " />
      <path
         inkscape:connector-curvature="0"
         id="path38"
         style="font-style:normal;font-variant:normal;font-weight:normal;font-stretch:normal;letter-spacing:normal;word-spacing:normal;text-anchor:start;fill:#ffffff;fill-rule:nonzero;stroke:none;stroke-linecap:butt;stroke-linejoin:miter;stroke-miterlimit:10.43299961;stroke-dasharray:none;stroke-dashoffset:0;stroke-opacity:1"
         d="m 306.53034,289.10276 2.21248,1.72499 0,0 c 0.15,0.11249 0.2875,0.24999 0.4125,0.37499 0.375,0.4 0.65,0.85 0.825,1.36249 0.17499,0.5875 0.21249,1.1875 0.0875,1.76249 -0.11249,0.525 -0.34999,1 -0.67499,1.39999 -0.3375,0.45 -0.775,0.8125 -1.27499,1.0625 -0.4875,0.225 -1.0125,0.33749 -1.54999,0.32499 -0.55,-0.0125 -1.125,-0.14999 -1.61249,-0.43749 -0.175,-0.1 -0.35,-0.225 -0.5125,-0.35 l 0,0 -2.78748,-2.17499 0,0 c -0.2,-0.1625 -0.3875,-0.36249 -0.5625,-0.56249 -0.325,-0.375 -0.54999,-0.8375 -0.67499,-1.32499 -0.125,-0.5 -0.15,-1.025 -0.0625,-1.53749 0.1125,-0.575 0.36249,-1.0875 0.72499,-1.54999 0.325,-0.4 0.725,-0.75 1.18749,-0.975 0.4375,-0.2125 0.925,-0.325 1.4125,-0.3375 0.41249,0 0.83749,0.0625 1.22499,0.225 0.0875,0.025 0.175,0.0625 0.25,0.1 l 0,0 -1.1375,1.46249 0,0 c -0.0625,-0.0125 -0.1375,-0.025 -0.1875,-0.025 -0.27499,-0.05 -0.56249,0.0125 -0.81249,0.125 -0.2625,0.1125 -0.475,0.3125 -0.65,0.5375 -0.22499,0.3 -0.36249,0.66249 -0.37499,1.02499 0,0.3125 0.0875,0.625 0.27499,0.875 0.1,0.125 0.2125,0.23749 0.3375,0.32499 l 0,0 3.17498,2.48749 0,0 c 0.1375,0.1 0.3,0.2125 0.4625,0.2625 0.2875,0.1125 0.62499,0.1 0.92499,0 0.3625,-0.1 0.675,-0.3 0.9125,-0.6 0.2125,-0.275 0.3375,-0.625 0.3375,-0.97499 0,-0.3125 -0.1,-0.625 -0.275,-0.875 -0.1,-0.1375 -0.225,-0.2625 -0.3625,-0.3625 l 0,0 -1.06249,-0.84999 -0.9625,1.24999 -1.34999,-1.03749 2.12499,-2.71248 z" />
      <polygon
         transform="matrix(1.249992,0,0,-1.249992,-107.97951,1005.6857)"
         id="polygon40"
         style="font-style:normal;font-variant:normal;font-weight:normal;font-stretch:normal;letter-spacing:normal;word-spacing:normal;text-anchor:start;fill:#ffffff;fill-rule:nonzero;stroke:none;stroke-linecap:butt;stroke-linejoin:miter;stroke-miterlimit:10.43299961;stroke-dasharray:none;stroke-dashoffset:0;stroke-opacity:1"
         points="380.2,573.25 379.3,574.44 372.8,569.54 375.61,565.82 376.69,566.64 374.79,569.16 380.2,573.25 " />
      <path
         inkscape:connector-curvature="0"
         id="path42"
         style="font-style:normal;font-variant:normal;font-weight:normal;font-stretch:normal;letter-spacing:normal;word-spacing:normal;text-anchor:start;fill:#ffffff;fill-rule:nonzero;stroke:#ff1721;stroke-width:0;stroke-linecap:butt;stroke-linejoin:miter;stroke-miterlimit:10.43299961;stroke-dasharray:none;stroke-dashoffset:0;stroke-opacity:1"
         d="m 336.45515,283.25279 1.82498,-10.01243 4.33748,0.78749 0,0 c 0.15,0.025 0.33749,0.1 0.48749,0.1625 0.45,0.1875 0.8375,0.4875 1.125,0.8875 0.31249,0.43749 0.47499,0.94999 0.47499,1.48749 0,0.1875 -0.0125,0.37499 -0.05,0.57499 l 0,0 -0.0625,0.3875 0,0 c -0.0375,0.175 -0.0875,0.3625 -0.1375,0.5375 -0.14999,0.37499 -0.36249,0.71249 -0.64999,0.97499 -0.3875,0.375 -0.875,0.6125 -1.39999,0.7 -0.0625,0.0125 -0.1625,0.0375 -0.225,0.0375 l 0,0 1.42499,4.77497 -2.03749,-0.375 -1.39999,-4.76247 -1.08749,-0.2 -0.7875,4.37497 -1.83748,-0.3375 z" />
      <polygon
         transform="matrix(1.249992,0,0,-1.249992,-107.97951,1005.6857)"
         id="polygon44"
         style="font-style:normal;font-variant:normal;font-weight:normal;font-stretch:normal;letter-spacing:normal;word-spacing:normal;text-anchor:start;fill:#ffffff;fill-rule:nonzero;stroke:none;stroke-linecap:butt;stroke-linejoin:miter;stroke-miterlimit:10.43299961;stroke-dasharray:none;stroke-dashoffset:0;stroke-opacity:1"
         points="374.72,578.73 373.57,579.69 368.36,573.43 371.93,570.45 372.8,571.49 370.38,573.52 374.72,578.73 " />
      <polygon
         transform="matrix(1.249992,0,0,-1.249992,-107.97951,1005.6857)"
         id="polygon46"
         style="font-style:normal;font-variant:normal;font-weight:normal;font-stretch:normal;letter-spacing:normal;word-spacing:normal;text-anchor:start;fill:#ffffff;fill-rule:nonzero;stroke:none;stroke-linecap:butt;stroke-linejoin:miter;stroke-miterlimit:10.43299961;stroke-dasharray:none;stroke-dashoffset:0;stroke-opacity:1"
         points="353.34,584.72 353.21,586.07 348.19,585.57 348.99,577.5 348.99,577.5 353.97,577.96 353.84,579.32 350.36,579 350.14,581.18 352.48,581.4 352.36,582.75 350.02,582.53 349.85,584.4 " />
      <path
         inkscape:connector-curvature="0"
         id="path48"
         style="font-style:normal;font-variant:normal;font-weight:normal;font-stretch:normal;letter-spacing:normal;word-spacing:normal;text-anchor:start;fill:#ff1721;fill-opacity:1;fill-rule:nonzero;stroke:none;stroke-linecap:butt;stroke-linejoin:miter;stroke-miterlimit:10.43299961;stroke-dasharray:none;stroke-dashoffset:0;stroke-opacity:1"
         d="m 339.39263,277.54033 2.24998,0.4125 0,0 c 0.1,0.025 0.2125,0.025 0.3125,0.0125 0.15,0 0.2875,-0.05 0.4,-0.125 0.1375,-0.1 0.225,-0.2125 0.3,-0.3625 0.0375,-0.1 0.075,-0.2 0.1,-0.2875 l 0,0 0.075,-0.3875 0,0 c 0.0125,-0.0875 0.025,-0.19999 0.025,-0.28749 -0.0125,-0.1375 -0.05,-0.2875 -0.12499,-0.4125 -0.0875,-0.15 -0.225,-0.2625 -0.375,-0.35 -0.075,-0.0375 -0.175,-0.0875 -0.25,-0.0875 l 0,0 -2.29999,-0.425 -0.41249,2.29999 z" />
      <g
         id="g4155"
         transform="matrix(0.84192032,0,0,0.80490196,291.16619,273.34252)">
        <path
           d="m 45.649676,33.649823 2.649983,4.324973 0,0 c -0.124999,0.075 -0.262498,0.149999 -0.374998,0.224998 -0.637496,0.387498 -1.249992,0.824995 -1.824988,1.287492 -0.624996,0.512497 -1.212492,1.062493 -1.762489,1.63749 -0.549996,0.562496 -1.087493,1.187492 -1.58749,1.774988 -0.537496,0.649996 -1.162492,1.449991 -1.612489,2.162486 -0.362498,0.562497 -0.837495,1.487491 -1.137493,2.087487 l 0,0 -0.174999,0.337498 0,0 c 0.174999,-0.0125 0.462497,-0.0375 0.649996,-0.0375 0.824995,-0.0375 1.649989,0.025 2.437484,0.187499 0.787495,0.162499 1.54999,0.424997 2.237486,0.812495 1.474991,0.824994 2.612483,2.187486 3.424978,3.674976 0.762495,1.424991 1.224992,3.012481 1.412491,4.63747 0.187499,1.487491 0.149999,3.037481 -0.025,4.524971 -0.162499,1.499991 -0.499997,3.12498 -1.124993,4.487472 -0.774995,1.662489 -1.987487,3.13748 -3.574977,4.049974 -1.362491,0.774995 -2.924981,1.124993 -4.499971,0.999993 -1.424991,-0.1 -2.799982,-0.574996 -3.999974,-1.374991 -1.187493,-0.799995 -2.162486,-1.899988 -2.874982,-3.13748 -0.774995,-1.287491 -1.274992,-2.749982 -1.58749,-4.212473 -0.299998,-1.48749 -0.437497,-2.987481 -0.399997,-4.499971 0.025,-1.687489 0.262498,-3.374978 0.624996,-5.012468 0.262498,-1.187492 0.587496,-2.362485 0.999993,-3.512477 0.474997,-1.374992 1.074994,-2.712483 1.762489,-4.012475 0.787495,-1.48749 1.712489,-2.924981 2.699983,-4.287472 0.999993,-1.374991 2.124986,-2.737483 3.349978,-3.912475 1.112493,-1.049993 2.324986,-1.987487 3.637477,-2.799982 0.199999,-0.137499 0.474997,-0.287498 0.674996,-0.412498 z"
           style="font-style:normal;font-variant:normal;font-weight:normal;font-stretch:normal;letter-spacing:normal;word-spacing:normal;text-anchor:start;fill:#000000;fill-opacity:1;fill-rule:nonzero;stroke:#000000;stroke-width:0;stroke-linecap:butt;stroke-linejoin:miter;stroke-miterlimit:10.43299961;stroke-dasharray:none;stroke-dashoffset:0;stroke-opacity:1"
           id="path16"
           inkscape:connector-curvature="0" />
        <path
           d="m 40.999706,52.112205 0.075,0 0.075,0 0.075,0 0.075,0.0125 0.075,0.0125 0.075,0 0.0875,0.0125 0.075,0.0125 0.075,0.025 0.0625,0.0125 0.149999,0.0375 0.149999,0.05 0.137499,0.05 0.149999,0.0625 0.137499,0.0625 0.137499,0.0625 0.124999,0.0875 0.1375,0.075 0.124999,0.0875 0.124999,0.0875 0.112499,0.1 c 0.537497,0.437497 0.887495,1.137492 1.112493,1.787488 0.224999,0.687496 0.374998,1.58749 0.474997,2.299986 0.0875,0.649995 0.187499,1.47499 0.199999,2.124986 0,0.687496 0,1.53749 -0.112499,2.212486 -0.374998,2.112486 -1.462491,4.524971 -3.949975,4.387472 -2.224986,-0.1125 -3.19998,-2.199986 -3.637477,-4.124974 -0.149999,-0.612496 -0.262498,-1.49999 -0.312498,-2.124986 -0.0875,-0.824995 -0.05,-1.64999 0.075,-2.462484 0.124999,-0.787495 0.337497,-1.56249 0.637496,-2.312486 0.262498,-0.662495 0.687495,-1.44999 1.262491,-1.887488 0.574997,-0.437497 1.287492,-0.737495 2.012488,-0.749995 z"
           style="font-style:normal;font-variant:normal;font-weight:normal;font-stretch:normal;letter-spacing:normal;word-spacing:normal;text-anchor:start;fill:#ffffff;fill-opacity:1;fill-rule:nonzero;stroke:#ffffff;stroke-width:0;stroke-linecap:butt;stroke-linejoin:miter;stroke-miterlimit:10.43299961;stroke-dasharray:none;stroke-dashoffset:0;stroke-opacity:1"
           id="path20"
           inkscape:connector-curvature="0" />
      </g>
    </g>
  </g>
</svg>
