<?xml version="1.0" encoding="UTF-8" standalone="no"?>
<!-- Created with Inkscape (http://www.inkscape.org/) -->

<svg
   xmlns:dc="http://purl.org/dc/elements/1.1/"
   xmlns:cc="http://creativecommons.org/ns#"
   xmlns:rdf="http://www.w3.org/1999/02/22-rdf-syntax-ns#"
   xmlns:svg="http://www.w3.org/2000/svg"
   xmlns="http://www.w3.org/2000/svg"
   xmlns:sodipodi="http://sodipodi.sourceforge.net/DTD/sodipodi-0.dtd"
   xmlns:inkscape="http://www.inkscape.org/namespaces/inkscape"
   width="24.997675mm"
   height="25.004728mm"
   viewBox="0 0 88.574439 88.599431"
   id="svg5943"
   version="1.1"
   inkscape:version="0.91 r13725"
   sodipodi:docname="80.svg">
  <defs
     id="defs5945" />
  <sodipodi:namedview
     id="base"
     pagecolor="#ffffff"
     bordercolor="#666666"
     borderopacity="1.0"
     inkscape:pageopacity="0.0"
     inkscape:pageshadow="2"
     inkscape:zoom="0.35"
     inkscape:cx="-292.14135"
     inkscape:cy="-141.41457"
     inkscape:document-units="px"
     inkscape:current-layer="layer1"
     showgrid="false"
     fit-margin-top="0"
     fit-margin-left="0"
     fit-margin-right="0"
     fit-margin-bottom="0"
     inkscape:window-width="1920"
     inkscape:window-height="1017"
     inkscape:window-x="-8"
     inkscape:window-y="-8"
     inkscape:window-maximized="1" />
  <metadata
     id="metadata5948">
    <rdf:RDF>
      <cc:Work
         rdf:about="">
        <dc:format>image/svg+xml</dc:format>
        <dc:type
           rdf:resource="http://purl.org/dc/dcmitype/StillImage" />
        <dc:title></dc:title>
      </cc:Work>
    </rdf:RDF>
  </metadata>
  <g
     inkscape:label="Calque 1"
     inkscape:groupmode="layer"
     id="layer1"
     transform="translate(-224.28421,-302.3482)">
    <g
       transform="translate(92.910047,178.01149)"
       id="g4923">
      <path
         inkscape:connector-curvature="0"
         id="path50"
         style="font-style:normal;font-variant:normal;font-weight:normal;font-stretch:normal;letter-spacing:normal;word-spacing:normal;text-anchor:start;fill:#ff1721;fill-rule:nonzero;stroke:none;stroke-linecap:butt;stroke-linejoin:miter;stroke-miterlimit:10.43299961;stroke-dasharray:none;stroke-dashoffset:0;stroke-opacity:1"
         d="m 175.66138,124.33671 -2.27499,0.0625 -2.24998,0.175 -2.21249,0.275 -2.18748,0.38749 -2.13749,0.5 -2.11249,0.6 -2.04998,0.68749 -2.01249,0.8 -1.96249,0.88749 -1.91249,0.97499 -1.84998,1.0625 -1.79999,1.16249 -1.73749,1.22499 -1.67499,1.32499 -1.59999,1.3875 -1.53749,1.46249 -1.47499,1.53749 -1.38749,1.61249 -1.31249,1.67498 -1.2375,1.73749 -1.14999,1.79999 -1.06249,1.84999 -0.98749,1.91249 -0.8875,1.96249 -0.78749,2.01248 -0.7,2.04999 -0.6,2.11249 -0.48749,2.13748 -0.3875,2.18749 -0.2875,2.21248 -0.1625,2.24999 -0.0625,2.27499 c 0,24.46234 19.82488,44.29971 44.28722,44.29971 24.46234,0 44.28722,-19.83737 44.28722,-44.29971 0,-24.46235 -19.82488,-44.29972 -44.28722,-44.29972 z" />
      <path
         inkscape:connector-curvature="0"
         id="path52"
         style="font-style:normal;font-variant:normal;font-weight:normal;font-stretch:normal;letter-spacing:normal;word-spacing:normal;text-anchor:start;fill:#ffffff;fill-rule:nonzero;stroke:none;stroke-linecap:butt;stroke-linejoin:miter;stroke-miterlimit:10.43299961;stroke-dasharray:none;stroke-dashoffset:0;stroke-opacity:1"
         d="m 175.66138,139.09911 -1.51249,0.0375 -1.49999,0.125 -1.47499,0.1875 -1.46249,0.25 -1.42499,0.3375 -1.39999,0.4 -1.375,0.46249 -1.33749,0.525 -1.31249,0.5875 -1.27499,0.66249 -1.22499,0.7 -1.19999,0.77499 -1.1625,0.825 -1.11249,0.87499 -1.07499,0.925 -1.025,0.97499 -0.97499,1.03749 -0.92499,1.0625 -0.8875,1.12499 -0.81249,1.14999 -0.775,1.19999 -0.71249,1.2375 -0.65,1.27499 -0.5875,1.31249 -0.53749,1.33749 -0.4625,1.37499 -0.4,1.39999 -0.325,1.42499 -0.26249,1.44999 -0.1875,1.48749 -0.1125,1.49999 -0.0375,1.5125 c 0,16.29989 13.22491,29.53731 29.52481,29.53731 16.3124,0 29.52481,-13.23742 29.52481,-29.53731 0,-16.3124 -13.21241,-29.53732 -29.52481,-29.53732 z" />
      <path
         inkscape:connector-curvature="0"
         id="path72"
         style="font-style:normal;font-variant:normal;font-weight:normal;font-stretch:normal;letter-spacing:normal;word-spacing:normal;text-anchor:start;fill:#000000;fill-rule:nonzero;stroke:none;stroke-linecap:butt;stroke-linejoin:miter;stroke-miterlimit:10.43299961;stroke-dasharray:none;stroke-dashoffset:0;stroke-opacity:1"
         d="m 166.66144,152.86153 0.05,0.0125 0.05,0 0.1,0 0.1125,0 0.11249,0.0125 0.1125,0 0.125,0.0125 0.1125,0.0125 0.125,0 0.1125,0.0125 0.125,0.0125 0.1125,0.0125 0.1125,0.0125 0.1125,0.0125 0.1125,0.0125 0.05,0.0125 0.05,0 0.05,0.0125 0.05,0.0125 c 0.61249,0.12499 1.19999,0.34999 1.76248,0.66249 1.175,0.675 2.13749,1.69999 2.73749,2.93748 0.49999,1.0125 0.72499,2.14999 0.74999,3.27498 0.025,1.09999 -0.15,2.21249 -0.52499,3.24998 -0.3125,0.88749 -0.7875,1.71249 -1.3625,2.46248 -0.075,0.1125 -0.19999,0.2625 -0.28749,0.375 0.0625,0.075 0.17499,0.2 0.22499,0.2875 0.85,1.14999 1.57499,2.39998 2.04999,3.74998 0.475,1.34999 0.725,2.77498 0.7875,4.21247 0.0375,1.12499 -0.025,2.28748 -0.3125,3.36248 -0.3,1.12499 -0.825,2.17498 -1.56249,3.06248 -0.7125,0.83749 -1.61249,1.51249 -2.61248,1.97499 -1.05,0.51249 -2.19999,0.79999 -3.37498,0.81249 -1.1125,0 -2.22499,-0.2375 -3.23748,-0.6875 -1.05,-0.47499 -1.97499,-1.14999 -2.71249,-2.02498 -0.72499,-0.8375 -1.26249,-1.82499 -1.58749,-2.89998 -0.34999,-1.175 -0.42499,-2.51249 -0.37499,-3.74998 0.075,-1.44999 0.325,-2.93748 0.83749,-4.29997 0.45,-1.24999 1.09999,-2.41249 1.91249,-3.46248 0.0625,-0.0875 0.1625,-0.2125 0.225,-0.2875 -0.0375,-0.075 -0.1375,-0.1875 -0.1875,-0.25 -0.675,-0.82499 -1.17499,-1.79999 -1.51249,-2.82498 -0.325,-0.97499 -0.5,-1.99999 -0.4875,-3.02498 0,-1.19999 0.25,-2.41248 0.8125,-3.47498 0.73749,-1.37499 1.92498,-2.43748 3.36248,-3.04998 0.49999,-0.2125 0.99999,-0.35 1.52499,-0.43749 0.38749,-0.0625 0.96249,-0.0875 1.36249,-0.1125 z" />
      <path
         inkscape:connector-curvature="0"
         id="path68"
         style="font-style:normal;font-variant:normal;font-weight:normal;font-stretch:normal;letter-spacing:normal;word-spacing:normal;text-anchor:start;fill:#ffffff;fill-rule:nonzero;stroke:none;stroke-linecap:butt;stroke-linejoin:miter;stroke-miterlimit:10.43299961;stroke-dasharray:none;stroke-dashoffset:0;stroke-opacity:1"
         d="m 166.63644,157.0865 0.0625,0 0.0625,0 0.0625,0 0.0625,0 0.0625,0.0125 0.0625,0.0125 0.0625,0 0.0625,0.0125 0.0625,0.0125 0.0625,0.025 0.0625,0.0125 0.05,0.0125 0.0625,0.025 0.0625,0.0125 0.1125,0.05 0.1125,0.05 0.1125,0.05 0.1125,0.0625 0.1125,0.0625 0.1,0.075 0.1125,0.075 0.1,0.075 0.0875,0.075 c 0.53749,0.475 0.81249,1.175 0.86249,1.87499 0.025,0.55 -0.1125,1.1625 -0.2875,1.68749 -0.15,0.4375 -0.325,0.85 -0.52499,1.24999 -0.1625,0.325 -0.4,0.7125 -0.675,0.95 -0.325,0.275 -0.75,0.4125 -1.18749,0.4125 -0.4375,0 -0.85,-0.15 -1.1875,-0.4375 -0.22499,-0.1875 -0.42499,-0.5 -0.58749,-0.75 -0.2625,-0.44999 -0.5,-0.93749 -0.675,-1.43749 -0.175,-0.51249 -0.2875,-1.08749 -0.25,-1.62499 0.05,-0.67499 0.3,-1.34999 0.7875,-1.81249 0.5125,-0.49999 1.18749,-0.82499 1.89999,-0.82499 z" />
      <path
         inkscape:connector-curvature="0"
         id="path70"
         style="font-style:normal;font-variant:normal;font-weight:normal;font-stretch:normal;letter-spacing:normal;word-spacing:normal;text-anchor:start;fill:#ffffff;fill-rule:nonzero;stroke:none;stroke-linecap:butt;stroke-linejoin:miter;stroke-miterlimit:10.43299961;stroke-dasharray:none;stroke-dashoffset:0;stroke-opacity:1"
         d="m 166.66144,168.32393 0.075,0.0125 0.075,0.0125 0.075,0.0125 0.075,0.0125 0.075,0.0125 0.075,0.025 0.0625,0.025 0.075,0.025 0.075,0.025 0.0625,0.0375 0.075,0.025 0.0625,0.0375 0.0625,0.0375 0.075,0.0375 0.0625,0.05 0.0625,0.0375 c 0.225,0.1625 0.4375,0.4375 0.5875,0.6625 0.34999,0.5 0.63749,1.03749 0.87499,1.59999 0.3375,0.79999 0.6,1.63749 0.7375,2.49998 0.14999,0.85 0.19999,1.76249 0.025,2.58749 -0.15,0.72499 -0.45,1.43749 -0.9625,1.97498 -0.61249,0.65 -1.44999,1.025 -2.34998,1.0625 -0.9875,0.05 -1.96249,-0.3375 -2.64999,-1.0625 -0.52499,-0.53749 -0.83749,-1.23749 -0.97499,-1.97498 -0.1625,-0.8125 -0.0875,-1.77499 0.0625,-2.58749 0.1375,-0.84999 0.35,-1.69999 0.6375,-2.51248 0.21249,-0.5875 0.51249,-1.28749 0.92499,-1.76249 0.2375,-0.2625 0.5125,-0.5125 0.83749,-0.66249 0.35,-0.15 0.7375,-0.2625 1.125,-0.25 z" />
      <path
         inkscape:connector-curvature="0"
         id="path76"
         style="font-style:normal;font-variant:normal;font-weight:normal;font-stretch:normal;letter-spacing:normal;word-spacing:normal;text-anchor:start;fill:#000000;fill-rule:nonzero;stroke:none;stroke-linecap:butt;stroke-linejoin:miter;stroke-miterlimit:10.43299961;stroke-dasharray:none;stroke-dashoffset:0;stroke-opacity:1"
         d="m 185.01132,152.86153 0.1125,0.0125 0.125,0 0.1125,0 0.125,0.0125 0.125,0.0125 0.1125,0.025 0.12499,0.0125 0.1125,0.025 0.125,0.0125 0.125,0.025 0.1125,0.025 0.125,0.025 0.1125,0.0375 0.1125,0.025 0.125,0.0375 0.1125,0.025 c 1.33749,0.4 2.47498,1.35 3.31248,2.46249 0.73749,0.96249 1.27499,2.12498 1.64999,3.27498 0.37499,1.11249 0.62499,2.26248 0.79999,3.41248 0.175,1.18749 0.2625,2.42498 0.3125,3.62497 0.0375,1.38749 0.025,2.77498 -0.075,4.16248 -0.0875,1.29999 -0.25,2.57498 -0.475,3.86247 -0.2625,1.46249 -0.64999,2.93748 -1.18749,4.31247 -0.4875,1.25 -1.19999,2.59999 -2.18749,3.49998 -1.09999,1.01249 -2.51248,1.59999 -4.01247,1.64999 -1.39999,0.05 -2.79998,-0.375 -3.91248,-1.24999 -1.18749,-0.9375 -2.02498,-2.51249 -2.54998,-3.93748 -0.5,-1.36249 -0.84999,-2.81248 -1.07499,-4.24997 -0.2125,-1.26249 -0.3375,-2.61248 -0.425,-3.87497 -0.0875,-1.25 -0.15,-2.64999 -0.0875,-3.89998 0.0375,-1.28749 0.2125,-2.62498 0.4375,-3.88747 0.1875,-1.1 0.45,-2.28749 0.78749,-3.36248 0.3625,-1.15 0.8875,-2.34999 1.61249,-3.32498 0.8625,-1.14999 2.06249,-2.11249 3.46248,-2.51249 0.5375,-0.14999 1.13749,-0.27499 1.71249,-0.27499 z" />
      <path
         inkscape:connector-curvature="0"
         id="path74"
         style="font-style:normal;font-variant:normal;font-weight:normal;font-stretch:normal;letter-spacing:normal;word-spacing:normal;text-anchor:start;fill:#ffffff;fill-rule:nonzero;stroke:none;stroke-linecap:butt;stroke-linejoin:miter;stroke-miterlimit:10.43299961;stroke-dasharray:none;stroke-dashoffset:0;stroke-opacity:1"
         d="m 185.03632,157.2615 0.0625,0 0.0625,0 0.0625,0 0.0625,0 0.0625,0.0125 0.0625,0.0125 0.0625,0.0125 0.0625,0.0125 0.0625,0.0125 0.0625,0.0125 0.0625,0.025 0.0625,0.025 0.0625,0.0125 0.05,0.025 0.0625,0.0375 0.05,0.025 c 0.3,0.15 0.5375,0.42499 0.7125,0.69999 0.3,0.4625 0.5,1.1 0.63749,1.62499 0.2375,0.9 0.4125,1.82499 0.55,2.73748 0.15,0.9375 0.25,1.89999 0.3125,2.86249 0.0625,0.97499 0.1125,1.96248 0.1,2.94998 -0.0125,1.09999 -0.0625,2.21248 -0.15,3.32498 -0.1,1.11249 -0.2625,2.27498 -0.5,3.36247 -0.1625,0.75 -0.38749,1.51249 -0.67499,2.23749 -0.1625,0.3625 -0.35,0.75 -0.5875,1.08749 -0.15,0.2125 -0.35,0.425 -0.575,0.575 -0.24999,0.1625 -0.53749,0.25 -0.83749,0.275 -0.35,0.0125 -0.7125,-0.0625 -0.99999,-0.2625 -0.2,-0.1375 -0.3875,-0.375 -0.525,-0.5875 -0.225,-0.33749 -0.4125,-0.71249 -0.575,-1.08749 -0.28749,-0.7 -0.49999,-1.49999 -0.63749,-2.24999 -0.2,-1.06249 -0.325,-2.33748 -0.4125,-3.39997 -0.075,-1.0625 -0.1625,-2.27499 -0.1625,-3.32498 0,-0.975 0.0625,-1.96249 0.1625,-2.93748 0.1,-0.9625 0.2375,-1.92499 0.4125,-2.88749 0.15,-0.87499 0.3375,-1.77498 0.57499,-2.63748 0.15,-0.55 0.3875,-1.19999 0.7,-1.67499 0.1875,-0.2625 0.425,-0.53749 0.71249,-0.68749 0.2375,-0.1125 0.5125,-0.2125 0.7875,-0.225 z" />
    </g>
  </g>
</svg>
