<?xml version="1.0" encoding="UTF-8" standalone="no"?>
<!-- Created with Inkscape (http://www.inkscape.org/) -->

<svg
   xmlns:dc="http://purl.org/dc/elements/1.1/"
   xmlns:cc="http://creativecommons.org/ns#"
   xmlns:rdf="http://www.w3.org/1999/02/22-rdf-syntax-ns#"
   xmlns:svg="http://www.w3.org/2000/svg"
   xmlns="http://www.w3.org/2000/svg"
   xmlns:sodipodi="http://sodipodi.sourceforge.net/DTD/sodipodi-0.dtd"
   xmlns:inkscape="http://www.inkscape.org/namespaces/inkscape"
   width="17.649359mm"
   height="25.004728mm"
   viewBox="0 0 62.537098 88.599431"
   id="svg6528"
   version="1.1"
   inkscape:version="0.91 r13725"
   sodipodi:docname="small_highway.svg">
  <defs
     id="defs6530" />
  <sodipodi:namedview
     id="base"
     pagecolor="#ffffff"
     bordercolor="#666666"
     borderopacity="1.0"
     inkscape:pageopacity="0.0"
     inkscape:pageshadow="2"
     inkscape:zoom="0.35"
     inkscape:cx="-411.58859"
     inkscape:cy="44.299713"
     inkscape:document-units="px"
     inkscape:current-layer="layer1"
     showgrid="false"
     fit-margin-top="0"
     fit-margin-left="0"
     fit-margin-right="0"
     fit-margin-bottom="0"
     inkscape:window-width="1920"
     inkscape:window-height="1017"
     inkscape:window-x="-8"
     inkscape:window-y="-8"
     inkscape:window-maximized="1" />
  <metadata
     id="metadata6533">
    <rdf:RDF>
      <cc:Work
         rdf:about="">
        <dc:format>image/svg+xml</dc:format>
        <dc:type
           rdf:resource="http://purl.org/dc/dcmitype/StillImage" />
        <dc:title></dc:title>
      </cc:Work>
    </rdf:RDF>
  </metadata>
  <g
     inkscape:label="Calque 1"
     inkscape:groupmode="layer"
     id="layer1"
     transform="translate(-343.73145,-488.06248)">
    <g
       transform="translate(328.36904,239.68907)"
       id="g4936">
      <polygon
         transform="matrix(1.249992,0,0,-1.249992,-266.59829,735.0703)"
         id="polygon128"
         style="font-style:normal;font-variant:normal;font-weight:normal;font-stretch:normal;letter-spacing:normal;word-spacing:normal;text-anchor:start;fill:#027646;fill-opacity:1;fill-rule:nonzero;stroke:none;stroke-linecap:butt;stroke-linejoin:miter;stroke-miterlimit:10.43299961;stroke-dasharray:none;stroke-dashoffset:0;stroke-opacity:1"
         points="225.57,389.36 225.57,318.48 225.57,318.48 275.6,318.48 275.6,389.36 " />
      <path
         inkscape:connector-curvature="0"
         id="path126"
         style="font-style:normal;font-variant:normal;font-weight:normal;font-stretch:normal;letter-spacing:normal;word-spacing:normal;text-anchor:start;fill:#ffffff;fill-rule:nonzero;stroke:none;stroke-linecap:butt;stroke-linejoin:miter;stroke-miterlimit:10.43299961;stroke-dasharray:none;stroke-dashoffset:0;stroke-opacity:1"
         d="m 67.262069,299.49809 0,0 1.66249,0.0125 0,0 c 0.075,0 0.3,0 0.3625,-0.0125 0.15,-0.05 0.2875,-0.15 0.375,-0.275 0.1,-0.1625 0.1375,-0.375 0.15,-0.55 0.0125,-0.1875 -0.0125,-0.53749 -0.025,-0.72499 -0.0625,-0.5875 -0.075,-1.19999 -0.0625,-1.82499 0.0125,-0.55 0.0625,-1.13749 0.1,-1.69999 0.075,-0.6375 0.15,-1.31249 0.2375,-1.94999 0.075,-0.58749 0.16249,-1.24999 0.27499,-1.83749 0.0875,-0.52499 0.275,-1.61249 0.25,-2.14998 -0.025,-0.7 -0.25,-1.39999 -0.58749,-2.02499 -0.325,-0.6 -0.775,-1.12499 -1.3125,-1.52499 -0.39999,-0.2875 -0.83749,-0.5125 -1.28749,-0.66249 -0.1375,-0.05 -0.3375,-0.125 -0.47499,-0.1625 l 0,0 -6.78746,-8.93745 0,0 c -0.0125,-0.025 -0.2375,-0.32499 -0.2625,-0.34999 -0.1,-0.1125 -0.225,-0.2125 -0.375,-0.275 -0.15,-0.0625 -0.32499,-0.1 -0.47499,-0.1125 -0.125,0 -0.2875,0 -0.4125,0 l 0,0 -23.912348,0 0,0 c -0.075,0 -0.312498,0 -0.387498,0 -0.174999,0 -0.374997,0.0375 -0.537496,0.1 -0.125,0.0625 -0.237499,0.1625 -0.324998,0.25 -0.0875,0.1 -0.162499,0.18749 -0.237499,0.28749 l 0,0 -6.574958,8.96245 0,0 c -0.1,0.0125 -0.249998,0.0375 -0.337498,0.05 -0.549996,0.1125 -1.087493,0.38749 -1.53749,0.69999 -0.649996,0.475 -1.199992,1.0625 -1.54999,1.78749 -0.237498,0.4375 -0.374997,0.93749 -0.462497,1.43749 -0.0625,0.4625 -0.0875,0.9375 -0.0125,1.38749 0.025,0.2125 0.162499,0.75 0.224999,0.95 0.237498,0.96249 0.387497,1.97498 0.487497,2.94998 0.0625,0.76249 0.112499,1.83749 0.137499,2.59998 0.025,0.675 0.0625,1.64999 0.0125,2.32499 0,0.17499 -0.0125,0.48749 0.0375,0.64999 0.025,0.1375 0.0875,0.275 0.187499,0.3625 0.1,0.1125 0.224999,0.1875 0.362498,0.2 0.05,0.025 0.337498,0.0125 0.387497,0.0125 l 0,0 1.66249,-0.0125 0,6.56246 0,0 c 0,0.05 0,0.36249 0,0.38749 0.025,0.15 0.05,0.3125 0.137499,0.425 0.0875,0.1 0.224999,0.1625 0.362498,0.1875 0.0375,0.0125 0.249998,0.0125 0.287498,0.0125 l 0,0 2.312485,0 0,0 c 0.0375,0 0.399997,0 0.437497,-0.0125 0.112499,-0.0375 0.224999,-0.0875 0.299998,-0.1875 0.0875,-0.1 0.137499,-0.2625 0.149999,-0.4125 l 0,0 0,-0.43749 0,-5.63747 0.549997,0.0375 0,0 c 2.337485,0.125 5.562464,0.3 7.912449,0.3875 2.499984,0.1 5.187467,0.175 7.687451,0.175 1.312492,0 6.962452,-0.1125 8.262442,-0.1375 2.22499,-0.0625 5.87497,-0.175 8.07495,-0.525 0.125,-0.025 0.3875,-0.075 0.5125,-0.0875 l 0,0 0,5.96247 0,0 c 0,0.13749 0.025,0.27499 0.05,0.41249 0.0125,0.075 0.05,0.175 0.1,0.25 0.075,0.0875 0.1875,0.15 0.3,0.175 0.1,0.025 0.22499,0.0375 0.32499,0.0375 l 0,0 2.44999,0 0,0 c 0.125,0 0.275,-0.0125 0.3875,-0.05 0.125,-0.025 0.24999,-0.1 0.31249,-0.1875 0.0625,-0.1125 0.0875,-0.275 0.1,-0.3875 0.0125,-0.1125 0.0125,-0.23749 0.0125,-0.34999 l 0,0 0,-6.53746 z" />
      <path
         inkscape:connector-curvature="0"
         id="path114"
         style="font-style:normal;font-variant:normal;font-weight:normal;font-stretch:normal;letter-spacing:normal;word-spacing:normal;text-anchor:start;fill:#027646;fill-opacity:1;fill-rule:nonzero;stroke:none;stroke-linecap:butt;stroke-linejoin:miter;stroke-miterlimit:10.43299961;stroke-dasharray:none;stroke-dashoffset:0;stroke-opacity:1"
         d="m 27.437327,286.47317 0,0 c -1.649989,0.0125 -2.999981,1.38749 -3.012481,3.07498 0,1.68749 1.324992,3.07498 2.974981,3.09998 1.712489,0.025 3.11248,-1.37499 3.11248,-3.09998 -0.0125,-1.71249 -1.399991,-3.07498 -3.07498,-3.07498 z" />
      <path
         inkscape:connector-curvature="0"
         id="path116"
         style="font-style:normal;font-variant:normal;font-weight:normal;font-stretch:normal;letter-spacing:normal;word-spacing:normal;text-anchor:start;fill:#027646;fill-opacity:1;fill-rule:nonzero;stroke:none;stroke-linecap:butt;stroke-linejoin:miter;stroke-miterlimit:10.43299961;stroke-dasharray:none;stroke-dashoffset:0;stroke-opacity:1"
         d="m 40.787242,289.56065 0,0 -5.737464,0 -0.374997,-0.0125 0,0 c -0.162499,0 -0.399998,0.0125 -0.537497,0.0625 -0.162499,0.05 -0.287498,0.15 -0.387497,0.2625 -0.075,0.075 -0.149999,0.225 -0.199999,0.3 l 0,0 -2.762482,4.81247 0,0 c -0.0875,0.1375 -0.124999,0.31249 -0.149999,0.47499 -0.025,0.2625 0.05,0.525 0.224998,0.725 0.199999,0.225 0.512497,0.325 0.799995,0.35 0.05,0 0.299998,0 0.337498,0 l 0,0 8.787444,0 0,-6.97496 z" />
      <polygon
         transform="matrix(1.249992,0,0,-1.249992,-266.59829,735.0703)"
         id="polygon118"
         style="font-style:normal;font-variant:normal;font-weight:normal;font-stretch:normal;letter-spacing:normal;word-spacing:normal;text-anchor:start;fill:#027646;fill-opacity:1;fill-rule:nonzero;stroke:none;stroke-linecap:butt;stroke-linejoin:miter;stroke-miterlimit:10.43299961;stroke-dasharray:none;stroke-dashoffset:0;stroke-opacity:1"
         points="254.85,350.83 254.85,356.41 246.43,356.41 246.43,356.41 246.43,356.41 246.43,350.83 " />
      <path
         inkscape:connector-curvature="0"
         id="path120"
         style="font-style:normal;font-variant:normal;font-weight:normal;font-stretch:normal;letter-spacing:normal;word-spacing:normal;text-anchor:start;fill:#027646;fill-opacity:1;fill-rule:nonzero;stroke:none;stroke-linecap:butt;stroke-linejoin:miter;stroke-miterlimit:10.43299961;stroke-dasharray:none;stroke-dashoffset:0;stroke-opacity:1"
         d="m 52.699669,289.56065 0,0 0,6.97496 8.78744,0 0,0 c 0.0625,0 0.4875,0 0.5375,-0.0125 0.275,-0.0625 0.51249,-0.2125 0.66249,-0.4625 0.1375,-0.225 0.1625,-0.5 0.0875,-0.7625 -0.025,-0.12499 -0.0875,-0.24999 -0.15,-0.36249 l 0,0 -2.72498,-4.66247 0,0 c -0.0375,-0.0625 -0.1375,-0.225 -0.1875,-0.2875 -0.0875,-0.125 -0.2125,-0.2375 -0.35,-0.3125 -0.1625,-0.075 -0.38749,-0.1 -0.57499,-0.1125 -0.1375,0 -0.3625,0 -0.5,0 l 0,0 -5.58746,0 z" />
      <path
         inkscape:connector-curvature="0"
         id="path122"
         style="font-style:normal;font-variant:normal;font-weight:normal;font-stretch:normal;letter-spacing:normal;word-spacing:normal;text-anchor:start;fill:#027646;fill-opacity:1;fill-rule:nonzero;stroke:none;stroke-linecap:butt;stroke-linejoin:miter;stroke-miterlimit:10.43299961;stroke-dasharray:none;stroke-dashoffset:0;stroke-opacity:1"
         d="m 65.937079,286.47317 0,0 c -1.72499,-0.025 -3.13748,1.37499 -3.13748,3.12498 0.025,1.69999 1.36249,3.07498 3.03748,3.08748 1.69999,0.025 3.09998,-1.36249 3.11248,-3.09998 0,-1.71249 -1.33749,-3.09998 -3.01248,-3.11248 z" />
      <path
         inkscape:connector-curvature="0"
         id="path124"
         style="font-style:normal;font-variant:normal;font-weight:normal;font-stretch:normal;letter-spacing:normal;word-spacing:normal;text-anchor:start;fill:#027646;fill-opacity:1;fill-rule:nonzero;stroke:none;stroke-linecap:butt;stroke-linejoin:miter;stroke-miterlimit:10.43299961;stroke-dasharray:none;stroke-dashoffset:0;stroke-opacity:1"
         d="m 64.949589,284.37318 0,0 -5.64997,-7.64995 0,0 c -0.075,-0.1 -0.16249,-0.2 -0.24999,-0.27499 -0.0875,-0.0875 -0.2125,-0.15 -0.3375,-0.1875 -0.125,-0.05 -0.2625,-0.075 -0.4,-0.075 -0.125,-0.0125 -0.2875,-0.0125 -0.4,-0.0125 l 0,0 -22.512353,0 0,0 c -0.124999,0 -0.249998,0 -0.374997,0.0125 -0.1375,0 -0.299998,0.025 -0.437498,0.075 -0.137499,0.05 -0.262498,0.1375 -0.349997,0.23749 -0.0625,0.05 -0.137499,0.15 -0.174999,0.2125 l 0,0 -5.612464,7.48746 0,0 c 0.149999,0 0.312498,-0.0125 0.474997,-0.025 l 0,0 8.174947,-0.55 0,0 c 2.249986,-0.0875 6.449959,-0.125 8.712445,-0.15 2.712479,-0.0125 7.224949,-0.0125 9.924939,0.2125 l 0,0 8.72494,0.69999 0,0 c 0.1375,0 0.35,-0.0125 0.4875,-0.0125 z" />
    </g>
  </g>
</svg>
