<?xml version="1.0" encoding="UTF-8" standalone="no"?>
<!-- Created with Inkscape (http://www.inkscape.org/) -->

<svg
   xmlns:dc="http://purl.org/dc/elements/1.1/"
   xmlns:cc="http://creativecommons.org/ns#"
   xmlns:rdf="http://www.w3.org/1999/02/22-rdf-syntax-ns#"
   xmlns:svg="http://www.w3.org/2000/svg"
   xmlns="http://www.w3.org/2000/svg"
   xmlns:sodipodi="http://sodipodi.sourceforge.net/DTD/sodipodi-0.dtd"
   xmlns:inkscape="http://www.inkscape.org/namespaces/inkscape"
   width="25.001202mm"
   height="24.996508mm"
   viewBox="0 0 88.586935 88.570302"
   id="svg8266"
   version="1.1"
   inkscape:version="0.91 r13725"
   sodipodi:docname="ilimity.svg">
  <defs
     id="defs8268" />
  <sodipodi:namedview
     id="base"
     pagecolor="#ffffff"
     bordercolor="#666666"
     borderopacity="1.0"
     inkscape:pageopacity="0.0"
     inkscape:pageshadow="2"
     inkscape:zoom="1.979899"
     inkscape:cx="-96.568774"
     inkscape:cy="-9.236211"
     inkscape:document-units="px"
     inkscape:current-layer="layer1"
     showgrid="false"
     fit-margin-top="0"
     fit-margin-left="0"
     fit-margin-right="0"
     fit-margin-bottom="0"
     inkscape:window-width="1920"
     inkscape:window-height="1017"
     inkscape:window-x="-8"
     inkscape:window-y="-8"
     inkscape:window-maximized="1" />
  <metadata
     id="metadata8271">
    <rdf:RDF>
      <cc:Work
         rdf:about="">
        <dc:format>image/svg+xml</dc:format>
        <dc:type
           rdf:resource="http://purl.org/dc/dcmitype/StillImage" />
        <dc:title></dc:title>
      </cc:Work>
    </rdf:RDF>
  </metadata>
  <g
     inkscape:label="Calque 1"
     inkscape:groupmode="layer"
     id="layer1"
     transform="translate(-255.70654,-293.79134)">
    <g
       transform="matrix(2.9433693,0,0,2.9403379,255.70377,293.78851)"
       id="g4146-3-3">
      <path
         inkscape:connector-curvature="0"
         id="path4143-4-6"
         d="M 15.049499,0.050835 14.278214,0.0696626 13.516327,0.1280287 12.765729,0.2240503 12.02831,0.35584553 11.302181,0.52341216 10.591094,0.72486802 9.8931581,0.96209838 9.2121841,1.2313356 8.5481152,1.5306971 7.9009797,1.8620655 7.2726683,2.2254408 6.6650439,2.6151755 6.0762437,3.0331551 5.509993,3.4793767 4.9663201,3.9519578 4.4452532,4.4490076 3.9485986,4.970526 3.4764408,5.5146504 3.0305861,6.0813527 2.6129678,6.6706609 l -0.391287,0.6100233 -0.361188,0.6269567 -0.331089,0.6477 -0.30099,0.6646051 -0.26712899,0.6815667 -0.23702716,0.6985003 -0.20128936,0.711708 -0.16742551,0.72675 -0.13356336,0.738039 -0.0940596,0.75122 -0.05831671,0.762536 -0.0188118,0.771934 0.0188118,0.771934 0.05831671,0.762536 0.0940596,0.75122 0.13356336,0.738039 0.16742551,0.72675 0.20128936,0.711708 0.23702716,0.6985 0.26712899,0.681567 0.30099,0.664605 0.331089,0.647672 0.361188,0.628847 0.391287,0.608161 0.4176183,0.589308 0.4458547,0.566703 0.4721578,0.544124 0.4966546,0.521518 0.5210669,0.49705 0.5436729,0.472581 0.5662507,0.446222 0.5888002,0.417971 0.6076244,0.39164 0.6283114,0.361442 0.6471355,0.331329 0.6640689,0.301413 0.680974,0.267264 0.6979359,0.237349 0.711087,0.201225 0.726129,0.16764 0.737419,0.133773 0.750598,0.09398 0.761887,0.05842 0.771285,0.01891 0.771285,-0.01891 0.761887,-0.05842 0.750599,-0.09398 0.737418,-0.133773 0.72613,-0.16764 0.711087,-0.201225 0.697935,-0.237349 0.680974,-0.267264 0.664069,-0.301413 0.647136,-0.331329 0.628311,-0.361442 0.607625,-0.39164 0.5888,-0.417971 0.56625,-0.446222 0.543673,-0.472581 0.521067,-0.49705 0.496655,-0.521518 0.472158,-0.544124 0.445854,-0.566703 0.417605,-0.589308 0.38941,-0.608161 0.363163,-0.628847 0.331047,-0.647672 0.299156,-0.664605 0.268957,-0.681567 0.237067,-0.6985 0.201224,-0.711708 0.167358,-0.72675 0.131798,-0.738039 0.09596,-0.75122 0.05814,-0.762536 0.01891,-0.771934 -0.01891,-0.771934 -0.05814,-0.762536 -0.09596,-0.75122 -0.131798,-0.738039 -0.167358,-0.72675 L 29.374817,10.600013 29.13775,9.9015127 28.868793,9.219946 28.569637,8.5553409 28.23859,7.9076409 27.875427,7.2806842 27.486017,6.6706609 27.068412,6.0813527 26.622558,5.5146504 26.1504,4.970526 25.653745,4.4490076 25.132678,3.9519578 24.589005,3.4793767 24.022755,3.0331551 23.433955,2.6151755 22.82633,2.2254408 22.198019,1.8620655 21.550883,1.5306971 20.886814,1.2313356 20.20584,0.96209838 19.507905,0.72486802 18.796818,0.52341216 18.070688,0.35584553 17.33327,0.2240503 16.582671,0.1280287 15.820784,0.0696626 15.049499,0.050835"
         style="fill:none;stroke:#1f1a17;stroke-width:0.09970294px;stroke-linecap:round;stroke-linejoin:round;stroke-miterlimit:4;stroke-dasharray:none;stroke-opacity:1" />
      <path
         inkscape:connector-curvature="0"
         id="path4145-1-1"
         d="M 7.7956543,27.627834 27.606413,7.8022309 27.484154,7.5969989 27.359976,7.3936578 27.233964,7.1940702 27.102279,6.9945109 26.968703,6.7987051 26.831374,6.604762 26.692182,6.4146007 26.549208,6.2244676 26.402453,6.0380598 26.253863,5.8535429 26.103353,5.6728078 25.949091,5.4939353 25.791075,5.3169538 25.631167,5.1418631 25.467507,4.970526 25.301983,4.8029707 25.132678,4.637278 24.961482,4.4734762 24.788395,4.313428 24.611583,4.1552707 24.432852,4.0008951 24.250395,3.8483822 24.066019,3.6996511 23.879781,3.5546736 23.69168,3.4115869 23.499797,3.2703911 23.306023,3.1348116 23.110387,3.0011511 22.912859,2.8693533 22.711579,2.7413204 22.510298,2.6189404 22.305235,2.4965604 2.4944542,22.32406 l 0.120396,0.205232 0.124158,0.203341 0.1279172,0.20145 0.1316849,0.197697 0.1335758,0.195806 0.1354385,0.193915 0.1410828,0.192052 0.1429738,0.18827 0.1448647,0.186408 0.14859,0.184517 0.1524,0.180735 0.1542344,0.178873 0.1580163,0.176981 0.1599071,0.175091 0.1636606,0.171337 0.1655516,0.167555 0.1693051,0.165693 0.171196,0.163802 0.1730587,0.16002 0.1768404,0.158157 0.1787031,0.154404 0.180594,0.152484 0.1843758,0.14876 0.1862384,0.144977 0.189992,0.143087 0.189992,0.141196 0.1937738,0.135551 0.1956365,0.133689 0.1994182,0.131798 0.19939,0.126153 0.2031718,0.124262 0.2050626,0.120481 z"
         style="fill:#1f1a17;fill-opacity:1;fill-rule:evenodd;stroke:none" />
    </g>
  </g>
</svg>
